<mxfile host="app.diagrams.net" modified="2023-08-24T00:34:43.394Z" agent="Mozilla/5.0 (Macintosh; Intel Mac OS X 10_15_7) AppleWebKit/537.36 (KHTML, like Gecko) Chrome/99.0.4844.51 Safari/537.36" etag="Zlg-mTjKv__Ge1RrJtEo" version="21.6.8" type="github">
  <diagram name="第 1 页" id="Oc6j__eAUZWHEYvJstZg">
    <mxGraphModel dx="1026" dy="661" grid="1" gridSize="10" guides="1" tooltips="1" connect="1" arrows="1" fold="1" page="1" pageScale="1" pageWidth="827" pageHeight="1169" math="0" shadow="0">
      <root>
        <mxCell id="0" />
        <mxCell id="1" parent="0" />
        <mxCell id="-9ssT2rK5xwqoReyMbJT-1" value="Virtual buffer" style="rounded=0;whiteSpace=wrap;html=1;fillColor=#00CC00;" parent="1" vertex="1">
          <mxGeometry x="251" y="160" width="120" height="60" as="geometry" />
        </mxCell>
        <mxCell id="-9ssT2rK5xwqoReyMbJT-2" value="Physical&lt;br&gt;Buffer" style="rounded=1;whiteSpace=wrap;html=1;fillColor=#00CC00;" parent="1" vertex="1">
          <mxGeometry x="491" y="160" width="120" height="60" as="geometry" />
        </mxCell>
        <mxCell id="-9ssT2rK5xwqoReyMbJT-4" value="Virtual buffer" style="rounded=0;whiteSpace=wrap;html=1;fillColor=#00CC00;" parent="1" vertex="1">
          <mxGeometry x="251" y="280" width="120" height="60" as="geometry" />
        </mxCell>
        <mxCell id="-9ssT2rK5xwqoReyMbJT-5" value="" style="endArrow=none;dashed=1;html=1;rounded=0;entryX=0;entryY=0;entryDx=0;entryDy=0;" parent="1" target="-9ssT2rK5xwqoReyMbJT-2" edge="1">
          <mxGeometry width="50" height="50" relative="1" as="geometry">
            <mxPoint x="371" y="280" as="sourcePoint" />
            <mxPoint x="421" y="230" as="targetPoint" />
          </mxGeometry>
        </mxCell>
        <mxCell id="-9ssT2rK5xwqoReyMbJT-7" value="" style="endArrow=none;dashed=1;html=1;rounded=0;entryX=0;entryY=1;entryDx=0;entryDy=0;" parent="1" target="-9ssT2rK5xwqoReyMbJT-2" edge="1">
          <mxGeometry width="50" height="50" relative="1" as="geometry">
            <mxPoint x="371" y="340" as="sourcePoint" />
            <mxPoint x="421" y="290" as="targetPoint" />
          </mxGeometry>
        </mxCell>
        <mxCell id="-9ssT2rK5xwqoReyMbJT-8" value="" style="endArrow=none;dashed=1;html=1;rounded=0;" parent="1" edge="1">
          <mxGeometry width="50" height="50" relative="1" as="geometry">
            <mxPoint x="371" y="160" as="sourcePoint" />
            <mxPoint x="491" y="160" as="targetPoint" />
          </mxGeometry>
        </mxCell>
        <mxCell id="-9ssT2rK5xwqoReyMbJT-9" value="" style="endArrow=none;dashed=1;html=1;rounded=0;entryX=0;entryY=1;entryDx=0;entryDy=0;" parent="1" target="-9ssT2rK5xwqoReyMbJT-2" edge="1">
          <mxGeometry width="50" height="50" relative="1" as="geometry">
            <mxPoint x="371" y="220" as="sourcePoint" />
            <mxPoint x="421" y="170" as="targetPoint" />
          </mxGeometry>
        </mxCell>
        <mxCell id="-9ssT2rK5xwqoReyMbJT-10" value="Virtual&lt;br&gt;buffer" style="rounded=0;whiteSpace=wrap;html=1;fillColor=#66FFFF;" parent="1" vertex="1">
          <mxGeometry x="251" y="220" width="120" height="60" as="geometry" />
        </mxCell>
        <mxCell id="-9ssT2rK5xwqoReyMbJT-11" value="External&lt;br&gt;Memory" style="rounded=1;whiteSpace=wrap;html=1;fillColor=#66FFFF;" parent="1" vertex="1">
          <mxGeometry x="691" y="160" width="120" height="120" as="geometry" />
        </mxCell>
        <mxCell id="-9ssT2rK5xwqoReyMbJT-12" value="" style="endArrow=none;dashed=1;html=1;rounded=0;exitX=1;exitY=0;exitDx=0;exitDy=0;entryX=0;entryY=0.5;entryDx=0;entryDy=0;" parent="1" source="-9ssT2rK5xwqoReyMbJT-10" target="-9ssT2rK5xwqoReyMbJT-11" edge="1">
          <mxGeometry width="50" height="50" relative="1" as="geometry">
            <mxPoint x="641" y="220" as="sourcePoint" />
            <mxPoint x="691" y="170" as="targetPoint" />
          </mxGeometry>
        </mxCell>
        <mxCell id="-9ssT2rK5xwqoReyMbJT-13" value="" style="endArrow=none;dashed=1;html=1;rounded=0;exitX=1;exitY=0;exitDx=0;exitDy=0;entryX=0;entryY=0.5;entryDx=0;entryDy=0;" parent="1" edge="1">
          <mxGeometry width="50" height="50" relative="1" as="geometry">
            <mxPoint x="371" y="278" as="sourcePoint" />
            <mxPoint x="691" y="278" as="targetPoint" />
          </mxGeometry>
        </mxCell>
        <mxCell id="-9ssT2rK5xwqoReyMbJT-14" value="" style="shape=image;verticalLabelPosition=bottom;labelBackgroundColor=default;verticalAlign=top;aspect=fixed;imageAspect=0;image=data:image/png,iVBORw0KGgoAAAANSUhEUgAABJwAAAGYCAYAAAAHh/htAAAMP2lDQ1BJQ0MgUHJvZmlsZQAASImVVwdYU8kWnluSkEBoAQSkhN4EkRpASggt9I4gKiEJEEqIgaBiRxcVXLtYwIauiihYAbGgiJ1FsWFfLKgo62LBrrxJAV33le+d75t7//vPmf+cOXduGQDUTnBEolxUHYA8YaE4NtifPi45hU56ChCAATJwBrocboGIGR0dDqANnf9u725Ab2hX7aVa/+z/r6bB4xdwAUCiIU7nFXDzID4IAF7FFYkLASBKebMphSIphg1oiWGCEC+U4kw5rpLidDneK/OJj2VB3AaAkgqHI84EQPUy5OlF3EyoodoPsaOQJxACoEaH2CcvL58HcRrE1tBHBLFUn5H+g07m3zTThzU5nMxhLJ+LzJQCBAWiXM60/7Mc/9vyciVDMSxhU8kSh8RK5wzrdjMnP0yKVSDuE6ZHRkGsCfEHAU/mDzFKyZKEJMj9UQNuAQvWDOhA7MjjBIRBbABxkDA3MlzBp2cIgtgQwxWCThUUsuMh1oV4Ib8gME7hs1mcH6uIhTZkiFlMBX+OI5bFlca6L8lJYCr0X2fx2Qp9TLU4Kz4JYgrE5kWCxEiIVSF2KMiJC1P4jC3OYkUO+YglsdL8zSGO5QuD/eX6WFGGOChW4V+WVzA0X2xzloAdqcD7C7PiQ+T1wdq4HFn+cC7YZb6QmTCkwy8YFz40Fx4/IFA+d+wZX5gQp9D5ICr0j5WPxSmi3GiFP27Kzw2W8qYQuxQUxSnG4omFcEHK9fEMUWF0vDxPvDibExotzwdfBsIBCwQAOpDAlg7yQTYQdPQ19sEreU8Q4AAxyAR8YK9ghkYkyXqE8BgHisGfEPFBwfA4f1kvHxRB/uswKz/agwxZb5FsRA54AnEeCAO58FoiGyUcjpYIHkNG8I/oHNi4MN9c2KT9/54fYr8zTMiEKxjJUES62pAnMZAYQAwhBhFtcH3cB/fCw+HRDzYnnIF7DM3juz/hCaGT8JBwndBNuDVJUCL+KcsI0A31gxS1SP+xFrgl1HTF/XFvqA6VcR1cH9jjLjAOE/eFkV0hy1LkLa0K/Sftv83gh7uh8CM7klHyCLIf2frnkaq2qq7DKtJa/1gfea7pw/VmDff8HJ/1Q/V58Bz2sye2EDuAncVOYuexo1gjoGMtWBPWjh2T4uHV9Vi2uoaixcryyYE6gn/EG7qz0koWONY69jp+kfcV8qdK39GAlS+aJhZkZhXSmfCLwKezhVyHUXQnRydnAKTfF/nr602M7LuB6LR/5+b9AYB3y+Dg4JHvXGgLAPvc4eN/+DtnzYCfDmUAzh3mSsRFcg6XHgjwLaEGnzQ9YATMgDWcjxNwA17ADwSCUBAF4kEymAizz4LrXAymgBlgLigF5WAZWA3Wg01gK9gJ9oD9oBEcBSfBGXARXAbXwR24enrAC9AP3oHPCIKQECpCQ/QQY8QCsUOcEAbigwQi4UgskoykIZmIEJEgM5B5SDmyAlmPbEFqkH3IYeQkch7pRG4hD5Be5DXyCcVQFVQLNUQt0dEoA2WiYWg8OgHNRCejxeh8dAm6Fq1Gd6MN6En0Inod7UZfoAMYwJQxHcwEs8cYGAuLwlKwDEyMzcLKsAqsGqvDmuF9vop1Y33YR5yI03A6bg9XcAiegHPxyfgsfDG+Ht+JN+Bt+FX8Ad6PfyNQCQYEO4IngU0YR8gkTCGUEioI2wmHCKfhs9RDeEckEnWIVkR3+CwmE7OJ04mLiRuI9cQTxE7iI+IAiUTSI9mRvElRJA6pkFRKWkfaTWohXSH1kD4oKSsZKzkpBSmlKAmVSpQqlHYpHVe6ovRU6TNZnWxB9iRHkXnkaeSl5G3kZvIlcg/5M0WDYkXxpsRTsilzKWspdZTTlLuUN8rKyqbKHsoxygLlOcprlfcqn1N+oPxRRVPFVoWlkqoiUVmiskPlhMotlTdUKtWS6kdNoRZSl1BrqKeo96kfVGmqDqpsVZ7qbNVK1QbVK6ov1chqFmpMtYlqxWoVagfULqn1qZPVLdVZ6hz1WeqV6ofVu9QHNGgaYzSiNPI0Fmvs0jiv8UyTpGmpGajJ05yvuVXzlOYjGkYzo7FoXNo82jbaaVqPFlHLSoutla1VrrVHq0OrX1tT20U7UXuqdqX2Me1uHUzHUoetk6uzVGe/zg2dTyMMRzBH8EcsGlE34sqI97ojdf10+bpluvW613U/6dH1AvVy9JbrNerd08f1bfVj9Kfob9Q/rd83Umuk10juyLKR+0feNkANbA1iDaYbbDVoNxgwNDIMNhQZrjM8ZdhnpGPkZ5RttMrouFGvMc3Yx1hgvMq4xfg5XZvOpOfS19Lb6P0mBiYhJhKTLSYdJp9NrUwTTEtM603vmVHMGGYZZqvMWs36zY3NI8xnmNea37YgWzAssizWWJy1eG9pZZlkucCy0fKZla4V26rYqtbqrjXV2td6snW19TUbog3DJsdmg81lW9TW1TbLttL2kh1q52YnsNtg1zmKMMpjlHBU9aguexV7pn2Rfa39Awcdh3CHEodGh5ejzUenjF4++uzob46ujrmO2xzvjNEcEzqmZEzzmNdOtk5cp0qna85U5yDn2c5Nzq9c7Fz4LhtdbrrSXCNcF7i2un51c3cTu9W59bqbu6e5V7l3MbQY0YzFjHMeBA9/j9keRz0+erp5Fnru9/zLy94rx2uX17OxVmP5Y7eNfeRt6s3x3uLd7UP3SfPZ7NPta+LL8a32fehn5sfz2+73lGnDzGbuZr70d/QX+x/yf8/yZM1knQjAAoIDygI6AjUDEwLXB94PMg3KDKoN6g92DZ4efCKEEBIWsjyki23I5rJr2P2h7qEzQ9vCVMLiwtaHPQy3DReHN0egEaERKyPuRlpECiMbo0AUO2pl1L1oq+jJ0UdiiDHRMZUxT2LHxM6IPRtHi5sUtyvuXbx//NL4OwnWCZKE1kS1xNTEmsT3SQFJK5K6x40eN3PcxWT9ZEFyUwopJTFle8rA+MDxq8f3pLqmlqbemGA1YeqE8xP1J+ZOPDZJbRJn0oE0QlpS2q60L5woTjVnIJ2dXpXez2Vx13Bf8Px4q3i9fG/+Cv7TDO+MFRnPMr0zV2b2ZvlmVWT1CViC9YJX2SHZm7Lf50Tl7MgZzE3Krc9TykvLOyzUFOYI2/KN8qfmd4rsRKWi7smek1dP7heHibcXIAUTCpoKteCPfLvEWvKL5EGRT1Fl0YcpiVMOTNWYKpzaPs122qJpT4uDin+bjk/nTm+dYTJj7owHM5kzt8xCZqXPap1tNnv+7J45wXN2zqXMzZn7e4ljyYqSt/OS5jXPN5w/Z/6jX4J/qS1VLRWXdi3wWrBpIb5QsLBjkfOidYu+lfHKLpQ7lleUf1nMXXzh1zG/rv11cEnGko6lbks3LiMuEy67sdx3+c4VGiuKVzxaGbGyYRV9Vdmqt6snrT5f4VKxaQ1ljWRN99rwtU3rzNctW/dlfdb665X+lfVVBlWLqt5v4G24stFvY90mw03lmz5tFmy+uSV4S0O1ZXXFVuLWoq1PtiVuO/sb47ea7frby7d/3SHc0b0zdmdbjXtNzS6DXUtr0VpJbe/u1N2X9wTsaaqzr9tSr1Nfvhfslex9vi9t3439YftbDzAO1B20OFh1iHaorAFpmNbQ35jV2N2U3NR5OPRwa7NX86EjDkd2HDU5WnlM+9jS45Tj848PthS3DJwQneg7mXnyUeuk1junxp261hbT1nE67PS5M0FnTp1lnm05533u6HnP84cvMC40XnS72NDu2n7od9ffD3W4dTRccr/UdNnjcnPn2M7jV3yvnLwacPXMNfa1i9cjr3feSLhxsyu1q/sm7+azW7m3Xt0uuv35zpy7hLtl99TvVdw3uF/9h80f9d1u3cceBDxofxj38M4j7qMXjwsef+mZ/4T6pOKp8dOaZ07PjvYG9V5+Pv55zwvRi899pX9q/Fn10vrlwb/8/mrvH9ff80r8avD14jd6b3a8dXnbOhA9cP9d3rvP78s+6H3Y+ZHx8eynpE9PP0/5Qvqy9qvN1+ZvYd/uDuYNDoo4Yo7sVwCDDc3IAOD1DgCoyQDQ4P6MMl6+/5MZIt+zyhD4T1i+R5SZGwB18P89pg/+3XQBsHcb3H5BfbVUAKKpAMR7ANTZebgN7dVk+0qpEeE+YHPk1/S8dPBvTL7n/CHvn89AquoCfj7/C9HzfGDIhq4xAAAAimVYSWZNTQAqAAAACAAEARoABQAAAAEAAAA+ARsABQAAAAEAAABGASgAAwAAAAEAAgAAh2kABAAAAAEAAABOAAAAAAAAAJAAAAABAAAAkAAAAAEAA5KGAAcAAAASAAAAeKACAAQAAAABAAAEnKADAAQAAAABAAABmAAAAABBU0NJSQAAAFNjcmVlbnNob3RxIIx/AAAACXBIWXMAABYlAAAWJQFJUiTwAAAB12lUWHRYTUw6Y29tLmFkb2JlLnhtcAAAAAAAPHg6eG1wbWV0YSB4bWxuczp4PSJhZG9iZTpuczptZXRhLyIgeDp4bXB0az0iWE1QIENvcmUgNi4wLjAiPgogICA8cmRmOlJERiB4bWxuczpyZGY9Imh0dHA6Ly93d3cudzMub3JnLzE5OTkvMDIvMjItcmRmLXN5bnRheC1ucyMiPgogICAgICA8cmRmOkRlc2NyaXB0aW9uIHJkZjphYm91dD0iIgogICAgICAgICAgICB4bWxuczpleGlmPSJodHRwOi8vbnMuYWRvYmUuY29tL2V4aWYvMS4wLyI+CiAgICAgICAgIDxleGlmOlBpeGVsWURpbWVuc2lvbj40MDg8L2V4aWY6UGl4ZWxZRGltZW5zaW9uPgogICAgICAgICA8ZXhpZjpQaXhlbFhEaW1lbnNpb24+MTE4MDwvZXhpZjpQaXhlbFhEaW1lbnNpb24+CiAgICAgICAgIDxleGlmOlVzZXJDb21tZW50PlNjcmVlbnNob3Q8L2V4aWY6VXNlckNvbW1lbnQ+CiAgICAgIDwvcmRmOkRlc2NyaXB0aW9uPgogICA8L3JkZjpSREY+CjwveDp4bXBtZXRhPgo3FgL4AAAAHGlET1QAAAACAAAAAAAAAMwAAAAoAAAAzAAAAMwAAH541KspqAAAQABJREFUeAHsnQd4FcXax19CTegdaVJDE0KTqoAIiihWrHj12iuKBdSLfoariPWi4hXL1Wv3KvaCKCgBFaRIkSahSe+EGnr49p0wy5yTc7bMbs5ukv8+DzmzO/POzPnNsjP7PzPvFDtmHBTn2L9/v4hJTk6Ok8L95fnz51NaWpp7wxgWftcv7PkxAvCLcSO4uAR+LmDFSAp+MaC4uAR+LmDFSAp+MaC4uAR+LmDFSAp+MaC4uAR+LmDFSAp+MaC4uAR+LmDFSAp+MaC4uAR+LmDFSAp+MaC4uBQ0v2IQnE60FgSnEyx0QuCnQ+2EDfidYKETAj8daidswO8EC50Q+OlQO2EDfidY6ITAT4faCRvwO8FCJwR+OtRO2IDfCRY6IfDToXbCBvxOsNAJgZ89NQhOCiPcMAoMjSD4aUBTTMBPgaERBD8NaIoJ+CkwNILgpwFNMQE/BYZGEPw0oCkm4KfA0AiCnwY0xQT8FBgaQfDTgKaYgJ8CQyMIfvbQIDgpjHDDKDA0guCnAU0xAT8FhkYQ/DSgKSbgp8DQCIKfBjTFBPwUGBpB8NOAppiAnwJDIwh+GtAUE/BTYGgEwU8DmmICfgoMjSD42UOD4KQwwg2jwNAIgp8GNMUE/BQYGkHw04CmmICfAkMjCH4a0BQT8FNgaATBTwOaYgJ+CgyNIPhpQFNMwE+BoREEPw1oign4KTA0guBnDw2Ck8IIN4wCQyMIfhrQFBPwU2BoBMFPA5piAn4KDI0g+GlAU0zAT4GhEQQ/DWiKCfgpMDSC4KcBTTEBPwWGRhD8NKApJuCnwNAIgp89NAhOCiPcMAoMjSD4aUBTTMBPgaERBD8NaIoJ+CkwNILgpwFNMQE/BYZGEPw0oCkm4KfA0AiCnwY0xQT8FBgaQfDTgKaYgJ8CQyMIfvbQIDgpjHDDKDA0guCnAU0xAT8FhkYQ/DSgKSbgp8DQCIKfBjTFBPwUGBpB8NOAppiAnwJDIwh+GtAUE/BTYGgEwU8DmmICfgoMjSD42UOD4KQwwg2jwNAIgp8GNMUE/BQYGkHw04CmmICfAkMjCH4a0BQT8FNgaATBTwOaYgJ+CgyNIPhpQFNMwE+BoREEPw1oign4KTA0guBnDw2Ck8IIN4wCQyMIfhrQFBPwU2BoBMFPA5piAn4KDI0g+GlAU0zAT4GhEQQ/DWiKCfgpMDSC4KcBTTEBPwWGRhD8NKApJuCnwNAIgp89NAhOCiPcMAoMjSD4aUBTTMBPgaERBD8NaIoJ+CkwNILgpwFNMQE/BYZGEPw0oCkm4KfA0AiCnwY0xQT8FBgaQfDTgKaYgJ8CQyMIfvbQimVnZx+zT+ZfiszMTEpNTfUvwyKWE/h5a3DwAz9vBLxZ4/4DP28EvFnj/gM/bwS8WeP+Az9vBLxZ4/4DP28EvFnj/gM/bwS8WQd9/0Fw8tZ+CbcO+oZJ+Bf2uUDw8wYU/MDPGwFv1rj/wM8bAW/WuP/AzxsBb9a4/8DPGwFv1rj/wM8bAW/WuP8KNj8sqVPaD1PiFBgaQfDTgKaYgJ8CQyMIfhrQFBPwU2BoBMFPA5piAn4KDI0g+GlAU0zAT4GhEQQ/DWiKCfgpMDSC4KcBTTEBPwWGRhD87KFBcFIY4YZRYGgEwU8DmmICfgoMjSD4aUBTTMBPgaERBD8NaIoJ+CkwNILgpwFNMQE/BYZGEPw0oCkm4KfA0AiCnwY0xQT8FBgaQfCzhwbBSWGEG0aBoREEPw1oign4KTA0guCnAU0xAT8FhkYQ/DSgKSbgp8DQCIKfBjTFBPwUGBpB8NOAppiAnwJDIwh+GtAUE/BTYGgEwc8eGgQnhRFuGAWGRhD8NKApJuCnwNAIgp8GNMUE/BQYGkHw04CmmICfAkMjCH4a0BQT8FNgaATBTwOaYgJ+CgyNIPhpQFNMwE+BoREEP3toEJwURrhhFBgaQfDTgKaYgJ8CQyMIfhrQFBPwU2BoBMFPA5piAn4KDI0g+GlAU0zAT4GhEQQ/DWiKCfgpMDSC4KcBTTEBPwWGRhD87KFBcFIY4YZRYGgEwU8DmmICfgoMjSD4aUBTTMBPgaERBD8NaIoJ+CkwNILgpwFNMQE/BYZGEPw0oCkm4KfA0AiCnwY0xQT8FBgaQfCzhwbBSWGEG0aBoREEPw1oign4KTA0guCnAU0xAT8FhkYQ/DSgKSbgp8DQCIKfBjTFBPwUGBpB8NOAppiAnwJDIwh+GtAUE/BTYGgEwc8eGgQnhRFuGAWGRhD8NKApJuCnwNAIgp8GNMUE/BQYGkHw04CmmICfAkMjCH4a0BQT8FNgaATBTwOaYgJ+CgyNIPhpQFNMwE+BoREEP3toEJwURrhhFBgaQfDTgKaYgJ8CQyMIfhrQFBPwU2BoBMFPA5piAn4KDI0g+GlAU0zAT4GhEQQ/DWiKCfgpMDSC4KcBTTEBPwWGRhD87KFBcFIY4YZRYGgEwU8DmmICfgoMjSD4aUBTTMBPgaERBD8NaIoJ+CkwNILgpwFNMQE/BYZGEPw0oCkm4KfA0AiCnwY0xQT8FBgaQfCzhwbBSWGEG0aBoREEPw1oign4KTA0guCnAU0xAT8FhkYQ/DSgKSbgp8DQCIKfBjTFBPwUGBpB8NOAppiAnwJDIwh+GtAUE/BTYGgEwc8eGgQnhRFuGAWGRhD8NKApJuCnwNAIgp8GNMUE/BQYGkHw04CmmICfAkMjCH4a0BQT8FNgaATBTwOaYgJ+CgyNIPhpQFNMwE+BoREEP3toEJwURrhhFBgaQfDTgKaYgJ8CQyMIfhrQFBPwU2BoBMFPA5piAn4KDI0g+GlAU0zAT4GhEQQ/DWiKCfgpMDSC4KcBTTEBPwWGRhD87KFBcFIY4YZRYGgEwU8DmmICfgoMjSD4aUBTTMBPgaERBD8NaIoJ+CkwNILgpwFNMQE/BYZGEPw0oCkm4KfA0AiCnwY0xQT8FBgaQfCzhwbBSWGEG0aBoREEPw1oign4KTA0guCnAU0xAT8FhkYQ/DSgKSbgp8DQCIKfBjTFBPwUGBpB8NOAppiAnwJDIwh+GtAUE/BTYGgEwc8eGgQnhRFuGAWGRhD8NKApJuCnwNAIgp8GNMUE/BQYGkHw04CmmICfAkMjCH4a0BQT8FNgaATBTwOaYgJ+CgyNIPhpQFNMwE+BoREEP3toEJwURrhhFBgaQfDTgKaYgJ8CQyMIfhrQFBPwU2BoBMFPA5piAn4KDI0g+GlAU0zAT4GhEQQ/DWiKCfgpMDSC4KcBTTEBPwWGRhD87KFBcFIY4YZRYGgEwU8DmmICfgoMjSD4aUBTTMBPgaERBD8NaIoJ+CkwNILgpwFNMQE/BYZGEPw0oCkm4KfA0AiCnwY0xQT8FBgaQfCzhwbBSWGEG0aBoREEPw1oign4KTA0guCnAU0xAT8FhkYQ/DSgKSbgp8DQCIKfBjTFBPwUGBpB8NOAppiAnwJDIwh+GtAUE/BTYGgEwc8eWrF58+Yds0/mX4q2bdv6lxlyAgEQCA0B41kSsy7x/s8jfS4u8MnlgPsh/++HV155hW699daY/0/jXVy8eDHNnDmTFi5cSKtWraItW7bQ3r176dixhA4d4lUP10GgQBAoVqwYlStXjmrUqEENGzakU045hTp16kQtW7YsEPVHJUEg0QQOHz4s+p0///xT9D1r164V/U9WVpbogzge/VCiWwXluSHAz/2SJUuKZ3/lypXF879evXqiD2jevLnoBzi+KBwJn+HE8HGAAAgUPgLxOv54/+ezs7MFhOTk5AgY8dK7zd9revmLRUpKSkT95IlO/vPnz6e0tDSZhfgsrN+3qLVv2L/vGWecQRkZGTR58mTq1atXxD0YfbJv3z56+eWX6e2336ZFixZFR+McBEDAJwKtWrWia6+9lm6//XYqW7asZa6x+g9LA4tI2b9F978WJpZRYc+PKw9+lk1oG5kIflzGt99+SxMnTqQpU6ZAULJtFSQoyAR4/N+zZ0/q27cvnXvuueb7gd/PU2aUiP+/Vm0RmOB09YzuVvVCHAiAQAgJvNf5V1GreGKLmyr7/UANe37MJugHvlX7gJ8VHfu4MPOTYlPHjh1p1qxZll/mmWeeoZEjR9KuXbtEupQapahOt8pUPa0CVW5SlsrWKk0ly5WgYkmW2SASBEBAIXAsh+jw3iO0b9NBylq+j7bO303rp2VR9pZDIlXFihVp+PDhNHToUMUqMoj+I5KH2zPwc0ssMn1+8du2bZv4ceODDz6gOXPmRBRat107qte+PZ3U6hSq3qQJVTZmh5Q3ZgmWMf6/lCxdmgiTGCJ44SRkBIyZ4IcPHqQDxnhqjzE7PMuYpbd1+XLauGghrTXu9XVz50ZUuL1xr1911VV0+eWXU9WqVcmvHwS4kPz6/xvxBSxOIDhZwEEUCIBAJAEITpE83J4F/cC3qm+YBRNZb/CTJNx9pqeni1+Ln3/+efMXtOgcfv/9dxo8eDBNnz5dRNXuUplSL6lFdXtUiU6KcxAAAZ8IrJu6gzI/3UQbfssSOXbt2pXGjBlDHTp0yFMCnn95kLi6AH6ucOVJ7De/pUuX0muvvUa81Fv+iFmuWnVqfcH51LLfOZRqzMpNrlQpTz1wAQQKC4H9O3dSpjHrfPGE72jBl1/R3m1bxVfjmU833ngj3XvvvcRL7/w4/P7/y3VyI4hBcPKjFZEHCBQRAhCcvDV00A98q9pDcLKiYx9XkPm9//77dM0111BOTg5VbJhC7W4/GUKTfZMjBQj4RoCFp7kvr6Zdq7IpKSmJ3nnnHRo0aFBE/ug/InC4PgE/18giDPzit2HDBuIfQV5//XUz/9bnn0+d/nYNpV10kXkNARAoagTmf/45zXz3HVrw1VfmV7/tttvo4Ycfptq1a5vXdAJ+/f/lsnXGuxCcdFoNNiBQRAlAcPLW8EE/8K1qr9OBJDI/Lgv8rIjbx8Xix78u84CGj6YX1qRODzTBcjl7lEgBAr4T4GV3M59aTsu+2CzyHjt2bIST/1j/f3UrEfbnvd/1Y07gp3u35Nr5we+5554TL88HDhwQmXa94Qbqeedgqt26tbfKwRoEChGBDQsW0JSXxtD0N94Q36pMmTL0+OOP03333af9Lf34/ysL13k+Q3CS9PAJAiBgSwCCky0iywRBP/CtKqfTgSQyPy4L/KyI28dF8+OZTVdffbUwTLulPrW+vp59JkgBAiCQrwQWvLmW5r+6RpTx3nvvmTOdov//eqlE2J/3ftePWYGflzvGGz9mP2TIELFxBdei3aWX0tn/GA6hyVuTwLqQE2Dh6fsnRtLccePEN+UNX6xcI1jhCPr5B8HJqnUQBwIgEEEAglMEDtcnQT/wrSrs9wDf7/y47uBn1YK5cewg/NFHH425E53Kj3028bbsvIwOYpM9V6QAgUQSkKITL6+bOXOm8Omk/v/1Whe/n89hz495gZ+3u0aXH/tpuvXWW4WfpmqNG9MFTz6FpXPemgLWRYwAL7X78sEHaNuKFYaf/GLC79nNN9/sioLu/99Yheg87yE4xSKJayAAAjEJQHCKicXxxaAf+FYV1elAEpkflwV+VsSJ5G50/CvYZMMRZfSh8uvWrZtwEM7L6Do/1CQ6Kc5BAAQCJjBjVO7yOnYkPm3aNDz/PLaH+vzzmJWWDxOrMgtr/3vPPfeIGRn83Xn53MAXXqSSxvIgHCAAAu4IHDaWoX5y913mMjueMTh69GjHmQT9/IPg5LipkBAEQACCk7d7IOgHvlXtC+uAN953Dvv3dVs/O7GJOcj775lnnqFhw4YJB+HnfdAOPpvi3SS4DgIBEmCfTt9cNVc4En/66afprLPOirvLpNtqun2+2OUf9vy4/vL5Z/ddnMSH/fv6XT8dfpcay+Y++eQTgfPyf79M3W+5xQlapAEBELAg8Ourr9JHd9wuUgwcOJDGHV9uZ2EiooJ+/kFwsmshxIMACJgEIDiZKLQCQT/wrSrt9wDV7/y47uAXuwWdiE2SX5MmTahOnTq0a9cu6vVMC+xGFxsproJAKAjw7nUZQ5dQxYoVacKECdSlSxdf6uX38zns+TE09B/ebh2n/A4dOkQDBgygH374gcpVq05//+B9Su19prfCYQ0CIGASyPzpR3rrqkG0d9tW8UPE119/TaVKlTLjYwWc/v+NZRt9Ted5D8EpmiLOQQAE4hKA4BQXjaOIoB/4VpXU6UASmR+XBX55iWdkZIildPGW0akWzI9fAnh2U+0ulan3Cy3VaIRBAARCSOCnuxfTht+yhNNlN0sorL5K2J/3ftePWaD/sLoj7OOc8jv77LNFP8P+mm785FM4BrdHixQg4JoAOxT/z8BLhF8nnv36/fffW+bh9P+vZSbHI3WezxCcnJBFGhAAAUEAgpO3GyHoB75V7XU6kETmx2WBX2zi6enpxP/sDuY3aNAgWrRoEWY32cFCPAiEhICc5dTYeIFfvny5L7UK+/Pe7/oxNPQf3m4dJ/zkMjoWm2795huq0TTVW6GwBgEQiEtgy7JMeuW884ToZLe8zsn/37gFRUXoPJ8hOEVBxCkIgEB8AhCc4rNxEhP0A9+qjjodSCLz47LAz4q4fdyHH35IV111FaXUKEUXf32qvQFSgAAIhILAZwNmUfaWQzR79myxY53XSoX9ee93/ZgX+g9vd40dP+kgnJfR3TlxImY2ecMNaxBwRIBnOr3Ut69YXmflSNzu/6+jwo4n0nk+Q3ByQxhpQaCIE4Dg5O0GCPqBb1V7nQ4kkflxWeBnRdw+Tr4QYGc6e1ZIAQJhIiB3rGPn4UOHDvVctbA/7/2uHwND/+HttrHi99prr9Etx52C32ks24bPJm+sYQ0CbgiwT6eXjGV1fLxqOBW/+eab85hb/f/Nk9jmgs7zGYKTDVREgwAInCAAwekEC51Q0A98qzrrdCCJzI/LAj8i9tnE/pp0jr7Gr2CTJk2ibo82pUb9a+hkARsQAIEACKwcv4WmjVhGdssmnFYt7M97v+vHXNB/OL07YqeLx4+vt2vXjo4dO0bYjS42O1wFgfwmIHevK1asGM2dOzfPjqbx/v/q1Evn+QzBSYc0bECgiBKA4OSt4YN+4FvVXqcDSWR+XFZR5yd3o5s8ebKW6MQ71K1YsYLOfbctVU4ta9V8iAMBEAgRgazMffTt3+ZRq1ataOHChZ5rFvbnvd/1Y2BFvf/wetPE4yf7pa433EBXvvqa12JgDwIgoEngw1tupulvvCHGhzxOVI94/3/VNE7DOs9nCE5O6SIdCIAAQXDydhME/cC3qr1OB5LI/LisosxPDup5dlP0QMKqHdS4ChUq0J49e+iyiZ2pVIUSahTCIAACISZwaPcR+rjvDKpYsSLt3LnTc03D/rz3u34MrCj3H55vmDj8nnvuObr//vuJnYQ/NP8PKlmmjB9FIQ8QAAENAocPHKBRaW2EE/Fnn32W7rvvPjOXoJ9/EJzMpkAABEDAjgAEJztC1vFBP/Ctauf3AN/v/LjuRZWfH2IT80tKShLLHgZN707FkvgKDhAAgYJA4FgO0ftdfxX/h48ePeq5yn4/n8OeHwMrqv2H55vleAbR/DZs2EC8c+IB4yX3hnGfUNpFF/lVFPIBARDQJDD/88/pjUsHUhlD/OUZ7bVr1xY5Rf//1cxemOk874tlZ2cf81KoW9uUlBRhcvWM7m5NkR4EQCBgAlJwMp4bAdekYBafmZlJqanYJli39Yoiv379+tHUqVOpR48eNGHCBF10wg79ryd8MAaBQAmg//WGvyj2H96IRVpH87v77rvp9ddfp3aXXkrXffi/yMQ4AwEQCIzAf6+8guaOG0c33XQTvfDCC6Ie0f9/E105CE6JJo7yQKAAE8CA11vjBf3A91b74K2LIr+RI0fSzz//7Fls4taD4BT8PYwagIAuAfS/uuRy7Ypi/+GNWKS1ym/p0qXCUTineHDuPKrdunVkYpyBAAgERmDDggX0ZLu2onx2IN6sWTNS//8GUTEsqQuCOsoEgQJKQA54eTcSr4fOlEyrMsOeH9c96Cmt4HeCQNjvF7/rx9+cdy/hAzOMBQb8AYECRQD9r7fmQv/rH7/bb7+dxo4dS3AU7o0prEEgvwhIB+K33XYbvfzyy4G/f0Bwyq+WRr4gUAgJYMDrrVEx4AU/pwQgODklhXQgUDQIoP/11s7of/3ht23bNqpRo4bwB4jZTd6YwhoE8ouAnOXEPzRu2bKF1q9fT2lpab4UpzM+heDkC3pkAgJFgwAGvN7aGQNe8HNKQKdDt8sbM5zsCCEeBMJLAP2vt7ZB/+sPP7kzXevzz6ebPvvcW6awBgEQyDcCr198ES346iviHev69OkDwSnfSCNjEAABXwlgwOsNJwa84GdFgHeje/TRR6lXr14EwcmKFOJAoOgRQP/rrc3R//rDr0OHDjRnzhzsTOcNJ6xBIN8JyB3r2rdvT2+++SYEp3wnjgJAAAR8IYABrzeMGPCCXzwCLDZlZGQIsWny5MkQnOKBwnUQKKIE0P96a3j0v975cQ5t27alctWq0xObNnnLENYgAAL5TuAftWrR3m1b6eOPP6ZLjR0l/Th0fhDFkjo/yCMPECgiBDDg9dbQGPCCXywC0WITp9Hp0GPlrV7DkjqVBsIgULAIoP/11l7of73z+/bbb2n48OFwFu4NJaxBIGEEpPPwO++8k8aMGeNLuTrjUwhOvqBHJiBQNAhgwOutnTHgBb9oArHEJk6j06FH5x19DsEpmgjOQaDgEED/662t0P965zdkyBAxE/eGcZ9Q2kUXecsQ1iAAAvlOQC6r69ixI82aNcuX8nTGpxCcfEGPTECgaBDAgNdbO2PAC34qAV5Cx4IT+2ziZXTqodOhq/axwhCcYlHBNRAoGATQ/3prJ/S/3vjNnj2bOnXqJHane2rbdkquVMlbhrAGARDIdwL7d+6kB6pVJR7/HThwgEqVKuW5TJ3xKQQnz9iRAQgUHQIY8Hprawx4wS+agPTbFH1dp0OPziP6HIJTNBGcg0DBIYD+11tbof/1xu+tt96i6667juq2a0fDZs32lhmsQQAEEkbg6VM70rq5c2nq1Kl0+umney5XZ3wKwckzdmQAAkWHAAa83toaA17wc0pAp0O3yxuCkx0hxINAeAmg//XWNuh/vfF78MEH6amnnoL/Jm8YYQ0CCScg/Ti9+OKLNHjwYM/l64xPITh5xo4MQKDoEMCA11tbY8ALfk4J6HTodnlDcLIjhHgQCC8B9L/e2gb9rzd+l19+udjp6uJ/jaZed93lLTNYgwAIJIxAhiE0fXbvPXTbbbfRyy+/7LlcnfEpBCfP2JEBCBQdAhjwemtrDHiLNr/09HTif04OnQ7dLl8ITnaEEA8C4SWA/tdb26D/9cavW7duNH36dLrlq6+pVf/+3jKDNQiAQMIILBo/nl49fwCdddZZ9P3333suV2d8CsHJM3ZkAAJFhwAGvN7aGgPeostP7kbHzsHZSbjdodOh2+UJwcmOEOJBILwE0P96axv0v974NWnShFasWEEPzp1HtVu39pYZrEEABBJGYMOCBfRku7bUqlUrWrhwoedydcanEJw8Y0cGIFB0CGDA662tMeAtmvyk2BRrN7p4RHQ69Hh5yesQnCQJfIJAwSOA/tdbm6H/9cavatWqtGPHDhq5fgOVr1nTW2awBgEQSBiBPZs30/A6talGjRq02Qh7PXTGpxCcvFKHPQgUIQIY8HprbAx4ix4/HbGJKel06HZ0ITjZEUI8CISXAPpfb22D/tcbv9KlS9OhQ4foub37qGSZMt4ygzUIgEDCCBw+cIDuK1eWyhj/b+XY0kvhMo/k5GTH2UBwcowKCUEABDDg9XYPYMBbtPjpik1MSadDt6MLwcmOUN74leO30IEdh/NGHL9SIqU4VaifTFWalaVS5UtEpNv9135a9f1Wca3NjfWoWPFiEfFBncjvVLVlOarZvmLCqpG9+SD9NXGbKK/ZpSdR8dJJCSu7MBSE/tdbK6L/9cYvKSmJjh07Ri8ePkJULBzPMm/fCNYgUEQIGP9v7ypZwvhvW4xycnI8f2md8SkEJ8/YkQEIFB0CGPB6a2sMeIsWv4yMDBoxYgSx3ya3h06HblcGBCc7Qnnjvx00j7KW78sbEXWlpCE8dbinITU5/8RSk3VTd1DG0CUi5RVTulKJMuEQWL6+Yi7tWpVNLa+uQ+0HN4j6Jvl3uvn3XTTx9lz/EQO/60RlqpTMv8IKYc7of701Kvpfb/xk//HikaPeMoI1CIBAwgncVaK4KJNFY6+HzvgUgpNX6rAHgSJEAANeb42NAS/4OSWg06Hb5S1fGK6e0d0uKeKPE1AFp+ppFSK4HMw6TLvX7I+41mNUc6rfu6q4BsEpAg1BcIrk4fYM/a9bYpHp0f9G8nB7JvsPCE5uySE9CARPIHDBKTs727vU5YJjSkqKSI0BrwtoSAoCISEgB7zGcyMkNSpY1cjMzKTU1NSCVekQ1Rb8vDUG+l/3/KTgxEvP+o49JU8GOYdy6K9J22jaiGUijmc6XfZjFypmTGYKq+C0b9NBOnowh0pXLEGlKyVulhEEpzy3j6sL6H9d4cqTGP1HHiSuLsj+A4KTK2xIDAKhICAFp6De34pBcArFfYBKgECBIIABr7dmwoAX/LwR8GYtXxjwg49zjnaCk8xp5tMrKfPTjeL0oi87UtlapeMKTof2HKEShv+ipFL+L7HLOXyM9m8/JJarFfeQ/5EDOXTAyKd05ZLEIprdwcLbwV1HqFSFEnF9M0FwsqNoHY/+15qPXSz6XztC1vGy/4DgZM0JsSAQRgKBC07GWr64M5wwpT+MtwzqBALBEZADXovHhuPK+f18CXt+DAZT+h3fHjEThplfz5496fTTT6fHH388Zt3dXvT7fuby5ZIICE7OW8Op4JT52Saa+dQKkfFZr7SmGu0qRAhOl4w/lZZ+tJHW/5pl+oRip93sR+nkM6sJOxZ5frh5AR07eozq9qhCabfUz1PR/VsP0U9DFovr7Hi7yYW5PqM2TMuiea+soR1L95o27My8yQU1qcVVdcSMKxnx26jltGfNAWpwVjVqelEteVl8rv5xGy18c51ZR75Yrk4ZYqfnjc6pYdxEJ5KzuLXsy03ie6lLC8sYIlXjATWp+RUnUXLVUqYBBCcThVYA/a8WNtMozP2H3897v/NjiLL/gOBk3lIIgECBISAFp6De3+DDqcDcKqgoCARPAANeb22AAW/h5Cd3o+vRowdNmTLF25c8bp2fLwwQnJw3kVPBacGba2n+q2tExhd80p7K10uOEJwqNykbIeKoNejxpOH36Yxcv0+T7lhIm2bvErOKLp3YmZJKKAqPYaQKW+e8lUZVW5Sjld9toWnpuUv61HxluF6vqtTzqebylOI5DZ89ehX9+b8NZrroQIchDanFlbVzLxs/VU5/fBmt+GZLdDLznAWvs99oQ6WNWU98QHAy0WgF0P9qYTON0P+aKLQCEJy0sMEIBEJBAIJTKJoBlQABEHBCAANeJ5Tip8GANz4bJzFh5KeKTRMmTKDk5GQnX8U2DQQnW0QJSeBEcNq5Ipu+v/EPOpx9VAhFl03qTMWKF4sQnLiyLCqd8ve6YtbP1oV7aOqDf4rvwDOILvysgwivHG+IR8f9QfV5qRXVOrWSuC7/TLxtIW2es4tYzDl/XHvKOXKMPug+TUSf1KkStb+7AVVqlCKWty15fz0tene9iBvwUXuq2CD33owlOG2csZN+vGuRSMv+qtJurU9VUsvS7tX7afpjy02xTO4ut+PPvTT+2vkiferFtajNzfWFsLRr1f7cWU8f5y4v7J6eSg3PqS7SQXASGLT/oP/VRicMw9h/yG/k9/Pe7/y4nhCcZGvhEwQKHgEITgWvzVBjECiyBDDg9db0GPAWLn5SbOrVqxeNHz9efDkITt7aOGzWUnDiZWK8hE092FfSht920t71B8zLp97fyEynOg1nMejMMa3MdByYN3Y1LXxrnbjGIlWp8iWI/Tt93GeGuJZ6SS3qNKyxCPOf/dsO0afnzhLn7W4/mVpdW5d2Ls+mbwbNFdd6j25JtbtVFmH+cyyH6MuBv4v6tb3tZCF28fVowYnTjf/bPCEqpdQoRee+2zbCmfiWubvph1sXsCnJ2VjLv9hMvDSP/Ttd+n2nCH9URwzhjevJAhzXkevKBwQngUH7D/pfbXTCEP2vN34QnLzxgzUIBEkAglOQ9FE2CICAKwIY8LrClScxBrx5kLi6ECZ+GRkZxIITi02TJ08mv39R9js/Bi1fGLCkzvltJwUnJxYsSPGyM7kMThWcYs1W+mviNvrl4aUia57hxDOd+OBrHCd2vDs+W4qvL/t8E814MtdPlEy/Z90B+vKS3zmaeGZS5wcaU4XjM5n4Gu9Gxz6hihlL86QT8WjBiXet+/yC2ZycWt9Qj9KM2UrRBy+3O2Q4Ba93RhWq17MqZW8+SFx2yXIlqEqzshHJ9244QBOu/4MOZB2mVn+rQ+3ubCDiIThFYHJ9gv7XNbIIgzD1HxEVM078ft77nR/XV/Yf8OEU3Xo4B4HwE4DgFP42Qg1BAASOE8CA19utgAFv4eLHohMLTnz4PcD3Oz+uo3xhgODENJwdUnBi8admx4p5jEqVLUEVGyZTjbYVqHpahYh4VXCSApGagJfG8RI5PqTfJw6zY/HJ9+Y6Bu879hQhJPF16d+Jyzn7tdZ8SRwTbviDthlL9OTB/qJO6lKJeFYVpy1RJklGic9owUmdwXT6E81MJ+YRRnFOeEkfOyzfvmQv7TFmevFsL7UuEJzigNO4jP5XA5pigv5XgaERlP0HBCcNeDABgYAJQHAKuAFQPAiAgHMCGPA6ZxUrJQa8sag4vwZ+zlnFSilfGCA4xaIT+5oUnHj2EIs/bg5VcLoiowuVSC4eYR5PcMo5lEPjzp4plqQ1u+wkOvW+RsTL9z7tn7ucrstDTczd6ThDXoY3+7lVwnl4RAHHT1pdU5faGj6Z2K8UH9GCk+o36rwP2lGlxinHLeN/HNl/lJZ8uIGWGr6aeCZTvAOCUzwy7q+j/3XPTLVA/6HScB+W/QcEJ/fsYAECQROA4BR0C6B8EAABxwQw4HWMKmZCDHhjYnF8Efwco4qZUL4wQHCKiSfmRd8Epyld88w0iic4cUVmPbuSlo7baC6rW/H1FuEzieMu/aEzla6Yu/Mbn8vj4O4jtGnWTuErad3POyh7yyEZRS2vrkPtBzcQ59GC018/bKVfHskUcWe/3oaqtylv2sULzBi1gpZ9sUlEswNzdohexdgxr1ztMlTJmPH1/S0LaPvivVhSFw+gxnX0vxrQFBP0HwoMjaDsPyA4acCDCQgETACCU8ANgOJBAAScE8CA1zmrWCkx4I1Fxfm1IPmlp6cT/4t3+L0Ezu/8uN7yhQGCU7xWzHs9KMFp6x976Pub/hAVOuvV1vTH62to0+xdVK9XVer5VHOzovu3HqL9Ow5TybLFqXzdXB9QMjJr2T76cfAiMQOJnZ4PnNBJREULTtsX7aHvDJ9LfLS7w3BGbsyIUg92Kv7byGXEglbDftWpXo+q9MFpuTvjcX16jGpGxZJyZ0+xHaf/+Mzfcp2Gw4eTitJTGP2vJ3wUZP9hV3O/n/d+58f1l/0HBCe71kQ8CISPAASn8LUJagQCIBCHAAa8ccA4vIwBr0NQcZIFxU/uRsfOwaXPpugq+j3A9zs/rq98YYDgFN168c+DEpzoGNFn588Ss5ROPrMarf5xm6hkz6ebC6fdssYL3lhL819bQywoXTK+kyH8yJjcz0Vvr6O5L68WJ4Omdxfx0YKTujNerN301KWBvZ9vSeXrJZuOytVd+WTJqoCFJXWSivdP9L/eGAbVfziptd/Pe7/z4+8g+w8ITk5aFGlAIFwEIDiFqz20asN+DHgXGHbMmTowctvkWBmunbKd9qzN3Ua54TnVafdf+4XDzTJVS1Kjc2rEMgntNd5Jh3erqdK8HNWK4VA1uuL8Ky3/+sm/klY4OTk62vdz3hVn3S87xG46tTpUpOZX1BZl8O46K7/dQrtX7zf8aiRR10ea+l52YcwQA15vrYoBb8HjJ8UmFppYcIp3+D3A9zs/rrd8YYDgFK8V814PTHAyqiLFJFkrdlw+8PtO5m5zfH3D9Cz6aUiug/FOxg51qRfXksnp8L6j9NM9i2nr/N3Cebh0NB4tOLHBPEOUWmiIU3x0GW74iDq/pgjzDKpJxiypXauyxfkVxtLAYsZkpg97TBfnVZqVo7Nfb03FSyeJvn3L3F2Ucf8SMbuJE3Cf2/GehiItdqkTGLT/oP/VRicM0f964yf7DwhO3jjCGgSCIADBKQjqPpcpd47hbC/4tEOeae1qcSxMfdxnhjkYY0ei819dI5xv8s4y577fVk1uGd44c6fY8rhiwxTLMi0z8Rj5g+GnYcu83dT88pOo472NrHMzfrF9r8uvIs0Z/2pJdbpXtk7vMZZ9WPDAVx6Nz6shhCX2a/HZgFznqxynLjWQafEZmwAGvLG5OL2KAa9TUrHTJZqfU7GJa+u3QOR3flxH+cIAwYlpODuCFJz4B5GvLptjVlQVb+TFYznHjKV3C8yd4XgcUblZWdq38SCxjyh5nDmmldi1js9jCU48y2n8tfPFLnOchvvFcnXKmPnytR6jmlP93lU5SNP+uUz8aCNOjD/8gxP7bDqcfVRcYr9Ou9fsF+G6PapQr2daCN9SE2/P3ZVv4HedqEyVktIcnw4IoP91AMkiSaL7D4uq5Iny+3nvd35cYdl/QHDK03y4AAKhJwDBKfRNZF9BdYeXWP4P1BzUX/j4F0T+JfH351dpCU6f9JspfDO0v6sBtRxURy0mYeEwC06qU1MWm07uU41qd61MqoNUXj5Q/8yq1PTCE78KJwxeASwIA15vjYYBb8Hh50Zs4m/l9wDf7/y4jvKFAYIT03B2SMGJBZU+/3a5S53yo8eVU7uKWUBqqVvm7qYfbl0gLsX7seq76+YLIYcTnfteW6rctKyahQjzLOMZT62g9b9m5Ylj4aijsctdg77VzDj5ndhXE49Z5MGi0/THl9PajO3ykvhMqVGKOgxpSLy0Tx6clkUnXm6nHix4df2/pnTsSA5NefBP03E533Oqk3T2J8V1w+GcAPpf56xipUT/G4uK82uy/4Dg5JwZUoJAWAhAcApLS3iox+G9R+kjw0EmH3azlGY+vZIyP90o0vIWy7zVMm8pfMhwxslT0svWKi3inPyB4GRNSQ7UG5xdnU77Z6qZeN5YY+nAW+vE7j+XT+5iXkfAngAGvPaMrFJgwGtFxz4ukfwyMjJoxIgRlsvo1Br7LRD5nR/XVb4wQHBSWy7c4Z//sVT4b6rashyd8980y8ruWplNe9YfoH2GAFWqbAkqW7s0VUktaywbL25pFx3JYtLO5dl0ZP9RsetcOcMZeVKJE07B1fScbtfqbCpplFG1VfmI3fNyjhyjHX/updKVSgY2C1uta0EPo//11oKJ7D/c1tTv573f+fH3kf0HBCe3rYv0IBA8AQhOwbeBLzX45f8y6a/vt4q8zv+4fUz/ROpyOv5l75Lxp0bs7GJXEbbnXWLKGIM3MsZ++Sk48TT9A8bONyXKFKeS5eIPVv2Y4XRw1xHhyLRU+bzbPNsxsYqXglP0MgR2oMqOVHkp4oD/tbPKgo4eymHUlFQqyhOrpRXRwZ3GrkHlSsQdpNuYhzYaA15vTYMBL/g5JZCfLwwQnJy2QrDp9m8/RJ/2z13+3T09ldjnI46iSwD9r7e2R//rjR8EJ2/8YA0CQRKA4BQkfR/LVh13tr39ZDrl2shthbkodTld6+vrUdot9UUNMj/dRKsnbaOKDZKJnX7ywb8KTn9sORUrXoz6/ac1zTP8PC1+b72IO+W6erTemKqftXyfOGdHouVql6EWV9cWTscXvLmW1vy4naq0KEddH24i0qh/2BHpmp+2U80OFfL4XeIp+VyO6vuBbdmZefMra1MVwzeEemgLTs+1MH4V3U/Lv9hs+nngafupF59kbMlcR3xvWY7b77P8q8206rut5ndgPuzUvFKTFPGrLTs/5VllfPAMM/YjcfrIZrI4OnIghxb8Z43hjHWnybh6WgWq3bkStTCWLrJzeHnwL7gTjO2kWQzsPiKVdmTupVnPrBR+LHjrat4yujAdGPB6a00MeMHPKQEITk5JFb50+zYdpJJli9OcF/8i7s/4B6qLvuyYZ0le4fvm+EZWBND/WtGxj0P/a8/IKgUEJys6iAOBcBOA4BTu9nFcOxYexvXNdQYeb+aMupyOZ9ZwOj5i+XBSxanUS2oZy/A2mXVhf0QrvtlinstA+8GGL6er69Bvo5YLIYdFErkrjUzDn7+NNOKNQSz7M+ItjuWxccZO+vGuRfI05uc5b6VRVUPIkoeu4MQikHQuKvOSnzXaVhC+MuQUfrffR91tR+bJnycZghF/x+iDB/PsT4KPPWv3U8bQP80deaLTVjulvHB+Kp2d5hgzoD44PXe3nuh2guAUTS/y3O8X6rDnx98eA97Ie8DtGfi5JRaZXr4wYIZTJJdQnSmba8h6nXp/I2p2qf0OuDI9PgsnAQhO3toV/Yc3frL/wJI6bxxhDQJBEIDgFAT1fCqTf41c/H7uLCRVUOLi1OV0vI1w/3dO+GKwE5zYnkURdjLOu8bU6VqJDu/Poe/+Pl+INi2uqi2cXrMIwsvS3Ao0nD/7auCp+ywCsVDV9R9NqLyxy0z2loNCpPntieWcTNSBHZ3LQ1dwYnv+Lp2MgTTPxGKnp3PG/EWbZufuqtP5wcbU9KJcR95uvw8v0eMlbbxDHe+Sww7BmVFxY1kcL5Fb9O56WvH1ZiH4sSiUVLKYmCF2LIdowg0nHLR2fqgx1e1eRTBZ98sO8Wsz11sV8lTBieP4YOGpkuE4tU63yq58cuVah/svBrze2gcD3nDyYwfhPXv2pPT0dO0KFgTBU74wQHDSbub8N4wSnNixd9tb60fM+s3/SqCEMBJA/+utVdD/euMn+w8ITt44whoEgiAQuOCUnZ1tDG8Sd6Sk5M7qKYwDXl4Gx9sK88HL5XjZnDzUGUunDjV+rRx44tdKO8GJhZl+/2mTZwvheD6c3Ao0XMcdS/fR+GvmieqyY1J2UKoePw1ZbCwxyxLXVceluoITz3C64LMOEbvUHD2YQ19fOVdsy6zOOtL5Plx36cNJXb7I16UPJ56t1O+NNnxJHH9N3Ea/PLxUhHuPbkm1DcFIPZaO20iznl0pLg34qL1YAhktOHF+nG9hPeSA13huFNavmK/fKzMzk1JTTziwz9fCCmHm+cGvX79+NHXqVOrRowdNmDChEFI78ZUKc/974lsW/BA77T5i/KiUXK2kKz+PBf+b4xtYEUD/a0XHPi4/+g/7UgtPCtl/QHAqPG2Kb1J0CEjBKaj3t2IQnPy92b66dI6YVVPBmB10/rj2ZubqcrqB3xnbARuzkeRhJzid9niziC2NpZ2fghPPbNqxZK9wRl6zXUXxKcs5YsRNeeBP2jhzp+HDKXJ2lq7glHazIcjdcEKQk2Ut/cQQdQwfSHzIbZMTJThlDF0itniOtxsQz5oad/ZMUTfpp0sVnFIvrmX64BKJCuEfDHi9NSoGvOHiV5TEJiYvXxgK4w8+3u4sWINA+Amg//XWRuh/vfGT/QcEJ28cYQ0CQRAIXHA6ZhzxvrjfSwS4HDkls7AOeHlJHS+t4+O899sJR9Xqcrq6p1ehXs+2EPHyj53gdMGnHWJuKeyn4CTrcnjvUdo4a6fwYbRv40Has+6AcGAu/S35JTj1fNpwqN0zr0PtbYv2CCfcXB/pLypRgtMXF/8uZlfxjLIGfatJJBGfC99aJ855mR4vuVMFp26PNqVG/WtEpC9sJ3LAa/HYcPyV/X6+hD0/BoMp/Y5vj5gJ/eTHS+h4ZlOvXr1o8uTJMctzc7Eg3H+Fvf91015ICwIFjQD6X28t5mf/Efbnvd/1Y/Ky/4Dg5O0+hDUIBEFACk5Bvb8Vg+Dkb7Pz7jKfXzBbZCpn8ajL6XqMak71e0cKLXaCU/SMKFljXcHpl//LpL++35rHaXimMbto7r9Xx3XmzeX6JTid9VprqmH4ioo+WOD68pLfxeUzX2wlHH3bCU7xvo+bJXUsCr7fbVp0deKeNzi7Op32z9QIwanHk0bbnhHZtnEzKKARGPB6azgMeMPBLyMjg9hvEy+jmzJlirdKHbf2e4Dvd35cTfnCUFh/8PGlIZEJCISUAPpfbw2D/tcbP9l/QHDyxhHWIBAEAQhOQVDP5zIn3bFQOL/mmTIXGn6K5HI69lt0ibGcrkSZpIgaJFpwGn/NfMNn094IwWnl+C00bcQyUS/2n8TCSfU2FYRj70qNUmjRO+to4dvrfBOcuo9IpYb9qkdw4JPtxgyn767/Q1wf8KGxk59Rtp3gFOv7cAZuBCdSHLVWNhx+t7i6tqhDvD/l6yQbfMpDcIoHyMF1v1+ow54fI8GA18GNYZHET37ff/+9EJySk5MtSnQeVRDuP/nCAMHJebsiJQiEhQAEJ28t4Wf/Efbnvd/1Y/Ky/4Dg5O0+hDUIBEEAglMQ1PO5zJXfGeJNeq54w8vCJt2+UMwaksuwoovPL8EpejaSKFcRVmp3rUy9n28pLktfTCk1StG577Wj0hVLRFSTnWmzU+3oPKVd88tPoo73NoqwyXOilM3+m3gGWPSx4pstNP2xXHZXTO5CJQyRTgpO0WULWyVP9ftwnCvByUgvhStmcPFXpxq9qygh4s/OFdmUc+QYla1ZikpXKgnBKYKOuxO/B0Rhz4/pYMDr7h6JTg1+0UTcncsXBghO7rghNQiEgQAEJ2+tgP7DGz/Zf0Bw8sYR1iAQBAEITkFQz+cyD+87Sh/1/k2UwrNlspbvE+GzXjWWkbXNu4zMb8FpwRtraf5ra0SZg6Z1i9hOeeOMnfTjXYtEnCrQyOV59XpVpZ5PNRfx8s+R/Ufp0/6zhGgWLfroCk7sVL3/u23zzPaacMMftG3hnojd8HS+D9fdreD028jltPyrzeJrS/9bkgF/qrsQyqWRqg8nLKlTadmHwy4Q+V0/JoIBr/19YZUC/Kzo2MfJFwYITvasdFMcOZBDvDw93pFUopjwyVihQQqVq13G2IUuXkr313lJ+spvt9Du1fupRHISdX2kqciEfTBmfrqJdhk/mBzae4Q6P9jY2AGvlPsCYBEoAQhO3vCj//DGT/YfEJy8cYQ1CARBAIJTENQTUOav6Zm06rutZkk8a+aiL0+NObjUFZw+GzCLsrccEsvfWOyQx/pfs2jyvYvFadvbTqZW19Q1wsdo++K99OPgRaaPJlVwksIRG130ZUcqW6u0sOcB7C+PLBW2fKFiwxQa8L92Io7/SDu3M5zYtuE51anjPY3EbCr2ocT+o9jpOh/sWJ0drPOh833Yzq3gxIP0ry6bw6ZUp3tlw0dTMypZrrg45zjeqW/XqmxSl0ZCcBJ4tP74LeiEPT+GhAGv1q1iGunyS09PJ/6nHmG/X/yuH393+cIAwUm9E/wN7996iD49b5ajTLkP7m74AixdIXJGsSPjqEQ8FuAxgTx4aTzv9MrHt4PmmT988Xm8jUg4Dkd4CUBw8tY2uv1HrFL9fj6HPT9mIPsPCE6x7ghcA4FwE4DgFO720a6dOpOIM2lzYz1qc1PeJWQcpys4qTNyOJ9ODzSm1Itr0YGsw/SlseOa3FmOBRI+5Lk4Mf6ogpO6lI3jeSZWtjFw3rv+gEiuztTiOP7ltHzdMp4EJ5Gx8Yd9Xcly+BoLTT2fbmGKczrfh/NxKzixjTqbirlVbVmO+BdrnnUlD+nMnM8hOEkq7j/DPsDyu35MCANe9/eJaqHDj52Ds5Nw3omOd6STh9/tG/b8+HvLFwYITvIu8P9TFZx4Jm+Fk0/4COPZwrvX7Bc/FMmSOc35H7ePuYRbpnHy+dcPW40fhzJF0pM6VaL6Z1YlXsavbmTCZfEPPc0vr00ly+aOC5zkjTThIADByVs76PQf8UoM+/Pe7/oxB9l/QHCKd1fgOgiElwAEp/C2jaea8Yydj/vMMEUeHlCqA0818zkv/iVm9qjL1TbP2UUTb1sokvGvlPxrZfSxzXCwzQNMKda0H9yAWl5dRyTbuTybJt25UIhP0o4FlLRb6tORgzk07+XVYhbPGf/K9eHETrN5Gd6CN9fK5OKTy+14XyPiAeyUYUtoy7zd4nr/t9OoSvNyoo5c1xZX1qYOQxpG2OY5UfwtnfFcC1r07nozP5m22WWGLygjn2LFIx0ouf4+RoZScIoW++aNXU0L31pH1Y1d8s42dsuLPlZN2Eozn1phtp2M59ld7e88meqcljvziq/nHD5GH5yWu7tdz6ebU72e2KVO8rL79HtAFPb8mAcGvHZ3hXW8W35SbGKhiQUn9Qj7/eJ3/fi7yxcGCE7qneBvWBWc5I9A0SXwjyg//2Mpcd/JR/932hr+EctGJ3N1Lvs17ucvN/wfykP98ev8j4xxSIMTAphMg8+CQQCCk7d2ctt/WJXm9/M57PkxC9l/QHCyujMQBwLhJADBKZztUmBqxcIWL/dKKpUklsGxfwj1yN58kHb9tZ9KGUvDKhiCiZztpKZRw5x+R+Y+Onooh6q2KCd8TKjxWcsMf1RGEZWMvKJFITWd0/DBXUcM0WmXsayuJFVJLSuchFvZuv0+VnlZxfGspl0r9tHOVYYvjNJJYhYW84jlSNwqn8IWhwGvtxbFgDdx/KzEJq5F2Af4ftePv7N8YYDgxDTy53AiOHHJ3Jd+e/U8UQle+n7K33npu/4x1/gRaZGxk2z0svcN07Lop3tyl9jH+/FKlsrjiaPGjyjRO+nK+Hifh/YcoaSSSa7t4uWH67EJoP+NzcXpVfS/TknFTif7DwhOsfngKgiEmQAEpzC3DuoGAiAQQQAD3ggcrk8w4HWNLMLAKT87sYkz9VvQCXt+/J3lCwMEJ6aRP4dTwYmXrH923NcT79jKO7fywQIR+zPkH3T6/ae1+DFJramMTypVjM75bxptX7KXeJY0+xfkmVN81Gxf0dhFtQQd2n1ELN/jZXx88BLxEmWK02mPpZ5wGm7MPM78fBPxzN6t83NnMLNoVevUitRyUB3Tn6PIwPjDu8ZuX7iXWgyqLWZtT39suSi7+RW1DZ+MNrOcZSb41CKA/lcLm2nktP8wDSwCYX/e+10/RiH7DwhOFjcGokAgpAQgOIW0YVAtEACBvAQw4M3LxM0VDHjd0Mqb1ik/9tk0YsSIPMvo1Bz9HpCHPT/+7vKFAYKTeif4G3YqOC01drKb9cxKUTgvMZdLtVn4+fXRXF9MV0zpmmfWEG9GwpuS8MHtuGG6MYNpSO4MJnHx+J8ylUrSgZ25ApR6ncPSafgRY/e6X0cso7UZ26OTiHOeEd3npVZUtVV5M15uFNLonBq08rst5nUITiaKfAug//WG1mn/4aSUsD/v/a4fM5H9BwQnJ3cI0oBAuAhAcApXe6A2IAACFgQw4LWA4yAKA14HkCySgJ8FHAdR8oUBgpMDWJpJVMGJd4g9uU81M6ecw8ZSbWOJ+/bFeyjz003iOs9G6vPvU8xNMtwKTrz8m5eas0/EFV9vFkvqej7VnHh5fc6RY7Tp913CJyEXxr6ieLkcb/jBM6jkMjyOYz+MqQNPouLGEvJtC/bQ9MeWmX4ML5vUmUqVz91JTwpObMNH3R5VqFaHilTtlPLiX+5V/M0PAuh/vVFF/+GNn+w/IDh54whrEAiCAASnIKijTBAAAS0CGPBqYTONMOA1UWgFwE8Lm2kkXxggOJlIfA+ogpNd5ik1Sokd6kokn9gxzq3gJMuQ4hELP/3eaCMviyV60oeTOmOKNxv5wtjNlg8WxtrdcbJpw4EdS/fR+GtyfUx1eeHssTAAAD44SURBVKgJNbmwpohXBacOdzekFlfVjrDDSf4RQP/rjS36D2/8ZP8BwckbR1iDQBAEIDgFQR1lggAIaBHAgFcLm2mEAa+JQisAflrYTCP5wgDByUTieyBacIreqOOwsYxNPdhfUo8nmlHFRinicqIEp6UfG0v6nstd0nf5T12oZNkTopes37eD5lHW8n1il9ozx7QSl6XgVKF+Mg34qJ0xMytyoxJpi0//CaD/9cYU/Yc3frL/gODkjSOsQSAIAhCcgqCOMkEABLQIYMCrhc00woDXRKEViMWPHYT37NmT0tPTXeXpt4+LsOfHcOQLAwQnV7eKq8Sq4NTpgcaUenGtCHsWnPasPUCrDP9HSz7cIOIqNylL57yVZuz0Vkw473bjw0lm7naG08ynVxrL+jYK83g75P01cRvxTCieiXXx16eKtFJwanxeDer6SFNZPD4TQAD9rzfIsfoP3RzD/rz3u37MSfYfEJx07xrYgUBwBCA4BcceJYMACLgkgAGvS2BRyTHgjQLi8jSan5Pd6OIV4feAPOz5MQf5wgDBKd5d4f26neCkljBnzF+0+L314lK/N9tQNcM5t90Mp+VfbBY7xbGR2o5uBacfBy+ijTN3qtWJG+ZZWpdP7iLipeDU/PKTqOO9jeLaIMJ/Auh/vTGN7j+85Bb2573f9WNWsv+A4OTlzoEtCARDAIJTMNxRKgiAgAYBDHg1oCkmGPAqMDSCKj8vYhMX7feAPOz58XeWLwyqUMHXcfhHwI3gxIIPCz98dE9PpYbnVLcVnOb+ezUtemedsFHb0a3glDF0Ca2bukPk0y3deqZSiTLFqf4ZVUVaCE4CQyB/0P96w672H95yKtr9BwQnr3cP7EEg8QQgOCWeOUoEARDQJIABrya442YY8PrDz6vYxLUIu0Dkd/34O0NwYgr5e7gRnDI/2Ugzn8n1o8Q7y9XrVTVCcLr8R8O3UrlI30qqUORFcFKFqws/60Dl6pTJA2bfpoN0cNcRY4e64lSudm48BKc8mBJ2Af2vN9Tof73xk/0HBCdvHGENAkEQgOAUBHWUCQIgoEUAA14tbKYRBrwmCq0A88vKyiIWnHr16kWTJ0/WyoeN/BZ0wp4ff2f5wqAKFXwdh38EnApOh/cepYm3LzR2g9srCpeiz+bfd4nrfFEus5O147y/umwOScfjaju6neG06rut9Gt6psi60zDD19Qlkb6mjhi+pngXuwNZh6nZpSfRqffnLp+D4CRbI/Gf6H+9MUf/642f7D8gOHnjCGsQCIJA4ILTvHnzjiXyi7dt21YUpw6UElk+ygIBENAnIAe8xnNDPxNYgoBHArNnz6aOHTt6zKXomaP/zf82VwUn9nNU/4xqEYWyWLTrr2zDYfcm4ZCbI1UH3If2HKGP+8wQNnW6V6Yeo5pT8dJJtGfdAZr2z2W0df5uMz91HOVWcDp6KIe+vmKuqAPPbuo9uiVVODlZ5M1i2G+jltPqSdvE+Tn/TaOqLcuJMAQnE3/CA+h/E44cBSoEZP8BwUmBgiAIFBACUnAK6v2t2DHjiMfK719suRypkKsDpXjl4zoIgEC4CMgBr8Vjw3GF/X6+hD0/BoNfWB3fHjETgl9MLI4vov91jEo7oSo4OcmExSaePVQi+cTSue9vXhAhLJWpXFLMNIrOTx1HuRWcOC/VhxSfVzulPJUok0TbF+81Z1G1vr4epd1Sn6PFAcFJkkj8J/pfb8zRf3jjJ/sPCE7eOMIaBIIgIAWnoN7fIDgF0eooEwQKKAEMeL01HAa84OeUgN8CKpcrXxhUocJpfZDOGYH92w7Rp+fOskxcpVk5qtKsLNXuWpnq9851xq0a8CynKcP+pM1zdqmXqemFtQw/T1XopyGLxXW1HeeNXU0L31pH1dMq0NmvtTbtNs4wHJPfleuY/IopXYWgZEYagR1/7qVfHsmk3Wv2q5eJRa6Wf6tDLa6sTcWSiplxE29bKOrF1zsMaWheRyD/CaD/9cYY/a83frL/gODkjSOsQSAIAhCcgqCOMkEABLQIYMCrhc00woDXROE4kJ6eTvyPD/ATGLT/yBcGVajQzgyG+U7g4O4jtHP5PlFOxQYpVKZKyXwp89jRY7R79X7KWpFNOUdyqGyN0lS9dXlKKpWUL+UhUz0C6H/1uEkr9B+ShN6n7D8gOOnxgxUIBEkAglOQ9FE2CICAKwIY8LrClScxBrx5kFhekLvRsXNwdhIOfpa4bCPlCwMEJ1tUSAACoSOA/tdbk6D/8MZP9h8QnLxxhDUIBEEAglMQ1FEmCICAFgEMeLWwmUYY8JoobANSbFJ3owM/W2yWCeQLAwQnS0yIBIFQEkD/661Z0H944yf7DwhO3jjCGgSCIADBKQjqKBMEQECLAAa8WthMIwx4TRSWgVhiExuAnyU220j5wgDByRYVEoBA6Aig//XWJOg/vPGT/QcEJ28cYQ0CQRCA4BQEdZQJAiCgRQADXi1sphEGvCaKuIF4YhMbgF9cbI4i5AsDBCdHuJAIBEJFAP2vt+ZA/+GNn+w/IDh54whrEAiCAASnIKijTBAAAS0CGPBqYTONMOA1UcQNZGRk0IgRI4j9NkUf4BdNxN25fGGA4OSOG1KDQBgIoP/11groP7zxk/0HBCdvHGENAkEQgOAUBHWUCQIgoEUAA14tbKYRBrwmCq0A+GlhM43kCwMEJxMJAiBQYAig//XWVOg/vPGT/QcEJ28cYQ0CQRCA4BQEdZQJAiCgRQADXi1sphEGvCYKrQD4aWEzjeQLAwQnEwkCIFBgCKD/9dZU6D+88ZP9BwQnbxxhDQJBEIDgFAR1lAkCIKBFAANeLWymEQa8JgqtAPhpYTON5AsDBCcTCQIgUGAIoP/11lToP7zxk/0HBCdvHGENAkEQgOAUBHWUCQIgoEUAA14tbKYRBrwmChFgB+E9e/ak9PT0yIg4Z+AXB4zDy/KFAYKTQ2BIBgIhIoD+11tjoP/wxk/2HxCcvHGENQgEQQCCUxDUUSYIgIAWAQx4tbCZRhjwmijIaje6E6kiQ+AXycPtmXxhgODklhzSg0DwBND/emsD9B/e+Mn+A4KTN46wBoEgCEBwCoI6ygQBENAigAGvFjbTCAPeXBQ6YhNbgp95K2kF5AsDBCctfDACgUAJoP/1hh/9hzd+sv+A4OSNI6xBIAgCEJyCoI4yQQAEtAhgwKuFzTTCgJe0ZjZJgOAnSeh9yhcGCE56/GAFAkESQP/rjT76D2/8ZP8BwckbR1iDQBAEIDgFQR1lggAIaBHAgFcLm2lU1Ae8GRkZQnDq1asXTZ482eTiNFDU+TnlFC+dfGGA4BSPEK6DQHgJoP/11jboP7zxk/0HBCfnHA8fOEA///vfdOzYMcdG1Ro1orSLL3acvqgknPPRR5S1di3V69CBUg3/nzjcEYDg5I4XUoMACARIAANeb/Ax4CVi0YkFJ50D/HSonbCRLwwQnE4wQQgECgoB9L/eWgr9hzd+sv+A4OSc477t2+mhmjWcGxgpW/brR7d+860rG5n4UHY2Zf70kzhtfNpplFypkowq8J8vGOPGFb/8TD0HD6ZLRj9f4L9Por8ABKdEE0d5IAAC2gQw4NVGJwwx4AU/pwT2798vkiYnJzs1sU0nXxggONmiQgIQCB0B9L/emgT9rzd+sv+A4OScY7TgVKluXVvjZmeeSYPeeNM2XawEWzKX0uMtW4qo+6ZNo5M7dY6VrEBeg+DkrdkCF5yys7Odz/Pz9l2FdUpKivjEgNcHmMgCBBJMQA54jedGgksuHMVlZmZSampq4fgyAXwL8PMGHf2vN36wBoEgCaD/9UYf/Yc3frL/gODknKMqOA184UXqcccdzo01UkJw0oBWREyk4BTU+1sxCE5F5E7D1wQBHwhgwOsNYlEb8I4cOZKGDx/uDZpiXdT4KV/dl6B8YcAPPr7gRCYgkFAC6H+94Ub/4Y2f7D8gODnnGHbB6cDu3VSmQgXnX8hIycv2jhw8SCmVK8e1y87KouSKFalYUlLcNDIi5+hR2rtlC5U0JqSwTbwDM5zikXF2PXDByXBkFneGE6b0O2tEpAKBokJADngtHhuOUfj9fAl7fgymKE3p79mzJ02dOlU4B9f12RR9MxUlfn7fz8xSLomA4BR9Z+EcBMJPAP2vtzZC/+GNn+w/IDg55+hFcJrw+GM079PPRGFnDBlCna+9NqLgX197jaa9/jqVNJbd97jzTprz8Ue0/o8/aPvKlSJdVcP5eOmy5ejad9+lk045xbRdNmUK/fjM07Ti11/p4J49VL5GDWp+1lnU7cYbqfFpp5vpODDtP/+hqYbT8yY9Tqe+DzxIH91+Gy385huq1aIl/WPBApo8ejTNeOcdatX/HOp973301UMP0pIffqCd69ZR6fLlqWHnzjTgiSeoXvsOEfnyyaLx4+mn556jZVMyIuJOvfpq4u9bt227iOsQnCJwuD6RglNQ72/FIDi5bjMYgECRJYABr7emLyoD3jOMHUTYOXiPHj1oijG48esoKvyYFwQnv+4a5AMChYMA+l9v7Yj+wxs/CE7u+XkRnHatX0+Pn9JKiEJc8ohVf1HlevVEJbYuX06PNW8mwjUMNw0P/D6HnkhrY4pNIuL4n3sNYalB5y7i7Htj1vm3j/6fGh0RvvK116nr9deb11j0Gp+eTo26dacDhji1YcEfIk4KTp/ffx9Nfv554jocPXIkZvksPHEdTmrZysz3z4kT6eVz+pnnsQL3z5hB9Tt0NKMgOJkotAIQnLSwwQgEQCAIAhjweqNeFAa8qtg0YcIE8tPpdVHgJ++w/BCckozp7fzr1qDp3Y2p7rIkfIIACISdwLEcove7/kr8f/iosQTF6+H38yXs+TEv9B/e7hoITu75qYLTWQ89ZMxS+rtlJsVLlKAqDRqYaeZ89BG9Negqcd6qf3+65auviZegjTEci/OObXwMmz1bzAbasXo1bVy0iF49f4C4/vf3P6C67dpSlZMbUInSpWmxMR575bxzRVzzPn1owKhRVLluPdq4eDF9+cADtGb2LBF35w8TKbV3bxGWgpM4Mf7Ua9ee0i6+2Jjh1ILaXHghScFJxvPspL5GXknFi9Nvb71Fk55+WkR1u+kmumLsKyJ8aN8+Gl63jhDSWMi68vXXqEbTVMpau5aWTppEH95ys0jHwhcLYPKA4CRJ6H1CcNLjBisQAIEACEBw8ga9sA94041fwkaMGEG8hG68MV2aDwhOeveM3y9wXIsKhq+GPcavlJdN7EylKpTQqxisQAAEEk7g0O4j9HHfGVTR8HGyc+dOz+X7/XwJe34MrLD3v+pN4Xd7cN4QnFTCzsKq4OTMgih6yeJ/r7yC5o4bJ8z/9vY7dGDXLhp312Bxfv6oJ6nP0KFm1vGchh89fJhGGTOgthgb1/BspyGGuwMWheTBPpeeNMQpXgrX8cor6Zp33xNRquDUbuBAuuadd6l4qVLSLEJw6m+M//o9/IgZx4Fnu3QRQhYLVUNn5Qpa6+bNpac75s5cuv+336h+x1MjbFgUY3GMr3O8PCA4SRJ6nxCc9LjBCgRAIAACEJy8QS8KA14Wnfhffgx4iwI/eYflB78mTZrQihUr6Nx321Ll1LKyKHyCAAiEnEBW5j769m/zqFWrVrRw4ULPtfX7+RL2/BgY+g9vtw0EJ/f8/BCc9m3bRk+0aU17DMfa6sH+lgYbM4KSSpQwL8cTnFSR5/bvJlDzvn1NGxn4fOj9wicTn4/O3i+EJVVw+udfq6lS3boyufhUZzg9u2s3lSobOa745O67hA8o9hM1csNGYcN+o9b8/jsrmIZvqB6mkMmRB/fupTcGXkJ/Gt9LFak4DoITU9A/IDjps4MlCIBAgglAcPIGHANe8HNKwO8XOC63rzHInGQM5Lo92pQa9a/htCpIBwIgEDCBleO30LQRy2igMctg3PHZDl6q5PfzJez5MSv0v17uGMxw0qGnCk48A6jr9TdYZsPiEYsz0Qc72JZL5WTco8uWU9WGDeWp+IwnOM395BP67xWXizS8VK18zZoRdnyyxpiBxEIPHyNWrqLK9euTFJxUwUgkOP5HCk7soPzRzGVqlAhPfOop+nr4P8R3koKTTLTfmKmV+dNPtMlY0rdj9V+0bcVKWjPnd9NnFQQnScqfTwhO/nBELiAAAgkgAMHJG2QMeMHPKQG/X+C43HvuuYeeNxx8Nr2wJnV+qInTqiAdCIBAwARmjFpOy77YTE8bPlGGKktodKvl9/Ml7PkxJ/S/undLrh1mOLnnpwpOA194kXrccYf7TAwL9r34z2applPuaP9GMtN4gtPEJ5+krx8eLpPZfg43fEHVbNbcFJzYKfjDi5fksZOCEy/TY8fg0Uc8wennsWPpq388ZIpL0XZ8DsEpFhX9axCc9NnBEgRAIMEEIDh5A44BL/g5JeD3CxyX++GHH9JVV11FKTVK0cVfR/pNcFovpAMBEEg8gc8GzKLsLYdotuEguEOHvFuMu62R38+XsOfHfND/ur1LItNDcIrk4eTML8Fp+ptv0oc33xRRJO9MVyctLeJaPMFp6ksv0SdD7hZpB4x8girVqRNhF33CDsFLlyvnWHBi59/sFyr6iCU4zXz3XXrvur+LpDxzKu2ii6ihYV+tUUOqZexkN+mZp4kFMghO0TS9nUNw8sYP1iAAAgkkAMHJG+zCNODl3eh69uwp/DXFouL3CwiXUZj4xWKmXssvfoMGDaJFxq+XvZ5pQXV7VFGLRBgEQCCEBNZN3UEZQ5dQ48aNabmxHbofh9/Pl7Dnx8zQf3i7cyA4uefnh+C0feVKGpHaVBTOPpTYsTcftVq0FI64S5YpI875TzzBSd2h7m9vvU28m1z0kb1jB+1Ys9rYCbM41W7TRkTLJXV2M5zcCE7SFxN/FxbNylatGlEV3pWPd+eD4BSBxfMJBCfPCJEBCIBAoghAcPJGurAMeFlsysjIELvRTZ48OSYUv19AuJDCwi8msKiL+cXvhx9+oGHDhlHtLpWp9wsto0rFKQiAQNgI/HT3YtrwWxYNGTKERo8e7Uv1/H6+hD0/hob+w9utA8HJPT+vglPO0aM05swzacUvP4vCH5wzlxZ++y1988jD4rzvAw8Qz1iSRzzBafuqVTSiae4yet5t7rr/fSRNzM/XLryAFn7zDaniUn4ITsNrnyQcoPMsqhs/+dQsnwOH9u2j4XXriKV2EJwi0Hg+geDkGSEyAAEQSBQBCE7eSBeGAa8TsYkp+f0CwnkWBn78PZwc+cWPd6qrY0yn32U47MQsJyctgTQgEBwBObupYsWKNMHYKryLsc24H4ffz5ew58fM0H94u3MgOLnnpwpOXa67jtIuvMg2k5LJyZTau7dI99O//kVfDBsqwv0eeYT6P5pORw8fpn9160Zr584R1+/5+Wdq2LWbCGetWUOPGkvT+Lj0xTF0+u23izD/ef+G62nG22+L85u/+JJOOe88EWZRi8v56qEHxflFzz5HZxjiNh/5ITjJGU6cf7rhKLzKySdz0HAavoLeMmZgr5k9S5zzDK5/LFggwvxH2vUcPJguGf28eR0BZwQgODnjhFQgAAIhIADByVsjFPQBr1OxiSn5/QLCeRZ0fvwdnB75ye+ZZ54Rs5wqNkyh8z5oR8WSnNYK6UAABBJF4FgO0TdXzaVdq7KFs/CzzjqL0qJ8tujWxe/nS9jzY07oP3Tvllw7CE7u+amCk1NruSPcxoULaVTbXB9NPOvoAWN2k1w+t+GPP+jJ9u1ElrxDHM98Yp9LfPxfg5PNZXely5enu41Z6HXbtqPdmzbRYy2am466WdCpcnJ9WjtnjphxxLaNTzudBhs71fFueXzkh+DEoheLX/LgMnduWG86RK/dug1tWPCHiOa4QW+8QdWM5cQQnCQxvU8ITnrcYAUCIBAAAQhO3qAX9AEvC058xFtGp9Lx+wWE8y7o/FQ+duH85tfN+IV0+vTp2LHOriEQDwIBEZA703Xt2pWmTZuG55/HdkD/4Q0gBCf3/LKzsujB6tVcGUrB6VljNqOc7TNkyhRq1P20iHykGMQX+xg7V54/6kkRrzoI5wu8exzvIscHi07sfHzR+PHiXP5hYeqchx+h0267jUqlpMjLhuD0OI1Pf1T4i1JnG8kEPPuKZ0fF8+E0yfhxi2dOye/Edrzj3ncj0kXeMh/+5DQ8c6lZnz70n0suMZcRDp01S/hz4qWFy6ZkiNlXPAsLhzsCEJzc8UJqEACBAAlAcPIGHwNe8HNKIL8Fp99//506depEOTk5lHZLfWp9fT2nVUM6EACBfCaw4M21NP/VNYYD3ySaOXOm2JkO/Yc36ODnjR8EJ2/8Emm931gyv8uYNVS6XHli59yy7WQddqxebcwiWkB7t26lCiedZAhSnSmlcmUZnZDPrLVraf38+XT4wAGqb+y8WbVh7lJAWTjHcb1rtWxpzriScfh0TwCCk3tmsAABEAiIAAQnb+Ax4AU/pwTyW3Dierz//vt09fHdaiA6OW0ZpAOB/CUgxSYu5b333iPeWZIP9B8Cg/Yf8NNGJwylaPHikaPeMoI1CIBAwglAcEo4chQIAiCgSwCCky65XDsMeMHPKYFECE5cl1deeYVuM6bR89H0wprU6YEm8OkkaOAPCCSWAPtsmvnUclr2xWZR8NixY+nWW281K4H+w0ShFQA/LWymEQQnEwUCIFDgCEBwKnBNhgqDQNElAMHJW9sXpAFveno68T/dI1GCSVjq5/f39Ts/5hTv/uOZTtdcc41YXseOxNvdfjLV7VFFFy3sQAAEXBLg3ejmvrxaOAjnZXTvvPOOObNJZhXv/6+Md/Pp9/Ml7PkxG/Bzc4fkTQvBKS8TXAGBgkIAglNBaSnUEwRAgCA4ebsJCsqAV+5Gx87Be/XqpfWl/X4B4UoUFH5awKKMEs2PfToNNrYbZkfifNTuUplSL6kF4SmqXXAKAn4SYKEp89NNtOG3LJEtOwgfM2aM8NkUXQ6ef9FE3J2Dnzte0akhOEUTwTkIFBwCgQtO2dnZxxKJK+W49/urZ3RPZLEoCwRAwAcCUnAynhs+5Fb0ssjMzKRUY3vbMB/9+vWjqVOnUo8ePWjChAmhqmpB4BcqYFGVccJv9OjRYgv2XYbTUT5SapSiOt0qU/W0ClS5SVkqW6s0lSxXAsvuotjiFASsCPByucN7j9C+TQcpa/k+2jp/N62flkXZWw4Js4oVK9KwYcPonnvuiZuNk/+/cY0RQeDn7SaQ72/w4eSNI6xBIAgCUnAK6v2tWFCCUxCwUSYIgED+EYj3EJODlOiSi2L6WAPeMPGRYlN0W/F5UWyvWBzC1F5cPzf1uffee4XPpljfS23fffv20WuvvSYcFi9ZsiRWclwDARDIRwLq/0dZDPcfbdu2lacRn7HScwI3z4fCnj7s/W9B4Q/BiVsKBwgULAKBC07HjCMesvyY0i+nZMYrE9dBAAQKJoF4j5J4/+flADk5OTniC8dL7zZ/r+nl8y/egF0n/1hT+sPyfR9++GEaOXJkRFuoJ26/b1Fr37B/X7lMUm1TNey2fVVbhEEABKwJsF+m8uXLU11ji/IWLVpQp06dqHfv3tSxY8eYhrH+P3L/EU9wipWeM47Xv4T9eVXU+l+/v29+ti8Ep5j/ZXERBEJNQApO8foKN5WXz6vo9zerPIoZBQciOOGBZdUsiAOBcBII+oFlRUXnAZjI/LisWIKTVR2s4vLj+7Lg9Pjjj1sV6zjO7/pxwWHnx3V00wFz+niHn/yk2MQvt7NmzYpXpKvrftaPCw57flxH3H9MQf8AP312bAl+4OeUgN/PUy5Xipd4f3PaCkgHAuEhEPT7GwSn8NwLqAkIhJ5A0A8sK0B+D7D8zo/rjhcGqxa0jwM/e0axUvBug1OmTKHnn3+e0tLSYiVxfc3v/x9hz48B4f5zfZtEGIBfBA7XJ+DnGlmEAfhF4HB9AsHJNTIYgEBoCAT9/gbBKTS3AioCAuEnEPQDy4oQXlit6NjHgZ89I6sU4GdFxz4O/OwZWaUAPys69nHgZ8/IKgX4WdGxjysI/CA42bcjUoBAWAkE/f4GwSmsdwbqBQIhJBD0A8sKSUEYsOEXVqsWtI8DP3tGVinAz4qOfRz42TOySgF+VnTs48DPnpFVCvCzomMfB8HJnlGsFEt//JHWzZ1rRvW44w4qGeW71Iw8Hlg1fRqt/HWaebnbTTdRsrGTJQ4Q0CUQ9PsbBCfdloMdCBRBAkE/sKyQQ3CyohMZxz59evbsSbzUSh7gJ0nofYKfHjdpBX6ShN4n+Olxk1bgJ0nofYKfHjdpVRD4QXCSreXuc9zgO+nnsWNNo5s+/4JaDxhgnscKvNzvbPpz0iQz6pE/l1L1Jk3McwRAwC2BoN/fIDi5bTGkB4EiTCDoB5YV+oIwYAvDL6zSgXSvXr1o8uTJJlLwM1FoBcLCj9v30UcfJW7f6CMM9190neR5WPjJ+sT6BL9YVJxfAz/nrGKlBL9YVJxfAz/nrGKlhOAUi4r9tWjBqeOVV9I1774X13D3pk30cN06EfEQnCJw4ESDQNDvbxCcNBoNJiBQVAkE/cCy4o4XVis6uXHxxCaOBT97flYpwsDPqn257njhsmpB+zjws2dklQL8rOjYx4GfPSOrFOBnRcc+DoKTPaNYKaIFJ07z7O49VColJVZymvb66/S/226NiIPgFIEDJxoEgn5/g+Ck0WgwAYGiSiDoB5YV9zC88FvVj+OCHPDaiRHgZ9d61vFB87Nr36DvP2t6EDzt+NjFB33/2dWP44N8/tnVD/zsCFnHg581H7vYgsAPgpNdK8aOl4JT6fLl6eCePSLRDR+Po7SLL45pMObMM2nZlAxS09sJTgd276YyFSrEzM/q4v5du+L6hsrOyqKUypWtzM24o4cP085166hctWqi3maETSDnyBHicsoadvL+sjFBtCaBoN/fIDhpNhzMQKAoEgj6gWXFvCAM2IJ84WJBgg91GZ3KE/xUGu7DQfJzIjbxNwry/rMjGiQ/u7rJePCTJPQ+wU+Pm7QCP0lC7xP89LhJKykIvHjkqLyETwcEpOBUIzWVKtWpQ5mGK4N2l15K1334vzzWuzZsoEfq1xPX2bn41H//W4RjCU7LpkyhH595mlb8+qsQssrXqEHNzzqLut14IzU+7fSIvCePHk0z3nmHGnXrSn2GDqMpL42huZ98IkSiBp27UNpFF1Gvu+8W4s8Xw4bSnz/8QHu2bBHiUav+/emyl/4dU3xaNH48fffPf9Ka2bPM8qo2akS9h9xD3W+5hZKKFzevr53zO71/w41UvEQJuueXX+jbR/+Pfnz2WRE/YOQT9Pv/cnnc8uWXVLl+fdNOBiY8/hjN+/QzYX+v8Z2Llyolo/DpgEDQ728QnBw0EpKAAAjkEgj6gWXVDnhhtaJjHwd+9oysUgTFLyMjg1hwivbJFauueOGKRcX5NfBzzipWSvCLRcX5NfBzzipWSvCLRcX5NQhOzlmpKaXgxELMWQ8+RB/efJOIfiZrZ57ZQL+88gp9fOcd4vrf/vsW/WfgJSJttOD0/ciRQrBRy1HDV772OnW9/nrz0uf330eTn3+eWJRioYZnI0Ufp159Na2cNo22r1wZHUX1O55KQwyBq0Tp0mbc1w8Pp4lPPmmeRwdY9Lp9wgQqWaaMiFpmjFXG9DlThE+79Vbi7yqPm7/4kl678AJxOvCFF4nFNvXgmVAPVK8mhLVTzjuPOD0OdwSCfn+D4OSuvZAaBIo0gaAfWFbwg3rht6pTdBwGvNFE3J2DX2xevNuguuNg7FSY4RSPi9PruP+ckoqdDvxic3F6FfyckoqdDvxic3F6FYKTU1KR6aTgVKluXRo2azb946RaIsHfP/iQ2l92WUTiF4zNPlb88jOdZswOanlOf1OEUQWnxYaI88p55wq75n360IBRo6hy3Xq0cfFi+vKBB8zZRnf+MJFSe/cW6aTgJAs777HHqe0lF9O+7dvpnWuvjRCZOl1zDfUcPJgOZ2fTj889Rwu++kqYDZ05k+q17yDCmT/9RC+d1VeEuQ4X/etfVDO1GW1dvoymjBlDv7z6qojrnz6C+j38sAirghNfYPGriyGKVWvYiDpedRU91qK5EMIadetOQ6ZOFTbyz3Lj/MXeubP0r/vfR9Ru4EAZhU+HBIJ+f4Pg5LChkAwEQIAo6AeWVRtAcLKiYx8HfvaMrFKAnxUd+zjws2dklQL8rOjYx4GfPSOrFOBnRcc+riDwg+Bk346xUqiC0z//Wi3EIhaN2lx4Id34yaemCc86+r8GJ4vzO77/gQ7v359HcGJfSaPS2tCWzEzipXAszKjL1tgf0pPt2grhRt0NTxWcLnz6Gep9771muXJWFV/g5XO3fPW1Gbf5zyU08pRTxPmgN96kzoY4dSwnh57t3JnWzp1DtVq0JBaiSiYnmzYc/9ZVV4ole3zxiY2bqFz16qQKTjzb696ff6HyNWuaduNHpNOExx4T54+tXkMVjeWH8vhkyN009aWXxKmVw3WZHp95CQT9/gbBKW+b4AoIgEAcAkE/sOJUS1wuCAO2RP3C6nTGi8oT/FQa7sPg556ZagF+Kg33YfBzz0y1AD+Vhvsw+LlnploUBH4QnNQWcx6OFpxmvfcevfv3a0UGT23bTsmVKonwzy+/TOPuGiyW0z21dRuxKCWXmckZTuvmzaWnO3YU6W//bgI175s7y0itzedD7yf22cTH6Oz9YgmdKjg9t2dvhEDEPqVe6ttHpGcBjIUw9Rhe+yThz6nvgw/SgMdHUtaaNfRoo4YiyRWvvCp8RqnpOTz/88/pjUtzZyHdbeTf+PQeEYLT39//gNpffnmE2aYli+mJ1q3FtUvHvESn33abCPNyOvZrxT6lulx3HV31+n8i7HDijEDQ728QnJy1E1KBAAgYBIJ+YFk1QkEYsCVCcJIOpNk5OPv1cXqAn1NSsdMlih/7bHLTrmptE3H/qeW5CSeKn5s6RacFv2gi7s7Bzx2v6NTgF03E3Tn4ueMVnRqCUzQRZ+fRghPPQnrQ8EfEx9/efodOHTRIhJ/v0cPwofSr8F/EfowWfvNNHsGJHX3/94pcoYZ9NKkzhEQmxp81s2bRn5MmidMRK1cJB9xScOJlfTzLSj3Y4fezXbqIS+qyOZmGZ13x7Ks+w4bR+U+MInV52yNL/qTqTZvKpObn1uXL6bHmzcS59CelznD6v6WZVK1xYzO9DDxz6qli5hT7f7rbGOvwwUsMeakhH+oyQXEBfxwTCPr9DYKT46ZCQhAAgaAfWFYtgBdWEs6jpSARbze6eAzBLx4ZZ9cTwU9XTJTfAC9ckoTeJ/jpcZNW4CdJ6H2Cnx43aQV+koTeJwQnPW7RghPn8vrFFwnfSHIJmzpraPCPP1HTnj1jCk7spJuddTs9hi9aRDWbNScpOPEyPN7hTT1UwemhP/6gk1q2UqPFMj9VcJrx9tvGbnPXizTP7NxFpcuVi0jPJ4cM/0/3VygvrvMOdH0N31Kq4DRy/YaYYlnGiy/SZ/feI+weW7OWKtauTZ/ddy9lvPCC8PnE15JKlBDx+OOOQNDvbxCc3LUXUoNAkSYQ9APLCn4iXvityncSl58DXilG8OwXt2IT172o83PSflZp8puf1/bluufn/WfFxklcfvNzUge7NOBnR8g6Hvys+djFgp8dIet48LPmYxcLwcmOUOz4WILTnI8+orcGXSUMRm3eQrPef18ILaXLlydeTseiSqwZTuzHiP0Z8cFCTiXFz5G4GPWHl8exICQFp1gOud0KTmrdpX+mqGKF43I5a+qad94VTsGdCE67NmwQy+c4v8tfHktdb7iBHqlXVyynkzOsosvCuTMCQb+/QXBy1k5IBQIgYBAI+oFl1QhF+YWVfTaNGDFCLLXSEZuYa1HmZ3VfOY3LT35+iE38PfDC5bQ1Y6cDv9hcnF4FP6ekYqcDv9hcnF4FP6ekYqeD4BSbi93VWILTgd27aViVysKUnXH/PHasEGl4d7hLRj8vrscSnNQd6v721tt06tVX5yk+e8cO2rFmNSUlFafabdqIeD8FJ1Wguufnn6lh12556iD9UXGETONEcOL0Y/ufQ0t++IFSzziD+htj2+eN2V58DJs9m+q2bSfC+OOeQNDvb8Wys7OPua+2vkVKSoowfvHIUf1MYAkCIBAIAfnAMp4bgZRf0AvNNHYWSU1NzZevMXLkSBo+3PlU63ypRD5nmp/88rnq2tn369ePpho70fQw/DtMMJyIejmKIj8vvKJtwS+aiLtz8HPHKzo1+EUTcXcOfu54RafG+1s0EWfnsQQntmRfTOyTif0q8ZI1PoZMmUKNup8mwrEEp+2rVtGIpk1EfLuBA+m6/30kwuofdjTOtjWMsebDi5eIKD8FJ9UHFfuRYh9N0cd/r7yC5o4bJxyg845zZSpUcLSkjvPh2V7vXnuNyJK/IzPi3fD+sWBBdDE4d0Hg/9k7EyArijOOfwGVLMghGKIGPDCi4AGLChE5FgXLGA+wRC2PSJTogqWAgpgIAQMKZIUoLlVRY+IFaqLGKCImUVaMVAxKjIpGPGFxQQRBAZVjl8zX2I95x/RMz+t53e/tf6pkZrq//vrrXzfD9N+efrbnbxCcNDoLpiDQ2AnYfmAVO3+88ObXg42RHwuJL3n/FzFfsYnJN0Z++Y249NLgl85D9w78dIml24NfOg/dO/DTJZZuD8EpnUfUuyDB6b9PPEH3nj805aZl+/Y0pXY1NWnaVKTlEpw4g/dP4n2U+Ljyyb/SMWeeKa4b6uvphVmz6Klf3Cjuh9w2kwaMHi2uTQpO7FD642u5KThf8/HKfffR3OFXiGteoXT6hIniOuoKJ//qL1HQ+8PfFpmGsx4B2/M3fFKn11+wBoFGTUA+sHbtyn9hZJKfIJnoJNPxcUxY0p9fz4Af+EUlgL+/UUnltgO/3FyipoJfVFK57cAvN5eoqUnwwyd1Uemn2wUJTtu3bqWxrVuljAeMGUNDqm5L3QcJTl+uXUtTuhxF2zZvFra8+qftIQdT7bJlYq8jTuRfebvG+6U6ucG2FIhM7OHE/reuX0+3Hndsqr52nTrR970VVXVvvZVarcVxjfZWZzffb/eng1EFJ/bPK5x4pZM8pnpCXKsDD5S3OMcgYHv+BsEpRqehCAg0VgK2H1gq7qZfsEz749ghmKh6MDwP/MIZqSzAT0UnPA/8whmpLMBPRSc8D/zCGakswE9FJzwPglM4o1wWj426lhbPmUMsykxa8V6ayQOXXkKvPvywSJN7HUmD5QsW0F1nnyVuuRyXlweLTg9f+XNiG//Bm47/2FtR1GfECNrn2y1sOP/JG8aJ1U+5BKfaZa9RVc+ews1NnmD0/aO6+F2mfqWOf2mONyqXx+Z162ju5T8j3lcq8ygfOpQu8j6143jk8b4nPs0+ZYC4DdpsXNr696rijc+HP/a4zMI5JgHb8zcITjE7DsVAoDESsP3AUjE3LRCZ9sexm3jh5Q2k+3ubKI73/vHno6ysTJzz/cN0e0374/aZ4Cc5mY7PdX/gJ3s+/hnjLz47jL/82IEf+OkQMP3vEdcNwUmnBwpj+/nKlVTn7W205bPPxAqgQ3v1Sq0oKkQE/LXDxlWraM3y5fTlmjXU/sjOdGDXo6l527Z5Vc9tml7eXfionP8MdfX2ssSRHwHb8zcITvn1H0qDQKMiYPuBpYJt+gXLtD+OPd8Jq//XyhZ8+3+2IDipRkVwnun+NeGP+3fSpEni1wZN+Mtsfb7jz+/PdHyu++O2g59/BOhfg58+M38J8PPT0L8GP31m/hIQnPw0cJ0kgb+MG0uLfvtbsaH65A8+TO1rlWSdpe7b9vwNglOpjzC0DwQMErD9wFI1pdQnrH6xadGiReR6e03Hx31fyhOGpPu31PllPhsw/jKJ6N2Dnx6vTGvwyySidw9+erwyrZPgB8EpkzLuTRLYumGD2HNq3bv/o5m9ewvXQ2ffSX1HjjRZTaP1ZXv+BsGp0Q49NBwE9AnYfmCpIjb9gmXaH8ceVzDJFCPYl+n4XPeXDz8um3m41N5C9C+3P+74y2TH9y7xK0R8XAf45SIdPQ38orPKZQl+uahETwO/6KxyWUJwykUFaaYI/H3GDHr6pl+m3PGv9k16733ap0WLVBou4hOwPX+D4BS/71ASBBodAdsPLBVw1yfAHHvcF14WJPjglU3ycL29puPjdsflJ5n5z6bji+svl9jEccb1529j5nUp8stso7wHP0ki3hn84nGTpcBPkoh3Br943GSpJPhBcJJ0cU6CgF9wau/94t2wefOoQ/fyJKpqlD5tz98gODXKYYdGg0A8ArYfWKqoTb9gmfbHsWPCr+rB8LxS41dTU0MsOFVUVKSJiUwC4y98PKgswE9FJzwP/MIZqSzAT0UnPA/8whmpLJLgB8FJRRx5+RJo2LmTvvA2Hv9uq1ZU1rp1vu5QPoOA7fkbBKeMDsEtCIBAMAHbD6zgyMxP0JN4YSs1waSQ/cF1lSI/Fp1YcMo8MP4yiejdg58er0xr8MskoncPfnq8Mq3BL5OI3n0S/CA46fUBrEHAJQK2528QnFwaDYgFBBwnYPuBpcJj+gXLtD+OvRQFk6A+Ab8gMtHSwS8apyAr8AsiEy0d/KJxCrICvyAy0dLBLxqnIKsk+EFwCqKNdBBwn4Dt+RsEJ/fHCCIEAWcI2H5gqUCYfsEy7Y9jjyI4TZ48mfi/sMN0fK77Yx5R+IVxk/mut9d0fOAnez7+GeMvPjuMv/zYgR/46RBI4t8PCE46PQBbEHCLgO35GwQnt8YDogEBpwnYfmCp4Jh+wTLtj2MPm7DKDaR5c/Bcn1n52286Ptf9ReHn5xN2baO9UcVEjt10fOwzbPyxTdTDdHyu+2Mu4Bd1dOS2A7/cXKKmgl9UUrntwC83l6ipEJyikoIdCLhHwPb8DYKTe2MCEYGAswRsP7BUYIp9wirFJhaa/L9GF9Rm19trOj7mUMwTBtm/UcREbiv4MYX4B/jFZ8clwQ/8dAiYHi+m/XFbivnfD52+YNsk+EFw0u0F2IOAOwRsz98gOLkzFhAJCDhPwPYDSwXI9AuWaX8ce9ALrxQjoopN7Mt0fK77U/HjPN2jkO11oX+ZT9D402XH9oXk50J8HAP4xemJPWXAbw+LOFfgF4fanjLgt4dFnCsITnGooQwIuEHA9vwNgpMb4wBRgEBRELD9wFJBcn0CzLHneuHlz6xuvvlm8QldlJVNkoHr7TUdXxA/yUP3bDq+IH9xxCZuS5A/3Xb67XONP3++zrXp+Fz3x2zAT2eEZNuCXzYTnRTw06GVbQt+2Ux0UiA46dCCLQi4RcD2/A2Ck1vjIXY0X65ZQ0vnzhXlD+jalY4+44xQX4urq2nHN99Q0733popRo+jfDz5Imz/9lA7p2ZN+2K9faHlXDBrq66nmjjtoV0MDHXfOOfS9I45wJbSSi8P2A0sFtJgnrDp7+0gGrrfXdHzc7mKbMMQVm7it4McU4h/gF58dlwQ/8NMhYHq8mPbHbSm2fz90+GfaJsEPglMmZdyDQPEQsD1/g+BUPGNFGem2LVtoXJvWwqZl+/Y0dfUn9J0mTQLL1L3xBk3vUS7yjxo4kEYufI5uPfZYWvvO23Tq2LF0zvQZgWX9Gdu/+opWvPCCSDq8Tx8qa9PGn12Q653bttF1LZqLuq7482PUbciQgtTbGCux/cBSMTf9gmXaH8eOF15VD4bnFRu/mpoasXpNZ+WapIDxJ0nEO4NfPG6yFPhJEvHO4BePmywFfpJEvHMS/CA4xesLlAIBFwjYnr9BcHJhFBiKYe4Vl9Mr998vvI156SU67KTegZ4XTp1CC7796fVL73+ATrz44liC07oV79JUb0UVH9cvWeKtjuoVWGdSGRCckiKb7df2Ays7oj0ppl+wTPvjSItNMNlDV/8K/PSZ+UuAn5+G/jX46TPzlwA/Pw39a/DTZ+YvAX5+GvrXSfCD4KTfDygBAq4QsD1/g+DkykgwEAevNKo+bZDwNGDMGBpSdVug16ldu9C6FStEftXGTdSsZUv6fOVK2rntG2rRth212H//wLL+DAhOfhqlf237gaUibPoFy7Q/jh2Ck6oHw/PAL5yRygL8VHTC88AvnJHKAvxUdMLzwC+ckcoC/FR0wvMgOIUzggUIuErA9vztO6+//vquQsLp3r27qG72zvpCVtso6mrYuZMmHtyRNq9bR/xZ3ZTa1dSkadOstvs/pzvxkkvo0vt2r4rKMgxI4M/oeFVR8/3280SrZFc4cT1bN2wQde1dVpYzIqxwyoklkUT5wPKeG4n4L3Wnw4cPpxNOOIEqKytLvaloHwiAAAiAAAiAQIkQwPytRDoSzWiUBGzP37DCqcSG3dMTbqK/T58uWjV68WLq1PvkrBb6P6cb+exCOmrQ7lVRj1ReRZ+99z71uOACOvnKK0W5Jb//PS2eM8fbRLwvDRp/Iz06cgS9NX8+HdClK7U/sjN94u0FteHDD4Vtu06dqFmLfekyb/PxA485hu4efI63amoV9fEm132uuiorjrvOPos2eqIY7xnFn/TJo377duJ6X6y+M7UKi/NYROs1bBhVXDuKWh1wgDQX4hf2cErhSPRCPrB27cpfpza9gsh1f/lsIJ2rU11vr+n4mIHL/4e6f//+1LdvX5o6dWqu7tJOa2z8TLfXtD/Xx5/p9pr2B37aj4CsAi4//0yPF9P+MP6yhpN2AlY4aSNDARBwhoDt+RsEJ2eGgplA6t58k6aX715Fxr88d+7MWVmO5ed0YhXUqlpqstdewibXpuFSnGLh6pvNm6nuzTeELQtOO7zP76TY5K/kupdfpkN7/Yh+deghtGn1ajp94kQ6Y9Jkv4m4lvmDZ/yGTrn+epHGQsa84Vek9qLKKuQltO/cma7758vUvG1bkY0VTrkoJZNm+4GlapXpF1ST/qTYxKubli5dqmpG5DyT8XGlrvvjGF2dcMn+7ef9uueLL77IoeZ9mO4PDshVfhyb6faa9gd+TCC/A+MP/KISwN/fqKRy2yXBD4JTbtZIBYFiIGB7/gbBqRhGiWaM08vLhTCUKSixG//ndANvuIHOvnVayrtKcJJGHct7ULdzz/VWOHWhDl49a5YvJ16pxMewufO8tO7U9pBDaa9mzWIJTrXLXqOqnj2FP14V9WNPqGrhCUtr33mHltzrrbaqrhZ5cqNzvoHgJJAU5A/bDyxVI02/YJnyJ8WIiooKuv3226lbt26qZkTOMxWfrNB1fxynixNW2b8sNi1cuJDKAj79lZyjnk33h6v8JA/T7TXtD/xkT8U/u/j3V7bG9Hgx7Q/jT/ZU/DPGX3x2XBKCU378UBoEbBKwPX+D4GSz9xOqu2b2bHriujHC+6hFi+jwvv1SNckVS5ww/rVl9APf5DdMcCo/7zz66QMPUtN99kn5U+3hJFcw6axw4k/p+NM+3sR82tpPhXAlK9u2ZQtN6NiBtnkrrQaNH09n3XKryILgJAklf7b9wFK10PQLvil/LEjwscj7u4gXXlUPhue5xk+KTSwmLliwQDQAglN4P+ayMPX3Tfo27Y/9ujb+ZFv5bLq9pv1xjODHFOIf4BefHZcEv/z4QXDKjx9Kg4BNArbnbxCcbPZ+QnV/UVcnNg9n9/2uvprOu2N2qib5OR1/EvdL7/M7/xEmOP3645XUpkMHfxHlpuFxBKeNtbW0/oMPqKxNa+rQvTytrg0ffUSzTu4tNkUfOG4cnT1t915VEJzSMCV6Y/uBpWqc6QmSaX8cO154VT0YnucSv5qaGmLBicUmFhNNjxfT/jD+wsdXmIVL4y8zVtPjxbQ/jL/MHtO/x/jTZ+YvAX5+GvrXEJz0maEECLhCwPb8DYKTKyPBcBy/O/Mn9Lb3eQevFJrx2XqxT5P/c7oht82kAaNHp9WqEpz487xb6tak2fON6RVOsoL6HTvo7WefpVWvvSr2iVr/4Uf08Sv/ktkEwSmFoqAXth9YqsaaniCZ9sex44VX1YPhea7xY9GJBSc+TI8X0/44Rtf4cUzyMN1e0/44TvCTvRXvDH7xuMlS4CdJxDuDXzxushQEJ0kCZxAoPgK2528QnIpvzESKeNmjj9J9F18kbK/5x/N0hDcp8n9ON8XbLLz1QQel+VIJTrxR94S330mz55t8BKdx+7URn8f5Nw3fvnUrLfL2uVk8p1qsZMqq8NsECE5BZJJNt/3AUrXO9ATTtD+OHS+8qh4MzwO/cEYqC/BT0QnPA79wRioL8FPRCc8Dv3BGKgvwU9EJz4PgFM4IFiDgKgHb8zcITq6OjDzjYuFmbOtWwkufyko6v3oOyc/pupx2Go1Y8GxWDYUUnL7etInG799OxOAXnB4ZUUlL7rlHpLPIxRuUH9zjeGrX6TBvo/KudLv30+OrXl2KFU5ZvVeYBNsPLFUrTQtEcfxNnjyZ+L+gAy+8QWSipYNfNE5BVuAXRCZaOvhF4xRkBX5BZKKlg180TkFW4BdEJlo6BKdonGAFAi4SsD1/g+Dk4qgwFNO8nw+nf/3xj+Kzumuffz7162+XPTSXjr/wwqxakhKcMn8Njyuu/c8yqjrxRBGDFJzqt2+nMc3LRNpxgwfT5Y/+iZo0bSru+Y9dDQ10Q7u2YlUUVjilsBT0wvYDS9XYOAKRSX9yA2nez0d+ZpXpHy+8mUT07m3yCxMTbY+/KCRt8guLD/zCCKnzwU/NJywX/MIIqfPBT80nLLcY+EFwCutF5IOAuwRsz98gOLk7NvKObIU38a0eNFD4OejY46juzTfEddWmL6jZvvtm+TctON3hfcb3wT9foq6nn06V859Jq2/+xAn0t2nTRJoUnHiz8F8f2Vmk8UbnvOG5/1i59N8086STRBIEJz+Zwl3bfmCpWmrzhU2KTSw0seAUdGDCH0QmWrotfrJ/VWKizfEXjR4+6YzKKcjO1vgLisefjvHnp6F/DX76zPwlwM9PQ/+6GPhBcNLvV5QAAVcI2J6/QXByZSQkEEdDfT1N7NghbS+kXpddRhff+4ectcURnDauWkWTvM/d+Bg6+07qO3JkyvdTv7iR/lFVJe6vfu5vdOSpp9L2r76i1x9/nB762bCUnRScdnz9NV3fcrcQ1rG8B41evJj2LisTK5ve967vHjJYrG7ighWjRtG5M2cJH/iVuhTKxC9sP7BUDbT1wibFiDCxiWPHhFXVg+F5NvhF7V9b4y+c2h4LG/z21K6+Aj81n7Bc8AsjpM4HPzWfsFzwCyOkzi8GfhCc1H2IXBBwmYDt+dv/AQAA///Cy4ZRAABAAElEQVTt3QmcHEXZP/AnQE4IBEIChPtaExCSQLg12SBHxBcQBBFBfRERUbnRoEHZvBIBAUVUVBAExAM5VMAYENlN/iAgVzDhWghnuEKAcC25yP7n6WxPumeqn6equ3ard/c3nw+Z7qqnaqq/VenMPPT09GmvPCjj8cEHH0Q1AwcOzIhwL+7Tp0/U6JLlH7o3RgtngVu/dxbdfu651XbfvP2f1LD33tX95MYPd9iBXn38MfrEGWfQweedH1XNOOcHNL2piYY3NNBZjz2eDK9uf3+LzWnR/PnRfv/Bg+nk5mbaZMxYar3zTvr5fvtW4wYPH07vLlhQ3Y83Pn3+j2jv00+Pdq/98jH0n2uuiauoYeJEev6BB2jJu+9GZTyOBa2t0fYOBx1Ex930F1q+ZAmdtuagqOzY62+g0YccUm2PDb8CJ62xetShcNqwfkHf55cQ/bW0tNDEyhptbGyk5sq61x6PPPIIjR49Wguzqg9xvFYD6wjyPT7utqv9eG55jm3m1/fx+u4vhF/HUrB68n28vvuDn9U0ikFd/fdXHExNpe/14rs/Hi78aibNcRd+jmA14fj8VgOCXQh0I4HQn9/6IOHUjVZLjqG+MncunTtm5QdcTvj84MX5tNrqK5MGtd2dN3YsvTznv7TPt79NB/1wZZJqxjnnVBJOZ9OGo7aj786ZU9sk2p/185/TDaecXK077e67aYvddo/2H7ruOrrqqM9X63hj6FZb0RG/uJTuvOhCeuKOO+iQCy6kiaeeGsV8sGgRcdJpzs03p9qM2GFHOvq3V9KHy5bRFYcfXk1wceLyw6VL6dRBK5OiX7nxJtrx4INTbbHjTyD0CUs6Et9v8G37a6okZPk/mwfe8NooZcd0pZ9LsolHbLteso8uXeO7P+69K/3SR6Pv+T5e3/3BT59DLQLrTxOS6+En+2i18NOE5HoknGQf1EKgzAKhP78h4VTm1dGNxvbB22/T2y+/RP3XGkxDNtmE4n+Y+BBWLF9Orz/9FL3x3PM0ZOONaYORI2n1vn3Fo3u5ktx67cknK/2tRZvvsgutOXRoNZ6TTi8+9GClbH0ats021XJsdL5A6BOWdIS+P2D67o/Hjje80gzqdV3px1c2TZ061erKNR657/Xiuz8eY1f68eu5PHwfr+/++Fjg5zKj9bHwqzdxKYGfi1Z9LPzqTVxK4vf1+IaKixpiIVAOgdCf35BwKsc6wCgg0C0EQp+wJCTfHzB998djxxteaQb1OvjpRlIE/CQdvQ5+upEUAT9JR6+Dn24kRcBP0tHrkHDSjRABgbIKhP78hoRTWVcGxgWBEgqEPmFJJL4TRL7747HjDa80g3od/HQjKQJ+ko5eBz/dSIqAn6Sj18FPN5Ii4Cfp6HVIOOlGiIBAWQVCf35DwqmsKwPjgkAJBUKfsCQS3wmi2v74nj78sLk5eNY48YY3S8auHH52TllR8MuSsSuHn51TVhT8smTsyuFn55QVBb8sGbtyJJzsnBAFgTIKhP78hoRTGVcFxgSBkgqEPmFJLLUJIinWpi7Zn+sNpLP6xxveLBm78s7y4/mdMGGC9c3fTaNNrhdTvWuZ7/749TvLz/XYTPG+j9d3f/AzzZpbGdafm1dtNPxqRdz24efmVRuNhFOtCPYh0H0EQn9+69PW1tbelVyDBq38+XrcdK4r1fFaEPAjEJ+wKucNPx12g14mTZpEs2bNovHjx9OMGTMKjbi1tZUaGhoK9dGbG3eGn8/5LfvcdIZf2Y/Z5/jgV0wTfvArJlCsNdZfMT98fivmh9YQCCkQ+vMbEk4hZx+vDYFuJhD6hNXVXL6TEXjDW2wGffv5nt9iR9f5rX37df6Iy/UK8Cs2H/CDXzGBYq2x/or5IeFUzA+tIRBSIPTnN3ylLuTs47Uh0M0E4hNWe3vxCyN9f+WlM/qbNm0a3X333YXu25ScYlzSn9Rw3/bpx1+h4yvXGhsbvcxvZ6w/Fho4cKA7VEYLn35lP17f42NS+GUsLMti+FlCZYTBLwPGshh+llAZYfhKXQYMiiHQDQRCf35DwqkbLBIMEQJlEQh9wpIcfH/A9N0fjx1veKUZ1Ot8+bW0tBDft4m/Jjlz5kz9hS0ifK8X3/3xIfjy4758j6/s/cGPBYo9sP7gZyvg+3zAr4v1Z6tvjkPCyeyCUgh0B4HQn9+QcOoOqwRjhEBJBEKfsCQG329QfffHY8cbXmkG9TqffrfddluUcPJ1BZHv9eK7P6w/fX1pET7Xn+/5LXt/WH/a6tLrsf50IykCfpKOXoeEk26ECAiUVSD05zcknMq6MjAuCJRQIPQJSyLBBy5JR6+Dn24kRcBP0tHr4KcbSRHwk3T0OvjpRlIE/CQdva47+CHhpM8jIiBQVoHQn9+QcCrryig4rrdefJH+/ZvLif+B2O8736U1+vcv2KPe/KnK11Tm/v1WWjhvHm3bOJEaTzopavT600/T/df+jl574gnqt+aadNQVV+qdIaKUAqFPWBJK0TdsTU1NxP/Fj6L9xf0kn/F/WJMa7tvwczdLtoBfUsN9G37uZskW8EtquG/Dz90s2QJ+SQ33bSSc3M3QAgJlEQj9+Q0Jp7KsBM/jePaef9NPPv7xqNfzF75BA4cM8fwK6e7m3HILXX7Ip6uFu33pS1FiadH8+fT9LTavlg8ePpymvfxKdR8b3Usg9AlL0iqSIOL7+fB9fc4+++xq0qlIf1njxBveLBm78rx+tclEfjXf81v2/viY8/px29pH2Y/X9/j4+OFXuwrc9uHn5lUbDb9aEbd9+Ll51UYj4VQrgn0IdB+B0J/fkHDqPmvFaaRdnXD60wlfo39ffnk0Rk427fTZI2jU/vvTg3/6E1199FFR+ch99qExnzmM9jzuOKdjQXB5BEKfsCSJvB8w42RT7a+V5e1PGiPe8Eo6el0ev3h+m5ubo1+ki1/F9/yWvT8+7jx+sVftc9mP1/f44Fe7Atz3sf7czZIt4JfUcN+Gn7tZsgUSTkkNbEOgewmE/vyGhFP3Wi/Wo+3qhNOFu+9OLzxwP4078kj64u+urY7z1u+dRbefey71HzyYLnhrUbUcG91TIPQJS1LL8wEzTkbUJpv4dfL0J42P6/CGVxOS6139unJ+fa8X3/1h/clry6bWdf1Jffqe37L3h/UnrQa7Oqw/O6esKPhlydiVI+Fk54QoCJRRIPTnNyScyrgqPIwpK+H09ksv0aChQ6nvgAEeXmVVF3HCqfHkk+nQi35crbhlynfpn+efTxuO2o6+O2dOtdy0sWzx4uieU673m3p/4UIasM46tHrfvqZuUeZRIPQJSzoU1w9c/BU6TkiYkk38Oq79SWOL6/CGN5bI9+ziJyWb+NV9z2/Z++NjdvHjeOlR9uP1PT62gJ+0IvQ6+OlGUgT8JB29Dn66kRSBhJOkgzoIlFsg9Oc3JJzKvT5yjy6ZcJr67HN02w+n0Zy//Y3eXbAg6nPEDjvSAZUbJO948MGp17js0wfTm8+/QB/72tfoY8cfn6rjnV8fdCC99eJ8+sQZZ9AuRx1F91x5JT3w+9/TUzNboli+kmmznXamjT76UXpl7lx69fHHqq+57YRGWmv4MDrmj3+KYvmPpW1tNOMH/0ePzbiNXp7z36h8qz33opH77Ud7n3Ya9Rs0qBr74bJl9OM996QPly+nL15zDc2fPZuuP+lEWvLuu/SVG26kHT+96h5S1UbY8CoQ+oQlHUyeD5ime/vEr5Gnv7ht1jPe8GbJ2JXb+mnJJn413/Nb9v74mG39OFZ7lP14fY+PPeCnrQq5Hn6yj1YLP01Iroef7KPVIuGkCaEeAuUVCP35DQmn8q6NQiNLJpyGbLIJ8c27TY/9p0yhT039v2oV3+CbYyd973t0wNlN1fJ4I67/9Pk/or1PP51uOWsK/fO88+Lq6vNHKvdrevKOO6r78UbypuGvP/UUXX7ooVFSKq5PPm+x2+503E030eANNoiKly9ZQqetuTIBxQmxu371q2o4Ek5Vik7dCH3Ckg7O9wdM3/3x2PGGV5pBvc7Wj69emzp1KvF9m7Ievue37P2xg61fllmyvOzH63t88EvOfr5trL98bnEr+MUS+Z7hl88tboWEUyyBZwh0P4HQn9+QcOp+a8ZqxMmEEzcYVbli6FM/+AGtt9nm0ZVBv/vSF6tXHn1n9iPRFUkcFyeUbBNO77/xBr3/xkK6rHJ10YLW1uiG4Hufeiqt0a8/LV+6hO644AK697e/jb5S95Ubb6h87a0fDd1yS2pfsYIuqlytxPd94sfnfvkr2v5Tn6Il771Lc2+5lf46+dtROV/tdMqsWdF2MuEUFVT+4MQTX6213aRJtN7mq34NL67Hs1+B0Ccs6Wh8f8D03R+PHW94pRnU6+CnG0kR8JN09Dr46UZSBPwkHb0OfrqRFAE/SUevQ8JJN0IEBMoqEPrzGxJOZV0ZBceVTDhx0ubkyv/x77PaatVeF7Q+Sedst120z1+N+8LV10TbrgmnuMP4Hk6Tzjqr8lW9qXExxfdw4quVTrv77mr5Q9ddR1cd9flo/2u3/j1KGFUrKxuzfvELuuHkk6KiKZWv5m0wchTVJpy4P+4Xj64TCH3Cko7Ud4LId388drzhlWZQr4OfbiRFwE/S0evgpxtJEfCTdPQ6+OlGUgT8JB29Dgkn3QgRECirQOjPb0g4lXVlFBxXMuF04r/upG0nTKjr8crPHk6zK19ZS97Qu6sSTpcfegjNuflm2mzcLnTGvffWjY1vBP6dDVd+le7Ac6bRvmeemUo48f2lPvuLS+vaoaBzBUKfsKSjkxJEfE8ffkhfsartW+qvNtZ2H294baXMcfAzu9iWws9WyhwHP7OLbSn8bKXMcfAzu9iWws9WyhyHhJPZBaUQ6A4CoT+/IeHUHVZJjjEmE04/fOVVWmvYsLpe7rzooupX1366bHn0C3FdlXCa2rAtvfHMMzR0q61o5yOOqBsbF9x+7rlR+Z7HHRd95S55hdPRv72Kdv3CF4ztUNh5AqFPWNKRZSWIbG4gbeo3qz9TrG0Z3vDaSpnjTH48vxMqCXW+AbzLw/f8lr0/tjH5uZglY8t+vL7HB7/k7OfbxvrL5xa3gl8ske8Zfvnc4lZIOMUSeIZA9xMI/fkNCafut2asRpxMOF28eAmttsYade3uu/pq+v2xX47KL3z7Heq35prqPZy+te6Q6Ffh4puGx526fKVuReVX5k4Z0D9uqj6PO/JI+uLvrk1d4XTs9TfQ6EMOUdsiwK9A6BOWdDSmD5h5k038Oqb+pNe3qcMbXhul7JhavzLNr+/14rs/Vq31y5bWa3yPr+z9wU9fE1oE1p8mJNfDT/bRauGnCcn1SDjJPqiFQJkFQn9+Q8KpzKujwNiSCaemec8Yb6h9549/TH/99reo/+DBdMFbi6JXk65w+mDRIpq8/tAorkjCqb29nU7uuzIBxjf8/kTl1+6kx/pbb0Vb7rEnEk4SUhfVhT5hSYdZ+4G1SDKCX6e2P+m1bevwhtdWyhyX9Cvb/PpeL777Y9Gkn1nYvtT3+MreH/zs10ZWJNZfloxdOfzsnLKi4JclY1eOhJOdE6IgUEaB0J/fkHAq46rwMKZkwukbt91OH/nEJ+p6vfbLx9B/rrkmdR+lOOG0z7e/TQf9cOVX2uKGLz78EF2wyy7RbpGEE3fA/XB/QzbZhKY++1z0db74deLnVyo3C/9w+TJad5NNac3110fCKYYJ+Bz6hCUdeu0HVv6K1cyZM53u25Tsv7a/ZF3ebbzhzSu3sl3sVzTZxL35nt+y98fHHPvxdtFH2Y/X9/jYC37FVg384GcrgL+/tlLmuM7wQ8LJbI1SCHQHgdCf3/q0tbW1dyXUoEGDope7ZPmHXfmyve61kgmn3b70JTrqiitTBm1vvklnDl95X6d9J0+mA6f9MKr/aWMjzbvr/0W/Gse/Hpd83Pq9s6r3VSqacPrjV4+je65cOaYzH55NI3bYIflS9OJDD9IFu+4alX35uj/TmM98BgmnlFCYnfiEVTlvhBlAN3/V1tZWamho6OZHEW747Pfqq6/SpEmTaPz48TRjxoxwg+mGr4z1V2zS4Ae/YgLFWmP9wa+YQLHW+PxWzA+tIRBSIPTnNyScQs5+J752MuHEL3PYxT+lPY49lvoOHEhtb71Fl1fuf8SJJX6c8+J8WnujjaLtm79zJt1xwQXRdnxl1NJKcmH2jTfStcf8b1TOfxRNOC1ofZLO2W67qL/tDzggukfTwHXWifa57jefOYxeffyx6Ot+0156mfpVEpXJm4bjHk4RVZf/EfqE1eUH7PkF8YGhGGjsN2vWrCjhVKy33tc69ut9R+7niOFXzBF+8CsmUKw11l8xPyScivmhNQRCCoT+/Iav1IWc/U587dqEU/xSwytXVyyoXCUQPz79owto79NOi3ep9c476ef77VvdHzx8OL27YEF1P94omnDifmac8wOa3vHLUnwfqc3HjaOlbR/Qc/fdG78Mff0fM2jkvivHg4RTlSXYRnzC4vtwFX34vuS77P2xF75SUmzVwA9+tgK+zwf8ulh/tvrmOPiZXWxL4WcrZY6Dn9nFthRfqbOVQhwEyicQ+vMbEk7lWxNeRsRJmx/vtVfU14n/upOuO+FrqUQTV3zhqqtpl6OPrnu9h667jq466vOp8qFbbUVH/OJSuvOiC+mJO+6gQy64kCaeemo1Jv6Vuk9+//v0ye+fXS2Pv4a31Z570SmVqxJqHw/84Q903Te+Hv3yXbJuw1Hb0cHnnUfbf+pT1eIPly6lUwcNjPa/cuNNtOPBB1frsNE1AqFPWFlHyfdrmlz5aig/Blau4vPxwAfWYorwg5+LgO/14rs/PhZ8YHWZ0fpY+NWbuJTAz0WrPhZ+9SYuJUg4uWghFgLlEgj9+Q0Jp3Kth04dzcJ58yo36n6Yhm2zNW20/Udp9b59M19vxfLl9PrTT9Ebzz1PQzbemDYYOVKMz+zIooK/svfKo3Pp1ccej77yt/5WW9KmO48z3kjcojuEdKJA6BOW6dDiG0hPmTKF+D8knExKepnvD+i++uNkIv/HD3xgiBhy/wG/3HRRQ/jBz1bA1/kv+XpYf0kN9234uZslWyDhlNTANgS6l0Doz29IOHWv9YLRQiCoQOgTVu3Bx8mmxsrN7qdPnx5VI+FUq2S37/sDko/+4vltbm4mnmN8YLCby6wo+GXJ2JXDz84pKwp+WTJ25fCzc8qKgl+WjF05Ek52ToiCQBkFQn9+Q8KpjKsCY4JASQVCn7CSLHEyghMRnJDwkeBI9u+7P+4bb3iTwvJ27fzCT/ayqcX6s1HKjoFfto1NDfxslLJj4JdtY1MDPxul7JjVVluN+P6dlyxbTpWvIGQHogYCECiXQOXv7Ul914i+ObRixYrCY8vz+QgJp8Ls6AACvUegLAmnlpYW4oREnGziGchzApRmznd//Fp4wyuJr6ozJZvgt8on7xbWX165le3gBz9bAfz7YStljoOf2cW2tDP8+vfvT0sr91K96L33qe+AAbZDQRwEIBBYYNnixXT6WmvSgMrf2/jcUGRIcR8u3yhBwqmIONpCoJcJlCXhxOzJe/vwfp4TILfLevjuj18HH1iztFeVZyWb4LfKKO8W1l9euZXt4Ac/WwH8+2ErZY6Dn9nFtrQz/IYOHUpvvvkmTXvpZRq8wQa2Q0EcBCAQWODd116jKRuPoOGVX55/rbJd9JHn/IKEU1F1tIdALxIoU8Kplj3PCbC2j+S+7/64b3xgTQqbt/nqtalTp0Zfk6yNgF+tiNs+/Ny8aqPhVyvitg8/N6/aaPjVirjtw8/NqzZ6m222oXmVHx868+HZNGKHHWqrsQ8BCJRU4OU5c+i8sWNo++23p7lz5xYeZZ7PR0g4FWZHBxDoPQJIOBWba7zhhZ+tQJ5/0LW+sf40IbkefrKPVgs/TUiuh5/so9XCTxOS6/fcc0+655576Pibb6HtDzhADkYtBCBQGoFHKz+q9OuDDqT99tuPbrvttsLjyvP+FAmnwuzoAAK9RwAJp2JzjTe88LMVyPMPutY31p8mJNfDT/bRauGnCcn18JN9tFr4aUJy/RFHHEF//vOf6dAf/4QaTzpJDkYtBCBQGoGWSy6hm047lU444QS69NJLC48rz/tTJJwKs6MDCPQegRAJJ76nDz/4l+ikR54TYFf2x6+FN7ySuF4HP91IioCfpKPXwU83kiLgJ+nodfDTjaQI+Ek6et2ZZ55J559/Pu1x7LF05K8v0xsgAgIQKIXAH4//Kt1zxRV0SSXxdOKJJxYeU57PW0g4FWZHBxDoPQJdnXCSbiBdq57nBFjbR3Lfd3/cN97wJoUp+qXBCRMmRDeAT9eY9+BndrEthZ+tlDkOfmYX21L42UqZ4+BndrEthZ+tlDnuqquuomOOOYY2GTuWvn3/A+YglEIAAqUT+NEu42j+ww/TrFmz6OMf/3jh8eX5fISEU2F2dACB3iPQlQknl2QTz0CeE6A0c77749fCG95V4q7zC79Vdnm3sP7yyq1sBz/42Qrg3w9bKXMc/MwutqWd4ffAAw/QrrvuSu3t7XT+wjdo4JAhtsNBHAQgEEjgg0WLaPL6Q6lPnz60ePFi6tevX+GR5Dm/IOFUmB0dQKD3CHRVwilPMiLPCVCaOd/98WvhA+tK8TzzC7+VdkX+xPorooe/v8X04Ac/ewH8+2tvZYrsLL9TTjmF+Jdkj73+Bhp9yCGml0YZBCBQIoFH/vIXuuLww2jcuHF0//33exlZnvMLEk5e6NEJBHqHQFclnJqammjmzJnqfZuS6nlOgMn2tdu+++P+8YF/5dfo+A1rY2Oj0/zCr3aFuu9j/bmbJVvAL6nhvg0/d7NkC/glNdy34edulmzBfn//+99pypQpuI9TEgbbECixQHz/pm9+85v0s5/9zMtI83w+QsLJCz06gUDvEOiqhFMezTwnQOl1fPfHr9Xb3/ByoomvbsqTbIKftFrt6nr7+rNTyo6CX7aNTQ38bJSyY+CXbWNTAz8bpewY9uPHmDFjaK31h9EPX301Oxg1EIBAKQS+u+GG9N7C16NfmDz88MO9jCnP5yMknLzQoxMI9A4BJJyKzTPe8FJ0OT4nnPI84JdHbVUb+K2yyLMFvzxqq9rAb5VFni345VFb1QZ+qyzybMV+O++8Mz300EP4Wl0eRLSBQBcKxF+n22mnnejKK6+k0aNHe3l1JJy8MKITCEAgSwAJpywZu/L4DZtdtByV54Qv9Vj2/njs8JNmUK+Dn24kRcBP0tHr4KcbSRHwk3T0OvjpRlJE7HfRRRfRGWecQTscdBAdd9NfpCaogwAEAgpcfughNOfmm+nCCy+kffbZJ2zCqa2trb0rLQYNGhS93CXLP+zKl8VrQQACHgTihFPlvOGht5VdTJs2LbongLcOS9xRa2srNTQ0lHiE5R4a/IrND/zgV0ygWGusP/gVEyjWGuvPj98bb7xBm222WfRrdWc+PJtG7LBDsY7RGgIQ8C7w8pw5dN7YMdGv073wwgvEf29Dfv7og4ST9zlGhxDosQK+E06TJk2iWbNmRQknvhFlT3/0tje8vpOJvc3P998H+BUThR/8igkUa431B79iAsVaJ9ffySefTJdffjluHl6MFK0h0GkC8c3CjzvuOPrpT39Kyb+/nfaiQse4h5OAgyoIQCAtECec2tuLXxg5YcKEKNmU9wbS6ZER4SthtSJu+7794vltbm6ObhLuNhpzdHxJv7nWrdT38Za9P9aBn9saqY2GX62I2z783Lxqo+FXK+K2Dz83r9ropN8TTzxBo0aNikJwlVOtFPYhEFYgvrqJR/H444/TyJEjg7//Q8Ip7JrAq0OgWwn4SjjxL5XxL5aNHz+eZs6c6cUAH/iLMfr064z55aNLvuEtdrTlT1D6nI/YCn6xRL5n+OVzi1vBL5bI9wy/fG5xK/jFEvmea/2+/vWv0y9/+UsaW/nlq2P++Kd8naIVBCDgXeC3R36OHr7+ejrhhBPo0ksvjfqv/ftb5EXzvD9FwqmIONpCoJcJ+Eg4caKJExKcbJoxYwYNHDjQi2KeE6D0wr7749cKfcLviuNNJpt8zm9v8YvnCOsvlsj3DL98bnEr+MUS+Z7hl88tbgW/WCLfc1f4vfzyy7T11lvT4sWL8Yt1+aYJrSDgXSD+ZboBAwbQvHnzaMSIEdFrhP78gYST96lGhxDouQI+Ek6s09TURJMnT46gkHDKt158v6H00R/P69SpU6Ov0E2fPt3r/HJnof/BlGbKh1+yf9/9wS+pm28b6y+fW9wKfrFEvmf45XOLW8Evlsj3bPKLf7Fu/Uri6TuP/Jf6Vj7k4gEBCIQRWFZJ/p47ekdaWEk08S/TnX766dWBmP7+VisdN/K8P0XCyREZ4RDozQK+Ek5smOeEJdmXvT8ee+gTflf4cdKJ//M9H73FL54j+MUS+Z7hl88tbgW/WCLfM/zyucWt4BdL5HvuSr/4quY9jj2Wjvz1ZfkGjFYQgEBhgfhG4aZ744b+/IGEU+HpRQcQ6D0CSDgVm+vQJ3xp9L7foPruj8cOP2kG9Tr46UZSBPwkHb0OfrqRFAE/SUevg59uJEVk+XH52LFjiX9M5ohfXEp7HX+81A3qIACBThC4+9e/puu+8XXq06cPPfzwwzR69OjUq2T9/U0FWe7keX+PhJMlLsIgAAEiJJyKrYLQJ3xp9Hn+AenK/vi14CeJ63Xw042kCPhJOnod/HQjKQJ+ko5eBz/dSIqQ/C677DI6viPR9M3bb6eGvT8hdYU6CEDAo0Drnf+in++3X9TjryuJp69+9at1vUt/f+uClYI8nxeQcFJQUQ0BCKwScE048aXW/Ghubl7VScdWnhNWXSeJgrL3x0MNfcJPcNVtwq+OxKkAfk5cdcHwqyNxKoCfE1ddMPzqSJwK4OfEVRfcE/xOPfVUuvjii2mt9YfRN//5Txqxww51x4kCCEDAr8DLc+bQz/fdl95b+Dqdcsop9JOf/MT4AqE/fyDhZJwWFEIAAiYBl4RT/L1+03eJue+yv8HyPT4+5tAnfB5D1sP1eHl+J0yYEN2vydSna3+mPmrLepJf7bHV7sOvVsRtH35uXrXR8KsVcduHn5tXbTT8akXc9kP5HX744XTDDTcQ30T8a7feSsO3bXAbOKIhAAFrgQVPtdKv/ud/opuEH3bYYXT99ddntg39/hkJp8ypQQUEIFArYJtw0pJN3K/vN0Rl74+POfQJn8eQ9XDxCzG/PO6e4pc1B8lyl/lItpO24Sfp6HXw042kCPhJOnod/HQjKQJ+ko5eZ+u3//770+2Vr9Vx0ukrN9yIK510WkRAwFmAr2z6zWGfiZJN+1W+TnfbbbeJfdj+/RU76ajM8/4UCScbWcRAAAKRgE3CySYZwZ3lOWFJ01D2/njsoU/4PvxCzW9P8ZPmIFnnez3DL6mbb7sn/P21PXKsP1spcxz8zC62pfCzlTLHhfRbunQpHXjggVHSib9e979/+D3u6WSeJpRCIJcA37Ppqs8fFX2NjpNNt9xyC/Xr10/sK/T7FyScxOlBJQQgkBSwSTg1NTXRzJkzjfdtSvbl+w1R2fvjYw99wk/6127b+Nkmm7hvm/5qx6Dtd3c/7fiS9fBLarhvw8/dLNkCfkkN9234uZslW8AvqeG+XQa/+Ot1PHr8ep37HKIFBEwC8a/RcZ32Nbpk+9Dvn5FwSs4GtiEAAVHAJuEkdpCo9P2GqOz98aGHPuEn+Os2bfw44cQP003gazu06a+2jbbf3f2040vWwy+p4b4NP3ezZAv4JTXct+HnbpZsAb+khvt2WfziG4nzEexx7LF02E8vob4DBrgfEFpAoJcLLFu8mG44+SS654orIgnpBuEmqtDvn5FwMs0KyiAAAaMAEk5GFuvC0Cd8aaC+36D67o/HDj9pBvU6+OlGUgT8JB29Dn66kRQBP0lHr4OfbiRF5PW77LLL6Gtf+xq1t7dH93U6+LzzafQhh0gvhToIQCAh8Mhf/kJ/O3NydL+mPn360K9+9Sv66le/mojQN/P+/TX1nOf9PRJOJkmUQQACRgEknIws1oWhT/jSQPP8A9KV/fFrwU8S1+vgpxtJEfCTdPQ6+OlGUgT8JB29Dn66kRRRxI/b8hUZLS0t0UuMrfya3f7fnYIbikvgqOv1Anxj8Nt+OI0e7vj1Of7V74svvphGjx7tbFPk72/ti+X5vICEU60i9iEAgUyBOOFkCuD/e2V6cDbe9Ghra4uKBw4cmKrOinftv2h8fEIdNGhQanzxTp7+TSf8nnq8vW1+y368vG55/Y0ZMyZewqln1/Vc9uPF39/U9EZXF6RLVu5lnX962/yW/Xh5tvD3d9UKdj1fcTz+/SXK+vtu65kVt2pm5K2LLrqIzjrrLFpc+XoQP/hrdhO+eSISTzIbanuZACeaZv78Z9Wvzw2ofA31nHPOodNPPz23hOn8l7ez+P1V7ec3qT8knCQd1EEAAikBJJxWcWS98ZLe0JlO+FL8qldbtdVZ8fE/IL4SbGX/ANfbjpdXED6wrvp7hL+/Ky2yzif4+yv75Fk/q1bfqq0sf1P/+Pu7ys3kw7WSJ/79lX1W6a7aqvXMcl/VQt96+eWXiX9c5vLLL68G73DQQbTrF76Ir9pVRbDRGwX4q3P/+d01NOfmm6uHf8IJJ0RJ2hEjRlTL8myYzn95+uE28ftnJJzyCqIdBCAgCsQJJ76sky+N5mebG0ibOs1zwjL1E5eVvT8eZ+gTfmxlek76xb9Gx3PLc5znkewvT3tTm+7iZxq7axn8XMXS8fBLe7juwc9VLB0Pv7SH6x78XMXS8d3B78knnyS+vxPfjyZOZK21/jDa4eCDaLtJn6SGyo+UDBwyJH1g2INADxL4YNEiaq28z35sxj9ozt9upvcWvh4dHSd6v/KVr9Bpp51GI0eO9HLEod8/4wonL9OITiDQOwTihBMfbZFkE7f3/Yao7P3xMYc+4fMYsh6x3wEHHFA4mcivEffn8n9AssYWl3cHP1/HC7941vM9wy+fW9wKfrFEvmf45XOLW8Evlsj33J38Fi5cSFdffTX94Q9/oIceeih1wJuMHUub7rQTbbT9R2nYNtvQuptuSoOHD6cB66xDffv350u2UvHYgUCpBCpf5V22ZAktfvttenfBAnrrxRfp9aefplcenUsvVtb6/IcfTg13p8pa//znP09HHHEEDR06lHy9n+QXCf3+uc/s2bPNN15JEfjbybp/hL9XQE8QgEBnC4wbN45+85vfdPbLoP8uFuD/o/LAAw8Q5reL4fFyEIAABCAAgV4u0NraSrNmzaJ7772XHnzwweqVT72cBYffQwX4Sqadd96Zdt99dxo/fjw1NDT00COt5IYrlzFmJpw6I0Ne+33gHiuLA4NADxYQThvWR+37/FL2/hgm9P9hkCaHb+Q5bdq0wleuxa/hez7K7uf7eH33B794ZeZ/LvPfX9/rxXd/WH/5113cEusvlsj3DL98bnGrrvZbunQp3XfffVS5MIIef/xxmjdvHr300kv0+uuv0zvvvENLKleO+HgvGh8fniHgW4BzHv0rV+KtvfbaNGzYMNp4441p6623plGjRkU/4LLbbrtRv3796l62J/77GyzhdPR9e9UBowACECi3wLW73R0N0Mc/8r5PqGXvj+G6+g2by2piP0448S9h+Hj4ng8eU9n9eIy+LoGGH2vmf8Avvx23hB/8XAR8rxff/fGx4N8Plxmtj4VfvYlLCfxctOpj4Vdv4lIS2g8JJ5fZQiwEerkAEk7FFkDoE740et9v8H33x2OHnzSDeh38dCMpAn6Sjl4HP91IioCfpKPXwU83kiLgJ+nodfDTjaQI+Ek6el1oPySc9DlCBAQg0CGAhFOxpRD6hC+N3neCyHd/PHb4STOo18FPN5Ii4Cfp6HXw042kCPhJOnod/HQjKQJ+ko5eBz/dSIqAn6Sj14X2Q8JJnyNEQAACHQJIOBVbCqFP+NLofSeIfPfHY4efNIN6Hfx0IykCfpKOXgc/3UiKgJ+ko9fBTzeSIuAn6eh18NONpAj4STp6XWg/JJz0OUIEBCDQIYCEU7GlEPqEH49+4sSJNGHCBGpqaoqLvN+zBQmnKm2uDfjlYqs2gl+VItcG/HKxVRvBr0qRawN+udiqjeBXpci1Ab9cbNVG8KtS5NroiX5IOOVaCmgEgd4pgIRTsXkvQ8KJk00tLS11v0bn+x843/2xfBn8slaA7+P13R/8smbOvhzrz97KFAk/k4p9GfzsrUyR8DOp2JfBz97KFAk/k4p9GfzsrUyRof2QcDLNCsogAAGjABJORhbrwtAn/KxkEx+A7wSH7/54jKH9eAxZD9/H67s/Hjf8smbPrhx+dk5ZUfDLkrErh5+dU1YU/LJk7MrhZ+eUFQW/LBm7cvjZOWVFhfZDwilrZlAOAQjUCSDhVEfiVBDyhC8lm/ggfCc4fPfHYwzpx68vPXwfr+/+eOzwk2ZQr4OfbiRFwE/S0evgpxtJEfCTdPQ6+OlGUgT8JB29Dn66kRQR2g8JJ2l2UAcBCKQEkHBKcTjvhDzhc8KJH83NzcZx+05w+O6PBx3Sz4iWKPR9vL77g19isnJuYv3lhOtoBj/42Qrg/GcrZY6Dn9nFthR+tlLmOPiZXWxLe6IfEk62s484CECAkHAqtgjwgQt+tgI98Q2HdOy+j9d3fzx2/P2VZlCvg59uJEXAT9LR6+CnG0kR8JN09Dr46UZSBPwkHb0utB8STvocIQICEOgQQMKp2FIIfcKXRu/7A7rv/njs8JNmUK+Dn24kRcBP0tHr4KcbSRHwk3T0OvjpRlIE/CQdvQ5+upEUAT9JR68L7YeEkz5HiIAABDoEkHAqthRCn/Cl0ftOEPnuj8cOP2kG9Tr46UZSBPwkHb0OfrqRFAE/SUevg59uJEXAT9LR6+CnG0kR8JN09LrQfkg46XOECAhAoEMACadiS6GrTvhNTU3E/7k8fCeIfPfHx9JVfi5ucazv4/XdH/zimcr/jPWX3w7rr5gd/ODnIoB/P1y06mPhV2/iUgI/F6362J7oh4RT/TyjBAIQyBBAwikDxrK4Kz6wxr9GxzcHb2xstBwZfqXOGioj0PcbBN/98bC7Yv1l8KjFvo/Xd3/wU6dQDcD6U4nEAPiJPGol/FQiMQB+Io9aCT+VSAyAn8ijVob2Q8JJnSIEQAACsQASTrFEvufOPuHHySZONGX9Gl3WyH1/QPfdH4+7s/2ybGzKfR+v7/7gZzOLcgzWn+yj1cJPE5Lr4Sf7aLXw04TkevjJPlot/DQhuR5+so9WG9oPCSdthlAPAQhUBZBwqlLk2ujME36RZBMfjO8Eh+/+eIyd6cf9F3n4Pl7f/fGxwa/IDMOvmB784GcvgPOfvZUpEn4mFfsy+NlbmSLhZ1KxL+uJfkg42c8/IiHQ6wWQcCq2BDrrAz/fr2nq1KnRV+hcr2yKj8j3P3C+++NxdpZfbFDk2ffx+u4PfkVmd2VbrL9ihvCDn60Azn+2UuY4+JldbEvhZytljoOf2cW2tCf69Wlra2u3BfARN2jQoKibo+/by0d36AMCEOhCgTjhVDlvdOGr9pyXam1tpYaGhk45oGnTptGUKVM6pe+ydNqZfmU5xs4cB/yK6cIPfsUEirXG+oNfMYFirbH+4FdMoFhrrL/u7YeEU7H5Q2sI9CoBJJyKTTf+wYRfMYFirbH+4FdMoFhrrD/4FRMo1hrrD37FBIq1xvqDXzGBYq1Drz98pa7Y/KE1BHqVQJxwam8vfmGk70tGy94fLxR8paTYXxf4wc9WwPf5gF8X689W3xwHP7OLbSn8bKXMcfAzu9iWws9WyhwHP7OLbSn8bKXMcaH9kHAyzwtKIQABgwASTgYUh6LQJ3xpqL4/oPvuj8cOP2kG9Tr46UZSBPwkHb0OfrqRFAE/SUevg59uJEXAT9LR6+CnG0kR8JN09LrQfkg46XOECAhAoEMACadiS8HHCZ9/jW7ChAk0efLkaDADBw4sNqiO1r4TRL7742H68IuxfI+v7P3BL575/M9Yf/ntsP6K2cEPfi4Cvv89wvpz0TfH4t8Ps4ttKfxspcxxof2QcDLPC0ohAAGDABJOBhSHoqInfE42tbS0RL9GN3369OiVkXBymIBEqO835GXvjw+96PpL8FHZj9f3+OCXnP1821h/+dziVvCLJfI9wy+fW9wKfrFEvmf45XOLW8Evlsj3HNoPCad884ZWEOiVAkg4FZv2Iif8ZLKpubkZH/iLTQX84OcsUOTvb+2L+U6Ilb0/Pn741a4Ct334uXnVRsOvVsRtH35uXrXR8KsVcduHn5tXbXRoPyScamcE+xCAQKYAEk6ZNFYVeU/4tckmfrGyf8D0PT4+5rx+3Lb24Xt8Ze+Pjx9+tavAbR9+bl610fCrFXHbh5+bV200/GpF3Pbh5+ZVGw2/WhG3ffi5edVGh/ZDwql2RrAPAQhkCiDhlEljVZH3hM8JJ37wlU3xo+wJDt/j4+PO6xebJZ99j6/s/cEvOfv5trH+8rnFreAXS+R7hl8+t7gV/GKJfM/wy+cWt4JfLJHvGX753OJWof2QcIpnAs8QgIAqgISTSiQGhD7hS4NDwkTS0evgpxtJEfCTdPQ6+OlGUgT8JB29Dn66kRQBP0lHr4OfbiRFwE/S0evgpxsh4aQbIQICEOgQQMKp2FJAwgl+tgK+38Dw62L92eqb4+BndrEthZ+tlDkOfmYX21L42UqZ4+BndrEthZ+tlDkOfmYX29LQfkg42c4U4iAAAULCqdgiCH3Cl0bvO8Hhuz8eO/ykGdTr4KcbSRHwk3T0OvjpRlIE/CQdvQ5+upEUAT9JR6+Dn24kRcBP0tHrQvsh4aTPESIgAIEOASScii0FmxN+U1MT8X/aw3dCp+z9sYeNn+YW15f9eH2PD37xzOd/xvrLb4f1V8wOfvBzEcC/Hy5a9bHwqzdxKYGfi1Z9bE/0Q8Kpfp5RAgEIZAgg4ZQBY1msfWCNf42Obw7e2Ngo9ur7H6Sy98cYmp8IVlNZ9uP1PT741SyAHLtYfznQEk3gl8DIsQm/HGiJJvBLYOTYhF8OtEQT+CUwcmzCLwdaokloPyScEpOBTQhAQBZAwkn20WqlE36cbOJEU/LX6LL69J2QKHt/7CD5ZTlllZf9eH2PD35ZK8G+HOvP3soUCT+Tin0Z/OytTJHwM6nYl8HP3soUCT+Tin0Z/OytTJGh/ZBwMs0KyiAAAaMAEk5GFuvCrBO+a7KJX9B3QqLs/fExZ/lxneuj7Mfre3zsAz/XVZKOh1/aw3UPfq5i6Xj4pT1c9+DnKpaOh1/aw3UPfq5i6Xj4pT1c90L7IeHkOmOIh0AvFkDCqdjkm074fL+mqVOnRl+hs7myKR6B74RE2fvj4zb5xR6uz2U/Xt/jg5/rCqmPx/qrN3EpgZ+LVn0s/OpNXErg56JVHwu/ehOXEvi5aNXHwq/exKUktB8STi6zhVgI9HIBJJyKLYCsE77tjcKTr+47IVH2/vjYs/ySLrbbZT9e3+ODn+3KyI7D+su2samBn41Sdgz8sm1sauBno5QdA79sG5sa+NkoZcfAL9vGpia0HxJONrOEGAhAIBJAwqnYQgh9wpdG7zvB4bs/Hjv8pBnU6+CnG0kR8JN09Dr46UZSBPwkHb0OfrqRFAE/SUevg59uJEXAT9LR60L7IeGkzxEiIACBDgEknIothdAnfGn0vhNEvvvjscNPmkG9Dn66kRQBP0lHr4OfbiRFwE/S0evgpxtJEfCTdPQ6+OlGUgT8JB29LrRfn7a2tnZ9mP4iBg0aFHV29H17+esUPUEAAl0iECecKueNLnm9nvYira2t1NDQ0NMOq8uOB37FqOEHv2ICxVpj/cGvmECx1lh/8CsmUKw11h/8igkUax16/SHhVGz+0BoCvUoACadi0z1+/Hjaf//9acqUKcU66qWtQ/+D2d3Z4VdsBuEHv2ICxVpj/cGvmECx1lh/8CsmUKw11l/39sNX6orNH1pDoFcJxAmn9vbiF0b6/spV2fubOHEitbS0OP8aXdYCK/vx+h4fO4S+JDhrLrjc9/H67o/HCD9WyP+AX347bgk/+NkK4PxnK2WOg5/ZxbYUfrZS5jj4mV1sS3uiHxJOtrOPOAhAgJBwyrcI4mTTuHHj6P7778/XSU0r3/8glb0/Pnx8YK1ZBI678HMEqwmHXw2I4y78HMFqwuFXA+K4Cz9HsJpw+NWAOO7CzxGsJhx+NSCOu6H9kHBynDCEQ6A3CyDh5D77cbKpsbGRLr74Yho9erR7J4YWZU8Q+R4fE4T+B9MwDdUi38fruz/4Vacq9wbWX266qCH84GcrgPOfrZQ5Dn5mF9tS+NlKmePgZ3axLe2Jfkg42c4+4iAAAVzhlGMNcMKJH83NzUiY5PBLNsEH1qSG+zb83M2SLeCX1HDfhp+7WbIF/JIa7tvwczdLtoBfUsN9G37uZskW8EtquG+H9kPCyX3O0AICvVYAVzgVm/rQJ3xp9L7/j4rv/njs8JNmUK+Dn24kRcBP0tHr4KcbSRHwk3T0OvjpRlIE/CQdvQ5+upEUAT9JR68L7YeEkz5HiIAABDoEkHAqthRCn/Cl0ftOEPnuj8cOP2kG9Tr46UZSBPwkHb0OfrqRFAE/SUevg59uJEXAT9LR6+CnG0kR8JN09LrQfkg46XOECAhAoEMACadiSyH0CV8ave8Eke/+eOzwk2ZQr4OfbiRFwE/S0evgpxtJEfCTdPQ6+OlGUgT8JB29Dn66kRQBP0lHrwvth4STPkeIgAAEOgSQcJKXQlNTE/F/WY/QJ/yscXG57wSR7/54jPBjhfwP+OW345bwg5+tAM5/tlLmOPiZXWxL4WcrZY6Dn9nFthR+tlLmuJ7oh4STea5RCgEIGASQcDKgdBTFv0bHNwfnX6QzPfCB1aRiXwY/eytTJPxMKvZl8LO3MkXCz6RiXwY/eytTJPxMKvZl8LO3MkXCz6RiXwY/eytTZGg/JJxMs4IyCEDAKICEk5GF4mQTJ5o44ZT1CH3CzxoXl/v+Pyq+++Mxwo8V8j/gl9+OW8IPfrYCOP/ZSpnj4Gd2sS2Fn62UOQ5+ZhfbUvjZSpnjeqIfEk7muXYqffyPL1P7h+20xoDVqOGwjdS2L858g959cXEUt+Unh9E7z31Abzz+Hg0Y2pe2+uRwtX2ZAp7750Jqe20JrTdyLdpw3Drq0P57+QvUvoJoy0nDaO3NB6rxRQNee/Btmn/Xm/Tu/MW04c7r0MjPjYi65P1n/r6A3nn+A1pj4Gq0x/e2LfpSvaI9Ek7102ybbOKW+MBa7+dSAj8XrfpY+NWbuJTAz0WrPhZ+9SYuJfBz0aqPhV+9iUsJ/Fy06mPhV2/iUgI/F6362NB+SDjVz4lzyR3fmEuvPvB21O7gG3emwZsMyOyDE1N/3uc+Wtb2YRTzuZbd6ZFfv0CctFp3mzXpU78fk9m2tuKV/yyiD5esoHW2HCS+Zm07n/u3Hz+HFsx+h0YesRGNO20ruet2omt3vzuKmfjj7WjjvdaV4wvWzv9/b1LLGY9Xe9n6f4ZHiaW2BUvppgPvr5YPWLcvHTZj1+o+NrIFkHBK27S0tERXN2lXNsWtQp/w43GYnn3/HxXf/fGY4WeaOfsy+NlbmSLhZ1KxL4OfvZUpEn4mFfsy+NlbmSLhZ1KxL4OfvZUpEn4mFfuy0H5IONnPVWbkM9MX0L+nPhXVj/3G5rT9FzfJjOUrbv759blR/TYHbUC7T9mGHrz42VwJpxsm/YcWv7WMdjppC9ruqI0zX7MzK8qccLrv3Hn01F9fjQ6fk02b77M+jdhjXXru9tfpru+1RuUb7TqENvvEUNr20xt2JlOP6RsJp/qp1G4UnmwR+oSfHEvttu8Eke/+eLzwq501t334uXnVRsOvVsRtH35uXrXR8KsVcduHn5tXbTT8akXc9uHn5lUbDb9aEbf90H5IOLnNlzF62Xsf0nWfuDeq065S+s+PnqHWG1+JYvf95Udpg53WiZJGS99ZTqv3X43W3LC/8TVMhUg4mVRWlf3jmEfojcfeoy32H0Yf+7+GasXsXz5Pc6+aT30HrU5HNO9eLceGLoCEk24kRYQ+4Utj850g8t0fjx1+0gzqdfDTjaQI+Ek6eh38dCMpAn6Sjl4HP91IioCfpKPXwU83kiLgJ+nodaH9kHDS58gq4q7vt9Jzt70exR70552M9ydKfp2Ov8b1mem7UJ/V+lj1z0HcfkklMTVgSF+iSrPOTDi1r2inxW8uq9yXanXqu9bqmWP0cYXTkreXVxyI+g1eI/N18lTECSe+b9O4U7esdvHwpc/To1fPj76KeOCfxlbLTRsfLl3B1LRav8oAHR5LFi2ruK1Bq61hP78O3QcLRcKpGH3oE740et8JIt/98djhJ82gXgc/3UiKgJ+ko9fBTzeSIuAn6eh18NONpAj4STp6Hfx0IykCfpKOXhfaDwknfY6sIl6+5y2685THotgxX9+cPvql+q/VJb9Ot8OXN6XRx28Wxbfe+Co9f8dCWmeLgbTr5K2jsjefeI/u+cHT1Gf1PjTpNzvQ7Mp9nh679qWo7qPHbEovVe5P9NbT70f7fKXOWiMG0KijR0Q3HZ9z5Yv0wr/eoPVGrUV7nLVNFJP8Y84Vlfo736ANdl677r5LL939VvQ6rz208p5UcTu+mfnII0fQeh9ZMy6KnnMnnC4aRW9Xbtj99F9fo3de+CDqa9DwftRw6EaVryRuHB13/EKux/P0za/Rs/94neJjYB++qfmQbQbRoqfb6O1n26Kryrh/vsJswHp96ePTPhK/HC1fvILm/OYFevmeRVXjYaPXphG7DaFRla8u8s3h48eK5e0048v/jZKBe01toDdb36P7L3gmukfXhPNH0qaNQ+PQHvGMhFOxaQx9wpdG7ztB5Ls/Hjv8pBnU6+CnG0kR8JN09Dr46UZSBPwkHb0OfrqRFAE/SUevg59uJEXAT9LR60L7IeGkz5FVBCcert935c3A+Sbepitnkl+n43qO44fpHk7J5FTDZzasfA1v5b2IOJ7vRzTv1gW8mXrsdGLlXk5Hb0z3nvt0lMjhJMn+l+2QiuGde6dV6itJGb6f0d4Xb1etf+W+RfSvkx6t7ps2PnnVaBpaSWTFj7wJJ04CxTdOj/uKn4ePWZv2+cVHq1cHuR7P7MoVTHMrVzDVPjaqJIz4GGsfyZuGv/viB9TyrSeipFRtHO+v/9HB1HjBqChJxfsrKldA/eHj9/Am1c4TEk4RS+YfvhMSnd0f/xodP5qbmzOPSasIfcKXxtfZftJr29bBz1bKHAc/s4ttKfxspcxx8DO72JbCz1bKHAc/s4ttKfxspcxx8DO72JbCz1bKHBfaDwkn87zkKn3okufosd+vvAopmVDizpJfp1vvI2vRAdeMrr6GlnDiQE6K8E3G19p4AG28xxBa9sEK+sf/PhIlbUZ9fkR002u+Uoe/luaaoOH+l3/wId14wP1Rf5yo2uO729DgzQZS24IlUZLm3h8+zWHRGPhG5/Ejb8KJ2/Ox7HrGVtGVWG2vLaGHfvZc9df+djtza9r2kJU38nY9Hv6KHn+ljX+hjq+e4huCs9Hqla/F8VfkHv3dSzTvlteihB8nhVbr2ye6Qqx9BdGMY1fe94nHt9t3tqZN9lovMpl/15vE88uPZCIvmXCKKit/cOJpSOUXBzfec12ne3LF7cv83FuvcOJkE/8ine2v0WXNYegTfta4uBwJJ0lHr4OfbiRFwE/S0evgpxtJEfCTdPQ6+OlGUgT8JB29Dn66kRQBP0lHr4OfbtSnra2t8mP1XfcYNGjlVT1H37dX171oF70Sfw1u+pceiV6Nvy7HX5uLH8krc0dcMQAAID5JREFUlnb51lb0kcM2iqvUK5w4MTPpNztWr6qJG2bdw8k1QcP9vfnk+zT9i7Ojrj/528pVTNutuoqJC/nrgvy1QS7n+viRN+HEVzgdfNPOUSIt7uvDJSvoliMfpvdeWhyVHzZj16gqz/Fww/geTsmvL3J5fA8nvlpp0hU7clH0eO6fC+mus56Mtvf+yXY0opIwSj6evP4Vuv/CZ6KiA6/bKfoKZG3CifvjfnvqI044Vc4bPfUQ645r0qRJNGvWLBo/fjzNmDGjrt6loLW1lRoaVt3A3qUtYongV2wVwA9+xQSKtcb6g18xgWKtsf7gV0ygWGusP/gVEyjWOvT6Q8Kp2PzVtb758Ieiq2rWrlwddND1O1Xrk1+nO+wfu6aSR9oVTh875yO0xb7rV/uKN3wmnPjrbW8+/l50M/INxq4TPcevs7xSN3PyE/TKfxZV7uGUvjorb8Jp9FcrCbljVyXk4td68oZKUqdyDyR+cMKJr+zqqoRTy7cep/mz3qxLqsVj46umrt//P9FufJ+uZMKp4dANq/fgitv0tOfelnDymWzitRD6hN/d1yP8is0g/OBXTKBYa6w/+BUTKNYa6w9+xQSKtcb6g18xgWKtQ68/fKWu2PzVteav1MVfvfqf34+NblSd/DrdJh9fjxovHJVqpyWcDr5xZxq8yYBUG97xmXCKO1/23of0yv2LonsYvf/KEnp3/mLiK7fi+y35SjhN+FHlhtoT6m+ovfDRd6ObcPN44vtFdVXC6a+HPhhdXcVXlJkSfDymuVetvDcUf02Pv3KXTDjtefa2tNUBwzmsxz7ihFN7e/ELI8t+CSqPb9q0aXT33XcXum9TcjHgK3VJDfdt+LmbJVvAL6nhvg0/d7NkC/glNdy34edulmwBv6SG+zb83M2SLeCX1HDfhp+7WbJFaD8knJKz4WH7/VeX0F8OfiDqKb6KJ/l1uvHnjqTN9k4nWrSEU+0VUfEw8yac7vp+Kz132+t1Nw1vrVxd9PAvnq8ml+LXST77SjjtV7mZ+fDKvaJqH5zg+ttnHoyKP3HJ9sQ3+tYSTlnH4/KVOk4K/n7Pf9cOJ3N/i/2H0cf+ryGVcBp/XmVuJ6bnNrODblrR2xJOPE0DBw70NluhT/jSgZQ9Achjh580g3od/HQjKQJ+ko5eBz/dSIqAn6Sj18FPN5Ii4Cfp6HXw042kCPhJOnpdaD8knPQ5co644xtzo5tf85Uyn67cpyj+Oh3ft+gzla/TrTFgtVSfXZ1wmv7FRyr3bHovlXB6ZvoC+vfUp6Jx8dfYOHEybMe1oxt7D9lqED16zfzol998JZz2mtpAW04alnLgnTcqVzj948v/jcoP/GPll/wqr60lnEzHwx24JJyocsHOtbvfHb3uupUbfo86ekS0nfXH4I0HVnwGI+GUBWRRXvYEh+/xMUnoE740Lb6P13d/8JNmz64O68/OKSsKflkyduXws3PKioJfloxdOfzsnLKi4JclY1cOPzunrCj4ZcnYlYf2Q8LJbp6cop75RyV507QyecNfC7vj63Ojq4bir2HVdtZZCafa5FD0uonEyog91qW9L94uKo7vxTRoeD/61LVjqf86a6SGyTfT5ptq1/YZtxt5xEY07rStUm3qdhKvzfdv4ivAah/zbl1A9/xgpd3nmnenNSpJujjhVPvaUdtEn8nj4TqnhFMlPk5cscGhN++Suo9V9FqVPxbNa6MVy9tpzQ36Uf8hfZFwimFyPPtOSJS9PyYKfcKXpgl+ko5eBz/dSIqAn6Sj18FPN5Ii4Cfp6HXw042kCPhJOnod/HQjKQJ+ko5eBz/dCAkn3cg5Ytn7H9J1e98bteOrZd56+v1oe79fV75GNqb+a2S+E05zrniRHrnsheg1j/r3ntRn9T7VY3jlvkX0r5MejfaTCZr463mbNg6lCeePrMbzxvIPPqQbD7g/SprVJn3yJpz4puoH/G5M3dVeM479Ly2c+27qxt15jofH7Zpwunfa0/T0za9xU4rvvxXtdPyR/BXC+KuRyXs44St1SS19u2wn6KamJuL/4ofv8XG/SDjFuvme4ZfPLW4Fv1gi3zP88rnFreAXS+R7hl8+t7gV/GKJfM/wy+cWt4JfLJHvGX753OJWof2QcIpnwvPz3U2t9Ow/Xq/2ylfNHPK3XahP+tt0UX3ehNNNB95PbQuWRl9/42RH/Hjp7reo+bTHot0xJ2xO239xk8p2O73x2Hv0rxMfrd6jKZlwihNH3OiQv42jNTfsH7Xneyrd9b0no7ZcsM6Wg+jAP42N6viPuJ3rFU7cdstPDqNxp24VXU3F91Di+0fxTdf5wTdW5xus8yPP8XA714TTO89/QDd/9iFuShvvtW7lHk0fob5rrR7tcx3/Ut/bz7ZR8quRSDhFPLn+8J3QKdLfxIkTqaWlhc4+++xq0qlIf1kgoU/4WePict/H67s/HiP8WCH/A3757bgl/OBnK4Dzn62UOQ5+ZhfbUvjZSpnj4Gd2sS2Fn62UOa4n+iHhZJ7rwqXJK4m4sx2/sinteFz9V8i4Lm/CKXlFDvez6+StqeHQDWnxW8vob5VfXIt/WY4TJPyI96Odyh/JhFPyq2xcz1ditb2+NPrVNt5PXqnFdXt8b9vol/OKJJy4X37wva7ee2nxyp3Kn5xomvCjUdXkXJ7j4c5cE07cJnk1FbsN3W4tWr54RXTVFdfzI76ZOW8j4cQK+R6+T6h5+4uTTY2Njalfo8vbn6SBD6ySjl4HP91IioCfpKPXwU83kiLgJ+nodfDTjaQI+Ek6eh38dCMpAn6Sjl4HP91Iigjth4STNDsF6viKnT/vc181yXPQn3eitTc3/9rVQ5c8F13Zk/y62msPvU3/PGFuNILDZuxKfCPv2sfCyg227/peazVZs9OJW9B2R28chS16uo3u+ObcKPkUt+MEyujjN6PlS1bQ7Eufj67imfjjlfdw4ptm89fw5lz5YhwePfPrjjt9K9po1yE089uP04LZ70TlB1w9mtYbuVY0Rh7rqCNH0M6nbJlqW7eTuN/SxItG0aO/e6naXxz7kc9W7gVV6Sf5NUCucz6eSps44VSb7Jv9y+dp7lXzaVjlV/L2r/xaXu3j2Rmv03/On1edu7ier+7a6Zub08YfW3nlFZevWNZOf/jYyl+3m/CjkbTpBPxKXeylPftO6OTpLyvZxGPP0592zKFP+NL4fB+v7/547PCTZlCvg59uJEXAT9LR6+CnG0kR8JN09Dr46UZSBPwkHb0OfrqRFAE/SUevC+2HhJM+R6WO4MQWf91rtX6rRV+DW22NVfdr4oG3vbaE3n7uA+pX+WrY2pWESXy1U9ZBcfybre/Th0tX0NBRa9FaIwakQt96qnI/qspLDKn0VZsUSgVa7ix5e3kl6fR25Wt1fWm9hjWjm4RLTV2PR+pLquOrmt6e9z4tevYDWqP/atFVWOzBx96bH9futvKX/NrbK9nDgg/fCQnX/vgrdJxwqr2yKT4s1/7idtJz6BO+NDbfx+u7Px47/KQZ1OvgpxtJEfCTdPQ6+OlGUgT8JB29Dn66kRQBP0lHr4OfbiRFwE/S0etC+yHhpM8RIiAAgQ6BnpRw4kPim4Tzf6YHEiYmFfsy+NlbmSLhZ1KxL4OfvZUpEn4mFfsy+NlbmSLhZ1KxL4OfvZUpEn4mFfsy+NlbmSJ7oh8STqaZRhkEIGAU6GkJJ+NBdhT2xBN+Vx4v/CRtvQ5+upEUAT9JR6+Dn24kRcBP0tHr4KcbSRHwk3T0OvjpRlIE/CQdva4n+iHhpM87IiAAgQ4BJJyKLYXQl7RKo/f9D5zv/njs8JNmUK+Dn24kRcBP0tHr4KcbSRHwk3T0OvjpRlIE/CQdvQ5+upEUAT9JR68L7YeEkz5HiIAABDoEkHAqthRCn/Cl0ftOEPnuj8cOP2kG9Tr46UZSBPwkHb0OfrqRFAE/SUevg59uJEXAT9LR6+CnG0kR8JN09LrQfkg46XOECAhAoEOguyac+Obg/Ghubu44Ev0JCRPdSIqAn6Sj18FPN5Ii4Cfp6HXw042kCPhJOnod/HQjKQJ+ko5eBz/dSIqAn6Sj1/VEPySc9HlHBAQg0CHQHRNOnGziX6TL+jW6rMntiSf8rGPlct/H67s/HmPo/0PDY8h6+D5e3/3xuOGXNXt25fCzc8qKgl+WjF05/OycsqLglyVjVw4/O6esKPhlydiVw8/OKSsqtB8STlkzg3IIQKBOoLslnPImm/jA8YG/bvqdCuDnxFUXDL86EqcC+Dlx1QXDr47EqQB+Tlx1wfCrI3EqgJ8TV10w/OpInArg58RVF9wT/ZBwqptmFEAAAlkC3SnhVCTZxMffE0/4WfPaGccLP0lbr4OfbiRFwE/S0evgpxtJEfCTdPQ6+OlGUgT8JB29Dn66kRQBP0lHr+uJfkg46fOOCAhAoEOgOyWcmpqaaObMmU73bUpOdE884SePr3bb9/H67o/HG/qS4Fqz5L7v4/XdH/ySs5VvG+svn1vcCn6xRL5n+OVzi1vBL5bI9wy/fG5xK/jFEvme4ZfPLW4V2g8Jp3gm8AwBCKgC3SnhpB6MEoAP/AqQUg0/BUiphp8CpFTDTwFSquGnACnV8FOAlGr4KUBKNfwUIKUafgqQUg0/BUip7ol+fWbPnt2uHLfX6jFjxkT9HX3fXl77RWcQgEDnC8QJp8p5o/NfDK8AAQhAAAIQgAAEIAABCEAAAt1WAFc4ddupw8Ah0PUCccKpvb14ntp3Br/s/fFshb6kVVox8JN09Dr46UZSBPwkHb0OfrqRFAE/SUevg59uJEXAT9LR6+CnG0kR8JN09Dr46UZIOOlGiIAABDoEyppw4vs1TZ48ORrlwIEDvcyX739AeFBIOBWbGvjBz1YAf39tpcxx8DO72JbCz1bKHAc/s4ttKfxspcxx8DO72JbCz1bKHNcT/ZBwMs81SiEAAYNAGRNO8a/RTZkyhfg/JJwME2dR5PsfON/98SEg4WQxkUII/AQciyr4WSAJIfATcCyq4GeBJITAT8CxqIKfBZIQAj8Bx6IKfhZIQkhoPySchMlBFQQgkBYoW8IpTjY1NjbS9OnTo8Ei4ZSeM9s93wki3/3xcYT+B1Oy9H28vvuDnzR7dnVYf3ZOWVHwy5KxK4efnVNWFPyyZOzK4WfnlBUFvywZu3L42TllRYX2Q8Ipa2ZQDgEI1AmUKeGUTDY1NzeT7w/ovvtjzNAn/LoJTRT4Pl7f/cEvMVk5N7H+csJ1NIMf/GwFcP6zlTLHwc/sYlsKP1spcxz8zC62pfCzlTLH9UQ/JJzMc41SCEDAIFCWhFNLSwtxwomvbOJkEz98n6B998djxAdWVsj/gF9+O24JP/jZCuD8ZytljoOf2cW2FH62UuY4+JldbEvhZytljoOf2cW2tCf6IeFkO/uIgwAEqCwJJ54KvlE4/xc/fJ+gfffH48QH/ni28j3DL59b3Ap+sUS+Z/jlc4tbwS+WyPcMv3xucSv4xRL5nuGXzy1uBb9YIt8z/PK5xa1C+yHhFM8EniEAAVWgTAmn2sH6ThD57o/HG/qEX2uW3Pd9vL77g19ytvJtY/3lc4tbwS+WyPcMv3xucSv4xRL5nuGXzy1uBb9YIt8z/PK5xa3gF0vkew7th4RTvnlDKwj0SgEknIpNe+gTvjR63wki3/3x2OEnzaBeBz/dSIqAn6Sj18FPN5Ii4Cfp6HXw042kCPhJOnod/HQjKQJ+ko5eF9oPCSd9jhABAQh0CCDhVGwphD7hS6P3nSDy3R+PHX7SDOp18NONpAj4STp6Hfx0IykCfpKOXgc/3UiKgJ+ko9fBTzeSIuAn6eh1of2QcNLnCBEQgECHQIiEE98cnB/xzcE7hlL35DvB4bs/HnDoE34dWqLA9/H67g9+icnKuYn1lxOuoxn84GcrgPOfrZQ5Dn5mF9tS+NlKmePgZ3axLYWfrZQ5rif6IeFknmuUQgACBoGuTjhxsol/kS75a3SGYUVFvk/QvvvjQeIDa9bs2ZXDz84pKwp+WTJ25fCzc8qKgl+WjF05/OycsqLglyVjVw4/O6esKPhlydiVw8/OKSsqtB8STlkzg3IIQKBOoCsTTi7JJh6o7wSR7/54jKFP+DyGrIfv4/XdH48bflmzZ1cOPzunrCj4ZcnYlcPPzikrCn5ZMnbl8LNzyoqCX5aMXTn87JyyouCXJWNXHtoPCSe7eUIUBCBQEeiqhJNrsoknx3eCw3d/PMbQJ3weQ9bD9/H67o/HDb+s2bMrh5+dU1YU/LJk7MrhZ+eUFQW/LBm7cvjZOWVFwS9Lxq4cfnZOWVHwy5KxKw/th4ST3TwhCgIQqAh0VcKpqamJZs6cqd63KTkpvhMcvvvjsYY+4Se9ard9H6/v/uBXO2Pu+1h/7mbJFvBLarhvw8/dLNkCfkkN9234uZslW8AvqeG+DT93s2QL+CU13LdD+yHh5D5naAGBXivQVQmnPMC+Exy+++NjCn3Cl1x9H6/v/uAnzZ5dHdafnVNWFPyyZOzK4WfnlBUFvywZu3L42TllRcEvS8auHH52TllR8MuSsSsP7YeEk908IQoCEKgIIOFUbBmEPuFLo/edIPLdH48dftIM6nXw042kCPhJOnod/HQjKQJ+ko5eBz/dSIqAn6Sj18FPN5Ii4Cfp6HWh/ZBw0ucIERCAQIcAEk7FlkLoE740et8JIt/98djhJ82gXgc/3UiKgJ+ko9fBTzeSIuAn6eh18NONpAj4STp6Hfx0IykCfpKOXhfar09bW1u7Pkx/EYMGDYo6O/q+vfx1ip4gAIEuEYgTTpXzhrfXmzZtGk2ZMsVbf2XuqLW1lRoaGso8xFKPDX7Fpgd+8CsmUKw11h/8igkUa431B79iAsVaY/3Br5hAsdah1x8STsXmD60h0KsEfCecJk2aRLNmzYoSTr0h6RT6hN/dFyv8is0g/OBXTKBYa6w/+BUTKNYa6w9+xQSKtcb6g18xgWKtQ68/fKWu2PyhNQR6lUCccGpvL35h5IQJE6JkU2Njo9Ov0WWB+/4Kl+/+eNyhL2nNsuNy38fruz8eI/xYIf8DfvntuCX84GcrgPOfrZQ5Dn5mF9tS+NlKmePgZ3axLYWfrZQ5rif6IeFknmuUQgACBgFfCaeJEydSS0sLjR8/nmbOnGl4Jfci3ydo3/3xEeEDq/u8JlvAL6nhvg0/d7NkC/glNdy34edulmwBv6SG+zb83M2SLeCX1HDfhp+7WbIF/JIa7tuh/ZBwcp8ztIBArxXwkXDiRBMnnDjZNGPGDBo4cKAXT98JIt/98UGGPuFL0L6P13d/8JNmz64O68/OKSsKflkyduXws3PKioJfloxdOfzsnLKi4JclY1cOPzunrCj4ZcnYlYf2Q8LJbp4QBQEIVAR8JJwYsqmpiSZPnhyZIuEUMTj/4TuhU/b+GCj0P5jSJMFP0tHr4KcbSRHwk3T0OvjpRlIE/CQdvQ5+upEUAT9JR6+Dn24kRcBP0llZh4STboQICECgQ8BXwom7K/sJ2vf4+JiRMGGF/A/45bfjlvCDn60Azn+2UuY4+JldbEvhZytljoOf2cW2FH62UuY4+JldbEt7oh8STrazjzgIQMDbFU5M6fuEWvb++JjxgZ8V8j/gl9+OW8IPfrYCvs+nWH+28tlx+PubbWNTAz8bpewY+GXb2NTAz0YpOwZ+2TY2NaH9kHCymSXEQAACkQCucCq2EEKf8KXR+/6A6bs/Hjv8pBnU6+CnG0kR8JN09Dr46UZSBPwkHb0OfrqRFAE/SUevg59uJEXAT9LR60L7IeGkzxEiIACBDgHXhBPfHJwfzc3NHT2sevKdkCh7f3zkoU/4q/Trt+BXb+JSAj8XrfpY+NWbuJTAz0WrPhZ+9SYuJfBz0aqPhV+9iUsJ/Fy06mPhV2/iUgI/XQsJJ90IERCAQIeAS8KJk038i3SNjY1IOHX4IeFU7K8S/OBnK+D7DSC/Ltafrb45Dn5mF9tS+NlKmePgZ3axLYWfrZQ5Dn5mF9tS+NlKmeNC+yHhZJ4XlEIAAgYB24STlmzirn1/ICx7f3zMoU/4PIasB/yyZOzK4WfnlBUFvywZu3L42TllRcEvS8auHH52TllR8MuSsSuHn51TVhT8smTsyuGnOyHhpBshAgIQ6BCwSTjZJJu4u7KfoH2Pj48ZCSdWyP+AX347bgk/+NkK4PxnK2WOg5/ZxbYUfrZS5jj4mV1sS+FnK2WOg5/Zxba0J/oh4WQ7+4iDAASsfqWuqamJZs6cafwaXZLQ9wm17P3xseMDf3IFuG/Dz90s2QJ+SQ33bfi5myVbwC+p4b4NP3ezZAv4JTXct+HnbpZsAb+khvs2/NzNki1C+yHhlJwNbEMAAqKAzRVOYgeJyrIniHyPjw899Ak/wV+36ft4ffcHv7opcy7A+nMmSzWAX4rDeQd+zmSpBvBLcTjvwM+ZLNUAfikO5x34OZOlGsAvxeG8E9oPCSfnKUMDCPReASScis196BO+NHrfCSLf/fHY4SfNoF4HP91IioCfpKPXwU83kiLgJ+nodfDTjaQI+Ek6eh38dCMpAn6Sjl4X2g8JJ32OEAEBCHQIIOFUbCmEPuFLo/edIPLdH48dftIM6nXw042kCPhJOnod/HQjKQJ+ko5eBz/dSIqAn6Sj18FPN5Ii4Cfp6HWh/ZBw0ucIERCAQIdAbcKJ79fE/+V5+E5IlL0/Ngp9wpfmCX6Sjl4HP91IioCfpKPXwU83kiLgJ+nodfDTjaQI+Ek6eh38dCMpAn6Sjl4HP90ICSfdCBEQgECHQDLhFP8a3dlnn50r6VT2E7Tv8TEhEk7F/irBD362Avj7aytljoOf2cW2FH62UuY4+JldbEvhZytljoOf2cW2FH62Uua4nuiHhJN5rlEKAQgYBOKEU2NjI7W0tBA/Nzc3GyL1It8n1LL3xyJImOjrQoqAn6Sj18FPN5Ii4Cfp6HXw042kCPhJOnod/HQjKQJ+ko5eBz/dSIqAn6Sj14X269PW1tauD9NfxKBBg6LOjr5vL3+doicIQKBLBOKEE7/Y+PHjacaMGV3yuj3lRVpbW6mhoaGnHE6XHwf8ipHDD37FBIq1xvqDXzGBYq2x/uBXTKBYa6w/+BUTKNY69PoLlnAqxobWEIBASAEkm/Lphz7h5xt1eVrBr9hcwA9+xQSKtcb6g18xgWKtsf7gV0ygWGusP/gVEyjWOvT6C/aVumJsaA0BCIQUaG8vfmFk2b8C53t8PF+hL2mV1ozv4/XdH/yk2bOrw/qzc8qKgl+WjF05/OycsqLglyVjVw4/O6esKPhlydiVw8/OKSsKflkyduWh/bo84RT6gKVp8f0ByXd/PHb4STOo18FPN5Ii4Cfp6HXw042kCPhJOnod/HQjKQJ+ko5eBz/dSIqAn6Sj18FPN5Ii4Cfp6HXw042kCPhJOnpdaD8knBJz5DtB5Ls/HmroBZPgqtv0fby++4Nf3ZQ5F2D9OZOlGsAvxeG8Az9nslQD+KU4nHfg50yWagC/FIfzDvycyVIN4JficN6BnzNZqgH8UhzOO/BzJks1CO2HhFNiOnwnOHz3x0MNvWASXHWbvo/Xd3/wq5sy5wKsP2eyVAP4pTicd+DnTJZqAL8Uh/MO/JzJUg3gl+Jw3oGfM1mqAfxSHM478HMmSzWAX4rDeQd+zmSpBqH9kHBKTIfvBIfv/niooRdMgqtu0/fx+u4PfnVT5lyA9edMlmoAvxSH8w78nMlSDeCX4nDegZ8zWaoB/FIczjvwcyZLNYBfisN5B37OZKkG8EtxOO/Az5ks1SC0HxJOienwneDw3R8PNfSCSXDVbfo+Xt/9wa9uypwLsP6cyVIN4JficN6BnzNZqgH8UhzOO/BzJks1gF+Kw3kHfs5kqQbwS3E478DPmSzVAH4pDucd+DmTpRqE9kPCKTEdvhMcvvvjoYZeMAmuuk3fx+u7P/jVTZlzAdafM1mqAfxSHM478HMmSzWAX4rDeQd+zmSpBvBLcTjvwM+ZLNUAfikO5x34OZOlGsAvxeG8Az9nslSD0H5IOCWmw3eCw3d/PNTQCybBVbfp+3h99we/uilzLsD6cyZLNYBfisN5B37OZKkG8EtxOO/Az5ks1QB+KQ7nHfg5k6UawC/F4bwDP2eyVAP4pTicd+DnTJZqENoPCafEdPhOcPjuj4caesEkuOo2fR+v7/7gVzdlzgVYf85kqQbwS3E478DPmSzVAH4pDucd+DmTpRrAL8XhvAM/Z7JUA/ilOJx34OdMlmoAvxSH8w78nMlSDUL7IeGUmA7fCQ7f/fFQQy+YBFfdpu/j9d0f/OqmzLkA68+ZLNUAfikO5x34OZOlGsAvxeG8Az9nslQD+KU4nHfg50yWagC/FIfzDvycyVIN4JficN6BnzNZqkFoPyScEtPhO8Hhuz8eaugFk+Cq2/R9vL77g1/dlDkXYP05k6UawC/F4bwDP2eyVAP4pTicd+DnTJZqAL8Uh/MO/JzJUg3gl+Jw3oGfM1mqAfxSHM478HMmSzUI7YeEU2I6fCc4fPfHQw29YBJcdZu+j9d3f/CrmzLnAqw/Z7JUA/ilOJx34OdMlmoAvxSH8w78nMlSDeCX4nDegZ8zWaoB/FIczjvwcyZLNYBfisN5B37OZKkGof2QcEpMh+8Eh+/+eKihF0yCq27T9/H67g9+dVPmXID150yWagC/FIfzDvycyVIN4JficN6BnzNZqgH8UhzOO/BzJks1gF+Kw3kHfs5kqQbwS3E478DPmSzVILQfEk6J6fCd4PDdHw819IJJcNVt+j5e3/3Br27KnAuw/pzJUg3gl+Jw3oGfM1mqAfxSHM478HMmSzWAX4rDeQd+zmSpBvBLcTjvwM+ZLNUAfikO5x34OZOlGoT2Q8IpMR2+Exy+++Ohhl4wCa66Td/H67s/+NVNmXMB1p8zWaoB/FIczjvwcyZLNYBfisN5B37OZKkG8EtxOO/Az5ks1QB+KQ7nHfg5k6UawC/F4bwDP2eyVIPQfv8fHkvhBAsrcDsAAAAASUVORK5CYII=;" parent="1" vertex="1">
          <mxGeometry x="90" y="1040" width="684" height="236.5" as="geometry" />
        </mxCell>
        <mxCell id="-9ssT2rK5xwqoReyMbJT-15" value="Virtual buffer" style="rounded=0;whiteSpace=wrap;html=1;fillColor=#00CC00;" parent="1" vertex="1">
          <mxGeometry x="251" y="380" width="120" height="40" as="geometry" />
        </mxCell>
        <mxCell id="-9ssT2rK5xwqoReyMbJT-16" value="Physical&lt;br&gt;Buffer" style="rounded=1;whiteSpace=wrap;html=1;fillColor=#00CC00;" parent="1" vertex="1">
          <mxGeometry x="451" y="380" width="120" height="60" as="geometry" />
        </mxCell>
        <mxCell id="-9ssT2rK5xwqoReyMbJT-17" value="" style="endArrow=none;dashed=1;html=1;rounded=0;entryX=0;entryY=0;entryDx=0;entryDy=0;" parent="1" edge="1">
          <mxGeometry width="50" height="50" relative="1" as="geometry">
            <mxPoint x="371" y="381" as="sourcePoint" />
            <mxPoint x="451" y="381" as="targetPoint" />
          </mxGeometry>
        </mxCell>
        <mxCell id="-9ssT2rK5xwqoReyMbJT-18" value="" style="endArrow=none;dashed=1;html=1;rounded=0;entryX=0;entryY=0;entryDx=0;entryDy=0;" parent="1" edge="1">
          <mxGeometry width="50" height="50" relative="1" as="geometry">
            <mxPoint x="371" y="419" as="sourcePoint" />
            <mxPoint x="451" y="419" as="targetPoint" />
          </mxGeometry>
        </mxCell>
        <mxCell id="-9ssT2rK5xwqoReyMbJT-19" value="Virtual buffer" style="rounded=0;whiteSpace=wrap;html=1;fillColor=#00CC00;" parent="1" vertex="1">
          <mxGeometry x="251" y="420" width="120" height="40" as="geometry" />
        </mxCell>
        <mxCell id="-9ssT2rK5xwqoReyMbJT-20" value="" style="endArrow=none;dashed=1;html=1;rounded=0;exitX=1;exitY=1;exitDx=0;exitDy=0;" parent="1" source="-9ssT2rK5xwqoReyMbJT-19" edge="1">
          <mxGeometry width="50" height="50" relative="1" as="geometry">
            <mxPoint x="401" y="490" as="sourcePoint" />
            <mxPoint x="451" y="440" as="targetPoint" />
          </mxGeometry>
        </mxCell>
        <mxCell id="-9ssT2rK5xwqoReyMbJT-21" value="" style="endArrow=none;dashed=1;html=1;rounded=0;entryX=0;entryY=0.25;entryDx=0;entryDy=0;" parent="1" target="-9ssT2rK5xwqoReyMbJT-16" edge="1">
          <mxGeometry width="50" height="50" relative="1" as="geometry">
            <mxPoint x="371" y="420" as="sourcePoint" />
            <mxPoint x="421" y="370" as="targetPoint" />
          </mxGeometry>
        </mxCell>
        <mxCell id="-9ssT2rK5xwqoReyMbJT-22" value="buf1 Alloca_Byte&lt;br&gt;Range[0-100)" style="shape=process;whiteSpace=wrap;html=1;backgroundOutline=1;fillColor=#D5E8D4;" parent="1" vertex="1">
          <mxGeometry x="1" y="160" width="180" height="60" as="geometry" />
        </mxCell>
        <mxCell id="-9ssT2rK5xwqoReyMbJT-23" value="buf2 Alloca_Byte&lt;br&gt;Range[200-300)" style="shape=process;whiteSpace=wrap;html=1;backgroundOutline=1;fillColor=#D5E8D4;" parent="1" vertex="1">
          <mxGeometry x="1" y="280" width="180" height="60" as="geometry" />
        </mxCell>
        <mxCell id="-9ssT2rK5xwqoReyMbJT-24" value="buf1 Alloca_Byte&lt;br&gt;Range[100-200)" style="shape=process;whiteSpace=wrap;html=1;backgroundOutline=1;fillColor=#D5E8D4;" parent="1" vertex="1">
          <mxGeometry x="1" y="220" width="180" height="60" as="geometry" />
        </mxCell>
        <mxCell id="tH42qiCXYa5T8Ztv62dy-1" value="" style="endArrow=classic;html=1;rounded=0;entryX=0;entryY=0.5;entryDx=0;entryDy=0;" parent="1" target="-9ssT2rK5xwqoReyMbJT-1" edge="1">
          <mxGeometry width="50" height="50" relative="1" as="geometry">
            <mxPoint x="181" y="190" as="sourcePoint" />
            <mxPoint x="231" y="140" as="targetPoint" />
          </mxGeometry>
        </mxCell>
        <mxCell id="tH42qiCXYa5T8Ztv62dy-2" value="" style="endArrow=classic;html=1;rounded=0;entryX=0;entryY=0.5;entryDx=0;entryDy=0;exitX=1;exitY=0.5;exitDx=0;exitDy=0;" parent="1" source="-9ssT2rK5xwqoReyMbJT-24" target="-9ssT2rK5xwqoReyMbJT-10" edge="1">
          <mxGeometry width="50" height="50" relative="1" as="geometry">
            <mxPoint x="191" y="200" as="sourcePoint" />
            <mxPoint x="261" y="200" as="targetPoint" />
          </mxGeometry>
        </mxCell>
        <mxCell id="tH42qiCXYa5T8Ztv62dy-3" value="" style="endArrow=classic;html=1;rounded=0;entryX=0;entryY=0.5;entryDx=0;entryDy=0;exitX=1;exitY=0.5;exitDx=0;exitDy=0;" parent="1" edge="1">
          <mxGeometry width="50" height="50" relative="1" as="geometry">
            <mxPoint x="181" y="309.5" as="sourcePoint" />
            <mxPoint x="251" y="309.5" as="targetPoint" />
          </mxGeometry>
        </mxCell>
        <mxCell id="tH42qiCXYa5T8Ztv62dy-4" value="buf1 Alloca_Byte&lt;br&gt;Range[0-50)" style="shape=process;whiteSpace=wrap;html=1;backgroundOutline=1;fillColor=#D5E8D4;" parent="1" vertex="1">
          <mxGeometry x="1" y="380" width="180" height="40" as="geometry" />
        </mxCell>
        <mxCell id="tH42qiCXYa5T8Ztv62dy-5" value="buf2 Alloca_Byte&lt;br&gt;Range[60-100)" style="shape=process;whiteSpace=wrap;html=1;backgroundOutline=1;fillColor=#D5E8D4;" parent="1" vertex="1">
          <mxGeometry x="1" y="420" width="180" height="40" as="geometry" />
        </mxCell>
        <mxCell id="tH42qiCXYa5T8Ztv62dy-6" value="buf1 Alloca_Byte&lt;br&gt;Range[0-50)" style="shape=process;whiteSpace=wrap;html=1;backgroundOutline=1;fillColor=#D5E8D4;" parent="1" vertex="1">
          <mxGeometry x="1" y="520" width="180" height="40" as="geometry" />
        </mxCell>
        <mxCell id="tH42qiCXYa5T8Ztv62dy-7" value="buf2 Alloca_Byte&lt;br&gt;Range[30-100)" style="shape=process;whiteSpace=wrap;html=1;backgroundOutline=1;fillColor=#D5E8D4;" parent="1" vertex="1">
          <mxGeometry x="1" y="560" width="180" height="40" as="geometry" />
        </mxCell>
        <mxCell id="tH42qiCXYa5T8Ztv62dy-8" value="Virtual buffer" style="rounded=0;whiteSpace=wrap;html=1;fillColor=#00CC00;" parent="1" vertex="1">
          <mxGeometry x="271" y="520" width="120" height="40" as="geometry" />
        </mxCell>
        <mxCell id="tH42qiCXYa5T8Ztv62dy-10" value="Physical&lt;br&gt;Buffer" style="rounded=1;whiteSpace=wrap;html=1;fillColor=#00CC00;" parent="1" vertex="1">
          <mxGeometry x="471" y="520" width="120" height="60" as="geometry" />
        </mxCell>
        <mxCell id="tH42qiCXYa5T8Ztv62dy-11" value="" style="endArrow=classic;html=1;rounded=0;entryX=0;entryY=0.5;entryDx=0;entryDy=0;exitX=1;exitY=0.5;exitDx=0;exitDy=0;" parent="1" edge="1">
          <mxGeometry width="50" height="50" relative="1" as="geometry">
            <mxPoint x="181" y="399.5" as="sourcePoint" />
            <mxPoint x="251" y="399.5" as="targetPoint" />
          </mxGeometry>
        </mxCell>
        <mxCell id="tH42qiCXYa5T8Ztv62dy-12" value="" style="endArrow=classic;html=1;rounded=0;entryX=0;entryY=0.5;entryDx=0;entryDy=0;exitX=1;exitY=0.5;exitDx=0;exitDy=0;" parent="1" source="tH42qiCXYa5T8Ztv62dy-5" target="-9ssT2rK5xwqoReyMbJT-19" edge="1">
          <mxGeometry width="50" height="50" relative="1" as="geometry">
            <mxPoint x="191" y="409.5" as="sourcePoint" />
            <mxPoint x="261" y="409.5" as="targetPoint" />
          </mxGeometry>
        </mxCell>
        <mxCell id="tH42qiCXYa5T8Ztv62dy-13" value="" style="endArrow=classic;html=1;rounded=0;entryX=0;entryY=0.5;entryDx=0;entryDy=0;exitX=1;exitY=0.5;exitDx=0;exitDy=0;" parent="1" target="tH42qiCXYa5T8Ztv62dy-8" edge="1">
          <mxGeometry width="50" height="50" relative="1" as="geometry">
            <mxPoint x="181" y="539.5" as="sourcePoint" />
            <mxPoint x="251" y="539.5" as="targetPoint" />
          </mxGeometry>
        </mxCell>
        <mxCell id="tH42qiCXYa5T8Ztv62dy-14" value="" style="endArrow=classic;html=1;rounded=0;entryX=0;entryY=0.5;entryDx=0;entryDy=0;exitX=1;exitY=0.5;exitDx=0;exitDy=0;" parent="1" edge="1">
          <mxGeometry width="50" height="50" relative="1" as="geometry">
            <mxPoint x="181" y="579" as="sourcePoint" />
            <mxPoint x="271" y="579.5" as="targetPoint" />
          </mxGeometry>
        </mxCell>
        <mxCell id="tH42qiCXYa5T8Ztv62dy-15" value="" style="endArrow=none;dashed=1;html=1;rounded=0;entryX=0;entryY=0;entryDx=0;entryDy=0;" parent="1" edge="1">
          <mxGeometry width="50" height="50" relative="1" as="geometry">
            <mxPoint x="391" y="519" as="sourcePoint" />
            <mxPoint x="471" y="519" as="targetPoint" />
          </mxGeometry>
        </mxCell>
        <mxCell id="tH42qiCXYa5T8Ztv62dy-16" value="" style="endArrow=none;dashed=1;html=1;rounded=0;entryX=0;entryY=0;entryDx=0;entryDy=0;" parent="1" edge="1">
          <mxGeometry width="50" height="50" relative="1" as="geometry">
            <mxPoint x="391" y="559" as="sourcePoint" />
            <mxPoint x="471" y="559" as="targetPoint" />
          </mxGeometry>
        </mxCell>
        <mxCell id="tH42qiCXYa5T8Ztv62dy-17" value="" style="endArrow=none;dashed=1;html=1;rounded=0;exitX=1;exitY=0.5;exitDx=0;exitDy=0;" parent="1" edge="1">
          <mxGeometry width="50" height="50" relative="1" as="geometry">
            <mxPoint x="391" y="580" as="sourcePoint" />
            <mxPoint x="471" y="560" as="targetPoint" />
          </mxGeometry>
        </mxCell>
        <mxCell id="tH42qiCXYa5T8Ztv62dy-18" value="" style="endArrow=none;dashed=1;html=1;rounded=0;exitX=1;exitY=1;exitDx=0;exitDy=0;entryX=0.1;entryY=0.983;entryDx=0;entryDy=0;entryPerimeter=0;" parent="1" target="tH42qiCXYa5T8Ztv62dy-10" edge="1">
          <mxGeometry width="50" height="50" relative="1" as="geometry">
            <mxPoint x="391" y="600" as="sourcePoint" />
            <mxPoint x="471" y="580" as="targetPoint" />
          </mxGeometry>
        </mxCell>
        <mxCell id="tH42qiCXYa5T8Ztv62dy-19" value="External&lt;br&gt;Memory" style="rounded=1;whiteSpace=wrap;html=1;fillColor=#66FFFF;" parent="1" vertex="1">
          <mxGeometry x="631" y="520" width="120" height="120" as="geometry" />
        </mxCell>
        <mxCell id="tH42qiCXYa5T8Ztv62dy-24" value="Virtual buffer" style="rounded=0;whiteSpace=wrap;html=1;fillColor=#33FFFF;" parent="1" vertex="1">
          <mxGeometry x="271" y="560" width="120" height="20" as="geometry" />
        </mxCell>
        <mxCell id="tH42qiCXYa5T8Ztv62dy-25" value="Virtual buffer" style="rounded=0;whiteSpace=wrap;html=1;fillColor=#00CC00;" parent="1" vertex="1">
          <mxGeometry x="271" y="580" width="120" height="20" as="geometry" />
        </mxCell>
        <mxCell id="tH42qiCXYa5T8Ztv62dy-27" value="" style="endArrow=none;dashed=1;html=1;dashPattern=1 3;strokeWidth=2;rounded=0;exitX=1;exitY=0.25;exitDx=0;exitDy=0;entryX=0;entryY=0.5;entryDx=0;entryDy=0;" parent="1" edge="1">
          <mxGeometry width="50" height="50" relative="1" as="geometry">
            <mxPoint x="391" y="580" as="sourcePoint" />
            <mxPoint x="631" y="575" as="targetPoint" />
          </mxGeometry>
        </mxCell>
        <mxCell id="tH42qiCXYa5T8Ztv62dy-28" value="" style="endArrow=none;dashed=1;html=1;dashPattern=1 3;strokeWidth=2;rounded=0;exitX=1;exitY=0;exitDx=0;exitDy=0;entryX=-0.033;entryY=0.325;entryDx=0;entryDy=0;entryPerimeter=0;" parent="1" source="tH42qiCXYa5T8Ztv62dy-24" target="tH42qiCXYa5T8Ztv62dy-19" edge="1">
          <mxGeometry width="50" height="50" relative="1" as="geometry">
            <mxPoint x="481" y="700" as="sourcePoint" />
            <mxPoint x="531" y="650" as="targetPoint" />
          </mxGeometry>
        </mxCell>
        <mxCell id="kxSxvclWyrKh4D3Jm02d-1" value="Virtual buffer" style="rounded=0;whiteSpace=wrap;html=1;fillColor=#00CC00;" vertex="1" parent="1">
          <mxGeometry x="251" y="680" width="120" height="60" as="geometry" />
        </mxCell>
        <mxCell id="kxSxvclWyrKh4D3Jm02d-2" value="Virtual buffer" style="rounded=0;whiteSpace=wrap;html=1;fillColor=#00FFFF;" vertex="1" parent="1">
          <mxGeometry x="251" y="800" width="120" height="60" as="geometry" />
        </mxCell>
        <mxCell id="kxSxvclWyrKh4D3Jm02d-3" value="Virtual&lt;br&gt;buffer" style="rounded=0;whiteSpace=wrap;html=1;fillColor=#66FFFF;" vertex="1" parent="1">
          <mxGeometry x="251" y="740" width="120" height="60" as="geometry" />
        </mxCell>
        <mxCell id="kxSxvclWyrKh4D3Jm02d-4" value="buf1 Alloca_Byte&lt;br&gt;Range[0-300)" style="shape=process;whiteSpace=wrap;html=1;backgroundOutline=1;fillColor=#D5E8D4;" vertex="1" parent="1">
          <mxGeometry x="1" y="680" width="180" height="60" as="geometry" />
        </mxCell>
        <mxCell id="kxSxvclWyrKh4D3Jm02d-5" value="buf2 Alloca_Byte&lt;br&gt;Range[100-300)" style="shape=process;whiteSpace=wrap;html=1;backgroundOutline=1;fillColor=#D5E8D4;" vertex="1" parent="1">
          <mxGeometry x="1" y="800" width="180" height="60" as="geometry" />
        </mxCell>
        <mxCell id="kxSxvclWyrKh4D3Jm02d-6" value="buf1 Alloca_Byte&lt;br&gt;Range[0-300)" style="shape=process;whiteSpace=wrap;html=1;backgroundOutline=1;fillColor=#D5E8D4;" vertex="1" parent="1">
          <mxGeometry x="1" y="740" width="180" height="60" as="geometry" />
        </mxCell>
        <mxCell id="kxSxvclWyrKh4D3Jm02d-7" value="" style="endArrow=classic;html=1;rounded=0;entryX=0;entryY=0.5;entryDx=0;entryDy=0;" edge="1" parent="1" target="kxSxvclWyrKh4D3Jm02d-1">
          <mxGeometry width="50" height="50" relative="1" as="geometry">
            <mxPoint x="181" y="710" as="sourcePoint" />
            <mxPoint x="231" y="660" as="targetPoint" />
          </mxGeometry>
        </mxCell>
        <mxCell id="kxSxvclWyrKh4D3Jm02d-8" value="" style="endArrow=classic;html=1;rounded=0;entryX=0;entryY=0.5;entryDx=0;entryDy=0;exitX=1;exitY=0.5;exitDx=0;exitDy=0;" edge="1" parent="1" source="kxSxvclWyrKh4D3Jm02d-6" target="kxSxvclWyrKh4D3Jm02d-3">
          <mxGeometry width="50" height="50" relative="1" as="geometry">
            <mxPoint x="191" y="720" as="sourcePoint" />
            <mxPoint x="261" y="720" as="targetPoint" />
          </mxGeometry>
        </mxCell>
        <mxCell id="kxSxvclWyrKh4D3Jm02d-9" value="" style="endArrow=classic;html=1;rounded=0;entryX=0;entryY=0.5;entryDx=0;entryDy=0;exitX=1;exitY=0.5;exitDx=0;exitDy=0;" edge="1" parent="1">
          <mxGeometry width="50" height="50" relative="1" as="geometry">
            <mxPoint x="181" y="829.5" as="sourcePoint" />
            <mxPoint x="251" y="829.5" as="targetPoint" />
          </mxGeometry>
        </mxCell>
        <mxCell id="kxSxvclWyrKh4D3Jm02d-10" value="Physical&lt;br&gt;Buffer" style="rounded=1;whiteSpace=wrap;html=1;fillColor=#00CC00;" vertex="1" parent="1">
          <mxGeometry x="480" y="680" width="120" height="60" as="geometry" />
        </mxCell>
        <mxCell id="kxSxvclWyrKh4D3Jm02d-11" value="External&lt;br&gt;Memory" style="rounded=1;whiteSpace=wrap;html=1;fillColor=#66FFFF;" vertex="1" parent="1">
          <mxGeometry x="640" y="680" width="121" height="210" as="geometry" />
        </mxCell>
        <mxCell id="kxSxvclWyrKh4D3Jm02d-12" value="" style="endArrow=none;dashed=1;html=1;rounded=0;entryX=0;entryY=0;entryDx=0;entryDy=0;exitX=1;exitY=0;exitDx=0;exitDy=0;" edge="1" parent="1" source="kxSxvclWyrKh4D3Jm02d-1" target="kxSxvclWyrKh4D3Jm02d-10">
          <mxGeometry width="50" height="50" relative="1" as="geometry">
            <mxPoint x="380" y="680" as="sourcePoint" />
            <mxPoint x="430" y="630" as="targetPoint" />
          </mxGeometry>
        </mxCell>
        <mxCell id="kxSxvclWyrKh4D3Jm02d-13" value="" style="endArrow=none;dashed=1;html=1;rounded=0;entryX=0;entryY=0;entryDx=0;entryDy=0;exitX=1;exitY=0;exitDx=0;exitDy=0;" edge="1" parent="1">
          <mxGeometry width="50" height="50" relative="1" as="geometry">
            <mxPoint x="371" y="740" as="sourcePoint" />
            <mxPoint x="480" y="740" as="targetPoint" />
          </mxGeometry>
        </mxCell>
        <mxCell id="kxSxvclWyrKh4D3Jm02d-14" value="" style="endArrow=none;dashed=1;html=1;rounded=0;entryX=0.008;entryY=0.29;entryDx=0;entryDy=0;entryPerimeter=0;" edge="1" parent="1" target="kxSxvclWyrKh4D3Jm02d-11">
          <mxGeometry width="50" height="50" relative="1" as="geometry">
            <mxPoint x="370" y="740" as="sourcePoint" />
            <mxPoint x="630" y="740" as="targetPoint" />
          </mxGeometry>
        </mxCell>
        <mxCell id="kxSxvclWyrKh4D3Jm02d-15" value="" style="endArrow=none;dashed=1;html=1;rounded=0;" edge="1" parent="1">
          <mxGeometry width="50" height="50" relative="1" as="geometry">
            <mxPoint x="370" y="799" as="sourcePoint" />
            <mxPoint x="640" y="800" as="targetPoint" />
          </mxGeometry>
        </mxCell>
        <mxCell id="kxSxvclWyrKh4D3Jm02d-16" value="" style="endArrow=none;dashed=1;html=1;rounded=0;" edge="1" parent="1">
          <mxGeometry width="50" height="50" relative="1" as="geometry">
            <mxPoint x="370" y="860" as="sourcePoint" />
            <mxPoint x="640" y="860" as="targetPoint" />
          </mxGeometry>
        </mxCell>
      </root>
    </mxGraphModel>
  </diagram>
</mxfile>
